<svg xmlns="http://www.w3.org/2000/svg" xmlns:xlink="http://www.w3.org/1999/xlink" viewBox="0 0 1949.002 1110">
  <defs>
    <style>
      .cls-1 {
        fill: #fff;
      }

      .cls-2 {
        filter: url(#bg-404);
      }
    </style>
    <filter id="bg-404" x="0" y="0" width="1949.002" height="1110" filterUnits="userSpaceOnUse">
      <feOffset dy="20" input="SourceAlpha"/>
      <feGaussianBlur stdDeviation="5" result="blur"/>
      <feFlood flood-color="#b3becc" flood-opacity="0.502"/>
      <feComposite operator="in" in2="blur"/>
      <feComposite in="SourceGraphic"/>
    </filter>
  </defs>
  <g class="cls-2" transform="matrix(1, 0, 0, 1, 0, 0)">
    <path id="bg-404-2" data-name="bg-404" class="cls-1" d="M17098.5,293.5h-1919v-1075h1919Zm-959.888-811.025a42.041,42.041,0,0,0-8.966.938,64.1,64.1,0,0,0-35.219,20.79A80.02,80.02,0,0,0,16084-480.51a100.838,100.838,0,0,0-6.661,15.8,110.95,110.95,0,0,0-4.654,20.617c-.68,5.5-.606,8.929-.293,9.289,3.292,16.508,11.366,29.549,19.174,42.161l0,.005c10.705,17.291,20.815,33.621,17.007,56.581a80.023,80.023,0,0,1-5.674,18.583,139.954,139.954,0,0,1-12.142,21.781A265.2,265.2,0,0,1,16070.9-270c-8.161,9.43-17.859,19.629-28.825,30.315a135.385,135.385,0,0,0-19.969,24.175,87.59,87.59,0,0,0-10.733,23.855c-4.108,15.206-3.084,30.623,3.043,45.824a104.643,104.643,0,0,0,16.381,26.926,169.567,169.567,0,0,0,25.646,24.846,263.054,263.054,0,0,0,33.306,22.3,368.567,368.567,0,0,0,39.357,19.29c56.933,23.984,124.665,37.743,185.83,37.749h.035a366.5,366.5,0,0,0,43.555-2.5,276.7,276.7,0,0,0,40.343-7.781c26.605-7.338,48.633-18.449,65.469-33.024a21.908,21.908,0,0,1,8.3-4.379,38.486,38.486,0,0,1,10.686-1.349,82.171,82.171,0,0,1,15.092,1.6c5.143.965,10.834,2.359,17.4,4.264,12.254,3.554,25.568,8.3,39.662,13.332,2.135.762,4.658,1.662,7.2,2.566,14.156,5.028,30.588,10.745,46.461,14.962,17.23,4.576,31.609,6.8,43.959,6.8a86.618,86.618,0,0,0,13.248-.966,63.43,63.43,0,0,0,12.176-3.1,51.545,51.545,0,0,0,10.908-5.547,49.681,49.681,0,0,0,9.441-8.3c7.484-8.464,16.172-17.318,25.371-26.692l.051-.051c44.016-44.851,98.795-100.671,81.232-174.8-.914-3.864-1.3-9.955-1.779-17.666l0-.005c-1.957-31.1-5.6-88.976-52.1-139.472-20.441-22.2-43.857-38.417-73.7-51.046a378.643,378.643,0,0,0-42.59-14.769c-14.883-4.321-30.422-8.227-46.875-12.363l-.049-.012c-20.227-5.083-41.143-10.34-63.582-17.03-9.029-2.692-19.625-4.057-31.494-4.057-21.615,0-47.793,4.466-77.8,13.273-13.387,3.93-27.574,8.741-42.169,14.3-13.548,5.161-27.56,11.007-41.645,17.374a59.065,59.065,0,0,1-12.377,4.019,62.9,62.9,0,0,1-12.661,1.26,83.979,83.979,0,0,1-21.654-3.078,141.575,141.575,0,0,1-22.014-8.116c-14.668-6.686-29.193-15.465-44.023-24.628l-3.665-2.269-.376-.233C16187.3-501.344,16161.162-517.528,16138.612-517.527Z" transform="translate(-15164.5 781.5)"/>
  </g>
</svg>
