<svg xmlns="http://www.w3.org/2000/svg" viewBox="0 0 260 58.671">
  <defs>
    <style>
      .cls-1 {
        fill: #333;
      }

      .cls-2 {
        fill: #fff;
      }
    </style>
  </defs>
  <g id="icon-socialmedia" transform="translate(0 0)">
    <path id="Path_1114" data-name="Path 1114" class="cls-1" d="M-9558.891,13430.188c-15.609,0-24.555,19.766-22.3,36.577,2.258,16.828,15.313,22.094,30.914,22.094s30.773-11.766,28.516-28.578S-9543.289,13430.188-9558.891,13430.188Z" transform="translate(9581.533 -13430.188)"/>
    <path id="Path_1115" data-name="Path 1115" class="cls-1" d="M-9558.891,13430.188c-15.609,0-24.555,19.766-22.3,36.577,2.258,16.828,15.313,22.094,30.914,22.094s30.773-11.766,28.516-28.578S-9543.289,13430.188-9558.891,13430.188Z" transform="translate(9681.533 -13430.188)"/>
    <path id="Path_1116" data-name="Path 1116" class="cls-1" d="M-9558.891,13430.188c-15.609,0-24.555,19.766-22.3,36.577,2.258,16.828,15.313,22.094,30.914,22.094s30.773-11.766,28.516-28.578S-9543.289,13430.188-9558.891,13430.188Z" transform="translate(9781.533 -13430.188)"/>
    <g id="_34227" data-name="34227" transform="translate(220 20.021)">
      <path id="LinkedIn" class="cls-2" d="M20.93,21.82v7.738H16.444v-7.22c0-1.814-.649-3.051-2.273-3.051a2.455,2.455,0,0,0-2.3,1.641,3.07,3.07,0,0,0-.149,1.094v7.536H7.233s.06-12.228,0-13.495h4.487v1.913c-.009.014-.021.03-.029.044h.029v-.044a4.455,4.455,0,0,1,4.044-2.23C18.717,15.746,20.93,17.675,20.93,21.82ZM2.539,9.558a2.338,2.338,0,1,0-.06,4.664h.03a2.339,2.339,0,1,0,.03-4.664Zm-2.273,20H4.752V16.063H.267Z" transform="translate(0 -9.558)"/>
    </g>
    <g id="_34364" data-name="34364" transform="translate(114 20.021)">
      <path id="Behance" class="cls-2" d="M29.028,84.077H20.974v-2h8.055v2Zm-13.416,8.2a5.289,5.289,0,0,1,.779,2.93A5.835,5.835,0,0,1,15.5,98.4a5.533,5.533,0,0,1-1.415,1.571,5.467,5.467,0,0,1-2.257,1,13.954,13.954,0,0,1-2.824.27H0v-20H9.659c2.435.04,4.161.745,5.18,2.13a5.089,5.089,0,0,1,.915,3.054,4.452,4.452,0,0,1-.924,2.944,4.715,4.715,0,0,1-1.523,1.138A4.441,4.441,0,0,1,15.612,92.281Zm-11-3.149H8.845a4.01,4.01,0,0,0,2.114-.5,1.89,1.89,0,0,0,.811-1.758A1.79,1.79,0,0,0,10.7,85.033a7.555,7.555,0,0,0-2.361-.313H4.612Zm7.565,5.793a2.145,2.145,0,0,0-1.272-2.143,5.012,5.012,0,0,0-2-.339H4.612v5.33H8.839a4.7,4.7,0,0,0,2.025-.351A2.522,2.522,0,0,0,12.177,94.925Zm19.838-3.254a18.813,18.813,0,0,1,.123,2.845H21.709a3.424,3.424,0,0,0,1.5,3.023,3.771,3.771,0,0,0,2.065.538,2.909,2.909,0,0,0,2.848-1.64h3.823a4.656,4.656,0,0,1-1.388,2.589,6.959,6.959,0,0,1-5.388,2.092,7.819,7.819,0,0,1-5.047-1.763q-2.181-1.767-2.184-5.739A7.757,7.757,0,0,1,19.906,87.9a6.909,6.909,0,0,1,5.125-1.987,8.168,8.168,0,0,1,3.369.67,5.8,5.8,0,0,1,2.473,2.121A7.071,7.071,0,0,1,32.016,91.671Zm-3.763.373a3.128,3.128,0,0,0-1-2.264A3.265,3.265,0,0,0,25.032,89a2.97,2.97,0,0,0-2.235.822,3.861,3.861,0,0,0-1,2.218h6.454Z" transform="translate(0 -81.247)"/>
    </g>
    <path id="facebook" class="cls-2" d="M130.748,6.538h-2.094V9.957h2.094V20h4.027V9.914h2.81l.3-3.376h-3.109V4.615c0-.8.16-1.111.929-1.111h2.179V0H135.1c-3,0-4.348,1.319-4.348,3.846C130.748,6.047,130.748,6.538,130.748,6.538Z" transform="translate(-103.654 20.021)"/>
  </g>
</svg>
