<svg xmlns="http://www.w3.org/2000/svg" viewBox="0 0 759.1 278.015">
  <defs>
    <style>
      .cls-1 {
        fill: #e0edff;
      }

      .cls-2 {
        fill: #fff;
      }

      .cls-3 {
        fill: #4cbc1d;
      }

      .cls-4 {
        fill: #fcd2c5;
      }

      .cls-5 {
        fill: #fb836f;
      }

      .cls-6, .cls-8 {
        fill: none;
      }

      .cls-6 {
        stroke: #01b85e;
      }

      .cls-7 {
        fill: #febb00;
      }

      .cls-8 {
        stroke: #e6a900;
      }

      .cls-9 {
        fill: #333;
      }

      .cls-10 {
        fill: #fd3;
      }

      .cls-11 {
        fill: #fa6c51;
      }
    </style>
  </defs>
  <g id="ilu-idea-testymonial" transform="translate(-1020.9 -5351.765)">
    <path id="Path_5564" data-name="Path 5564" class="cls-1" d="M791.553,276.907c-12.031,7.571-24.788,64.615-41.487,64.615-58.911,0-76.75-219.049-158.686-190.631-42.524,14.728-80.588,130.475-132.135,164.494C405.521,350.856,360.4,192.067,321.615,192.067c-40.761,0-58.081,170.406-90.337,178.6-15.765,4.045-33.189-20.951-48.124-14.417-15.972,6.949-23.025,26.033-31.737,41.9s-26.966,27.07-39.516,28.107H871C813.126,387.987,830.343,252.637,791.553,276.907Z" transform="translate(909 5203.418)"/>
    <g id="Group_3573" data-name="Group 3573" transform="translate(1389.819 5550.333)">
      <g id="Group_3571" data-name="Group 3571" transform="translate(53.725 8.92)">
        <path id="Path_5656" data-name="Path 5656" class="cls-2" d="M550.1,348.4l14.105,70.527h2.489L552.589,348.4Z" transform="translate(-518.259 -348.4)"/>
        <path id="Path_5657" data-name="Path 5657" class="cls-2" d="M519.4,348.4l14,70.527h2.489l-14-70.527Z" transform="translate(-519.4 -348.4)"/>
        <rect id="Rectangle_5039" data-name="Rectangle 5039" class="cls-2" width="30.493" height="2.074" transform="translate(13.483 56.733)"/>
        <rect id="Rectangle_5040" data-name="Rectangle 5040" class="cls-2" width="30.493" height="2.074" transform="translate(9.646 37.338)"/>
        <rect id="Rectangle_5041" data-name="Rectangle 5041" class="cls-2" width="30.493" height="2.074" transform="translate(5.808 17.839)"/>
      </g>
      <rect id="Rectangle_5042" data-name="Rectangle 5042" class="cls-3" width="27.277" height="8.92" transform="translate(63.163 0)"/>
      <rect id="Rectangle_5043" data-name="Rectangle 5043" class="cls-3" width="51.754" height="8.92" transform="translate(11.409 0)"/>
      <g id="Group_3572" data-name="Group 3572" transform="translate(0 8.92)">
        <path id="Path_5658" data-name="Path 5658" class="cls-3" d="M467.6,418.927h2.489L484.195,348.4h-2.489Z" transform="translate(-467.6 -348.4)"/>
        <path id="Path_5659" data-name="Path 5659" class="cls-3" d="M498.4,418.927h2.489l14-70.527h-2.385Z" transform="translate(-466.455 -348.4)"/>
        <rect id="Rectangle_5044" data-name="Rectangle 5044" class="cls-3" width="30.493" height="2.074" transform="translate(4.46 56.733)"/>
        <rect id="Rectangle_5045" data-name="Rectangle 5045" class="cls-3" width="30.493" height="2.074" transform="translate(8.297 37.338)"/>
        <rect id="Rectangle_5046" data-name="Rectangle 5046" class="cls-3" width="30.493" height="2.074" transform="translate(12.135 17.839)"/>
      </g>
    </g>
    <g id="Group_3636" data-name="Group 3636" transform="translate(1365.715 5368.062)">
      <g id="Group_3580" data-name="Group 3580" transform="translate(0 2.763)">
        <path id="Path_5671" data-name="Path 5671" class="cls-4" d="M572.247,229.508a6.629,6.629,0,0,0,2.472.515c-.927.1-.824.618-1.751.927-.412,0-1.854-.927-1.648-1.339C571.423,228.993,571.835,229.3,572.247,229.508Z" transform="translate(-559.822 -164.238)"/>
        <path id="Path_5672" data-name="Path 5672" class="cls-4" d="M571.678,231.651c.206-.1,2.575-.927,3.708-1.236a28.245,28.245,0,0,1,2.884-.515,20.526,20.526,0,0,1,1.648,3.811c-1.545.412-6.592,1.339-6.7,1.339-1.854.721-2.575.309-2.369-.206,0-.1-1.339-.1-1.339-.618,0,0-.515-.1-.515-.515a2.644,2.644,0,0,1,.515-1.236C569.927,232.269,571.163,231.857,571.678,231.651Z" transform="translate(-562.652 -164.219)"/>
        <path id="Path_5673" data-name="Path 5673" class="cls-4" d="M568.361,217.9c1.545-.1,3.708.824,3.5,3.914-.206,3.4-20.394,10.506-28.738,12.463a17.608,17.608,0,0,0-1.339-3.914c5.047-1.03,21.012-10.506,25.544-12.257A3.659,3.659,0,0,1,568.361,217.9Z" transform="translate(-526.581 -164.579)"/>
        <path id="Path_5674" data-name="Path 5674" class="cls-4" d="M539.524,194.1c.515-.721,8.446,4.532,9.373,5.871,2.266,3.09-10.506,19.158-16.068,24.1-2.06,1.854-8.961,1.442-4.532-6.077C532,211.612,536.949,197.81,539.524,194.1Z" transform="translate(-488.473 -165.295)"/>
        <path id="Path_5675" data-name="Path 5675" class="cls-5" d="M555.964,204.643c2.06-4.738,4.12-9.682,5.459-11.639.206-.309.309,0,.721,0,1.751-.1,9.064,4.944,10.094,6.283,3.09,4.223-11.639,21.321-16.171,25.338-4.223,3.914-21.012,9.579-28.325,11.33l-1.751-5.974c2.987-.618,21.218-10.3,23.072-11.227C549.475,218.342,553.9,209.381,555.964,204.643Z" transform="translate(-511.093 -165.33)"/>
        <g id="Group_3852" data-name="Group 3852" transform="translate(0 0)">
          <g id="Group_3660" data-name="Group 3660">
            <g id="Group_3577" data-name="Group 3577" transform="translate(10.999)">
              <path id="Path_5666" data-name="Path 5666" class="cls-3" d="M582.567,292.481c.418,1.671-.139,3.759.139,5.569.418,2.228,1.81,2.785,2.785,4.177a11.422,11.422,0,0,1,1.253,7.379,34.047,34.047,0,0,1-1.253,4.455,9.679,9.679,0,0,0-.278,4.873c.557,2.367,3.342,4.177,3.342,14.2,0,9.05-6.544,12.67-8.354,14.9V289l.835.835A4.754,4.754,0,0,1,582.567,292.481Z" transform="translate(-571.846 -289)"/>
              <path id="Path_5667" data-name="Path 5667" class="cls-3" d="M589.263,314.062c-.418-1.531-.975-2.924-1.253-4.455a11.422,11.422,0,0,1,1.253-7.379c.975-1.392,2.367-2.088,2.785-4.177.278-1.81-.278-3.759.139-5.569a6.047,6.047,0,0,1,1.531-2.645l.835-.835v59.034c-1.81-2.228-8.354-5.709-8.354-14.9,0-10.025,2.924-11.835,3.342-14.2A9.679,9.679,0,0,0,589.263,314.062Z" transform="translate(-586.2 -289)"/>
              <line id="Line_599" data-name="Line 599" class="cls-6" y2="47.371" transform="translate(8.147 9.674)"/>
            </g>
            <g id="Group_3578" data-name="Group 3578" transform="translate(6.05 37.871)">
              <path id="Path_5668" data-name="Path 5668" class="cls-7" d="M588.412,317.035c.418.557.278,1.392.557,1.949.418.7,1.531.7,2.367.975a2.435,2.435,0,0,1,1.531,2.506,9.751,9.751,0,0,1-.418,1.949,1.987,1.987,0,0,0,.279,1.81c.557.7,2.785.835,3.759,4.595.835,3.342-3.481,5.848-4.595,6.962L586.323,316.2l.7.139A2.225,2.225,0,0,1,588.412,317.035Z" transform="translate(-583.463 -316.2)"/>
              <path id="Path_5669" data-name="Path 5669" class="cls-7" d="M591.625,319.959c0-.7-.557-1.392-.418-2.089a2.832,2.832,0,0,1,.835-1.253l.557-.418,5.569,21.581c-1.531-.418-6.544-.557-7.379-3.9-.975-3.62.975-4.873,1.114-5.848a1.874,1.874,0,0,0-.7-1.671,5.981,5.981,0,0,1-1.253-1.392,2.775,2.775,0,0,1,.139-2.924C590.651,321.352,591.625,320.795,591.625,319.959Z" transform="translate(-589.6 -316.2)"/>
              <line id="Line_600" data-name="Line 600" class="cls-8" x2="4.79" y2="15.435" transform="translate(3.516 3.206)"/>
            </g>
            <path id="Path_5670" data-name="Path 5670" class="cls-9" d="M608.535,330.3s-4.038,4.316-4.038,7.24a12.959,12.959,0,0,0,.7,3.342,6.642,6.642,0,0,1-6.265,8.632H588.207a6.642,6.642,0,0,1-6.265-8.632,12.957,12.957,0,0,0,.7-3.342c0-2.924-4.038-7.24-4.038-7.24Z" transform="translate(-578.6 -272.797)"/>
          </g>
        </g>
      </g>
      <path id="Path_5676" data-name="Path 5676" class="cls-10" d="M526.788,333.948c.515-.618,1.236-1.648,1.236-1.648l3.193,1.751s.309.309.1,1.339a2.519,2.519,0,0,1-.1,2.163c-.309.618-2.472,1.442-3.4,1.751a10.014,10.014,0,0,1-3.811.515c-1.545-.1-3.5-.927-3.5-1.854C520.5,336.214,525.758,335.287,526.788,333.948Z" transform="translate(-464.304 -158.382)"/>
      <path id="Path_5677" data-name="Path 5677" class="cls-4" d="M520.784,332.2l4.326.824a11.327,11.327,0,0,1-.1,2.472s-1.957.721-2.678.309a5.644,5.644,0,0,1-1.854-1.751A1.855,1.855,0,0,0,520.784,332.2Z" transform="translate(-457.888 -158.385)"/>
      <path id="Path_5678" data-name="Path 5678" class="cls-9" d="M539.608,235.051v20.188c-1.545,1.236-10.3,24.1-14.111,37.287-.1.412,5.459,39.244,5.459,43.467-1.545,1.751-4.738,0-4.738-.1,0,0-12.154-19.673-14.111-43.467-2.266-27.6,5.665-56.857,5.974-59.123C520.553,234.433,531.78,235.566,539.608,235.051Z" transform="translate(-463.322 -161.354)"/>
      <path id="Path_5679" data-name="Path 5679" class="cls-10" d="M502.653,334.551c.515-.721,1.133-1.751,1.133-1.751l3.3,1.545s.309.309.206,1.339a2.765,2.765,0,0,1,0,2.163c-.309.618-2.266,1.339-3.3,1.957a8.591,8.591,0,0,1-3.708.824c-1.545.1-3.605-.618-3.605-1.545C496.576,337.229,501.623,335.89,502.653,334.551Z" transform="translate(-415.758 -158.367)"/>
      <path id="Path_5680" data-name="Path 5680" class="cls-4" d="M497.312,332.6l4.223.515v2.575s-1.957.824-2.678.515a5.782,5.782,0,0,1-1.957-1.648A2.333,2.333,0,0,0,497.312,332.6Z" transform="translate(-410.005 -158.373)"/>
      <path id="Path_5681" data-name="Path 5681" class="cls-9" d="M516.444,230.628c9.579,18.334-3.09,45.115-4.738,62.316,0,0,9.064,23.793,9.064,43.364-1.442,1.854-4.635.412-4.738.206,0-7.931-15.862-28.017-17.613-42.437-3.4-27.5-1.03-56.857-.824-59.123C500.17,231.555,509.749,227.847,516.444,230.628Z" transform="translate(-428.931 -161.463)"/>
      <path id="Path_5682" data-name="Path 5682" class="cls-4" d="M528.016,177.6c-.206,2.163.824,8.137,1.648,9.167-1.545,4.017-8.034,4.429-8.549,2.163.824-2.575-.515-7.21-.515-7.622C522.145,181.514,527.5,178.012,528.016,177.6Z" transform="translate(-462.545 -163.026)"/>
      <path id="Path_5683" data-name="Path 5683" class="cls-4" d="M529.3,170.5c3.193,0,5.253,2.575,5.253,5.768v3.3c0,2.369-3.605,6.077-5.665,5.665-4.841-1.03-5.871-9.991-5.665-10.918C523.533,171.324,526.314,170.4,529.3,170.5Z" transform="translate(-470.114 -163.239)"/>
      <path id="Path_5684" data-name="Path 5684" class="cls-11" d="M496.972,191.447c1.03-.618,6.592-2.781,6.592-2.781s1.442,1.648,2.987,1.339c2.266-.309,5.562-3.605,5.562-3.605a53,53,0,0,1,6.7,1.339c14.42,4.738,22.351,22.557,19.673,64.994-.721.1-2.678.1-3.605.309l-2.678-13.6-1.03,14.317c-14.214,6.592-33.579,1.751-35.124-8.755a141.994,141.994,0,0,0,1.03-19.055c0-2.163-.1-4.12-.206-5.974-.515-9.064-1.648-15.141-1.751-16.583C494.809,199.172,493.161,194.022,496.972,191.447Z" transform="translate(-444.995 -162.761)"/>
      <path id="Path_5685" data-name="Path 5685" class="cls-9" d="M522.237,190.105c2.266-.309,5.562-3.605,5.562-3.605s2.575.309,3.4.412a14.62,14.62,0,0,1,3.3.824c-6.18,3.5-15.45,12.669-15.45,12.669s-4.326-5.15-4.944-9.785a47.008,47.008,0,0,1,5.15-2.06S520.692,190.311,522.237,190.105Z" transform="translate(-460.68 -162.758)"/>
      <path id="Path_5686" data-name="Path 5686" class="cls-9" d="M535.334,165.665c4.532,4.017,3.811,11.639,0,15.038,0,0-.618-4.944-2.163-7.21-12.978,2.884-14.214-.515-14.214-1.854C519.06,165.356,529.463,160.411,535.334,165.665Z" transform="translate(-469.657 -163.45)"/>
      <path id="Path_5687" data-name="Path 5687" class="cls-4" d="M522.828,174.8c.824.1,1.442,1.339,1.339,2.163a2.937,2.937,0,0,1-1.957,1.854,35.936,35.936,0,0,1-.721-3.811A2.152,2.152,0,0,1,522.828,174.8Z" transform="translate(-457.975 -163.111)"/>
      <g id="Group_3588" data-name="Group 3588" transform="translate(24.476 31.467)">
        <path id="Path_5692" data-name="Path 5692" class="cls-5" d="M535.225,206.745c-3.09,6.8-13.6,20.5-14.523,21.424-1.03,1.03-8.034,2.884-13.905,2.575-.515-2.06,19.776-20.909,20.085-27.192C527.088,200.153,537.491,201.8,535.225,206.745Z" transform="translate(-479.677 -194.767)"/>
        <path id="Path_5693" data-name="Path 5693" class="cls-4" d="M554.85,229.607a10.059,10.059,0,0,0,2.369.618c-.927.1-.824.618-1.751.824-.412,0-1.854-1.03-1.648-1.339C554.026,229.092,554.438,229.5,554.85,229.607Z" transform="translate(-548.773 -192.938)"/>
        <path id="Path_5694" data-name="Path 5694" class="cls-4" d="M554.075,231.745a30.935,30.935,0,0,1,3.811-1.133,13.912,13.912,0,0,1,2.884-.412,20.3,20.3,0,0,1,1.545,3.914c-1.545.412-6.592,1.133-6.7,1.236-1.957.721-2.575.206-2.369-.309.1-.1-1.339-.1-1.236-.618a.768.768,0,0,1-.515-.618,2.035,2.035,0,0,1,.618-1.133C552.324,232.26,553.56,231.951,554.075,231.745Z" transform="translate(-551.5 -192.913)"/>
        <path id="Path_5695" data-name="Path 5695" class="cls-5" d="M531.009,219.647a11.261,11.261,0,0,1,.824-1.545,128.848,128.848,0,0,0,6.283-12.566c2.163-4.635,4.12-9.064,5.562-11.021A1.229,1.229,0,0,1,544.6,194c1.751,0,8.961,5.15,9.991,6.592,1.246,1.8-.661,5.757-3.813,10.28a95.064,95.064,0,0,1-12.976,14.647c-4.326,3.811-21.218,9.064-28.634,10.609l-1.648-5.974c2.987-.515,10.3-4.223,16.171-7.107C526.477,221.81,529.052,220.471,531.009,219.647Z" transform="translate(-498.872 -194)"/>
      </g>
    </g>
  </g>
</svg>
