<svg xmlns="http://www.w3.org/2000/svg" xmlns:xlink="http://www.w3.org/1999/xlink" viewBox="0 0 1090 833">
  <defs>
    <style>
      .cls-1 {
        fill: #c7cbd4;
        opacity: 0.62;
      }

      .cls-19, .cls-2 {
        fill: #fff;
      }

      .cls-3 {
        fill: #4cbc1d;
      }

      .cls-4, .cls-7 {
        fill: #333;
      }

      .cls-19, .cls-20, .cls-4 {
        fill-rule: evenodd;
      }

      .cls-5 {
        fill: #fcd2c5;
      }

      .cls-6 {
        fill: #febb00;
      }

      .cls-8 {
        fill: #fa6c51;
      }

      .cls-9 {
        fill: #fb836f;
      }

      .cls-10 {
        fill: #3387ff;
      }

      .cls-11 {
        fill: #f2f7ff;
      }

      .cls-12, .cls-20 {
        fill: #edf5f8;
      }

      .cls-13 {
        fill: #272063;
      }

      .cls-14 {
        fill: #fffeff;
      }

      .cls-15 {
        fill: #afc4d5;
      }

      .cls-16 {
        fill: #2b8b02;
      }

      .cls-17 {
        fill: #fb0;
      }

      .cls-18 {
        fill: #ffaf33;
      }

      .cls-21 {
        fill: #2e79e6;
      }

      .cls-22, .cls-23 {
        fill: none;
      }

      .cls-22 {
        stroke: #01b85e;
      }

      .cls-23 {
        stroke: #e6a900;
      }

      .cls-24 {
        fill: #ffca1b;
      }

      .cls-25 {
        filter: url(#Path_5566);
      }
    </style>
    <filter id="Path_5566" x="247.268" y="274.798" width="449.912" height="459.753" filterUnits="userSpaceOnUse">
      <feOffset dy="40" input="SourceAlpha"/>
      <feGaussianBlur stdDeviation="10" result="blur"/>
      <feFlood flood-color="#e6e6e6" flood-opacity="0.22"/>
      <feComposite operator="in" in2="blur"/>
      <feComposite in="SourceGraphic"/>
    </filter>
  </defs>
  <g id="Ilu-home-idea" transform="translate(0 -1211)">
    <g id="Group_3893" data-name="Group 3893">
      <path id="Path_6643" data-name="Path 6643" class="cls-1" d="M-18571.9,245.871c59.492,33.258,160.178,80.02,257.643,85.816,152.768,9.084,151.623-28.957,298.988-83.459s271.34-126.089,366.637-77.97S-17723.164,324-17716.285,471.3s163.734,150.256,82.2,285.774-164.307,208.433-324.439,229.056-232.594-219.89-396.658-201.723c-94.336,10.446-169.834,87.451-217.053,151.132C-18572.24,855.255-18571.9,323.415-18571.9,245.871Z" transform="translate(18572.24 1056.612)"/>
      <g id="Group_3653" data-name="Group 3653" transform="translate(626.379 1272.364)">
        <path id="Path_5609" data-name="Path 5609" class="cls-2" d="M836.245,212.9a21.142,21.142,0,0,0-16.345,8.169h32.924C848.854,216.4,843.017,212.9,836.245,212.9Z" transform="translate(-492.762 -178.356)"/>
        <path id="Path_5610" data-name="Path 5610" class="cls-2" d="M942.725,223.541c-7.005,0-12.376,8.4-18.68,6.769-13.777-3.268-19.614-21.007-34.792-21.007-11.675,0-18.447,14.471-29.421,13.538C842.785,221.207,834.846,198.1,816.4,198.1c-17.046,0-25.452,19.84-41.33,21.473-9.34.934-16.112-10.037-26.152-10.037-19.147,0-20.782,7.469-38.295,13.071-5.137,1.634-8.873,11.437-14.477,11.437-6.771,0-12.609,2.1-16.345,6.769H971.212C966.308,231.477,955.334,223.541,942.725,223.541Z" transform="translate(-679.8 -198.1)"/>
      </g>
      <g id="Group_3661" data-name="Group 3661" transform="translate(316.73 1403.507)">
        <path id="Path_5609-2" data-name="Path 5609" class="cls-2" d="M836.245,212.9a21.142,21.142,0,0,0-16.345,8.169h32.924C848.854,216.4,843.017,212.9,836.245,212.9Z" transform="translate(-492.762 -178.356)"/>
        <path id="Path_5610-2" data-name="Path 5610" class="cls-2" d="M942.725,223.541c-7.005,0-12.376,8.4-18.68,6.769-13.777-3.268-19.614-21.007-34.792-21.007-11.675,0-18.447,14.471-29.421,13.538C842.785,221.207,834.846,198.1,816.4,198.1c-17.046,0-25.452,19.84-41.33,21.473-9.34.934-16.112-10.037-26.152-10.037-19.147,0-20.782,7.469-38.295,13.071-5.137,1.634-8.873,11.437-14.477,11.437-6.771,0-12.609,2.1-16.345,6.769H971.212C966.308,231.477,955.334,223.541,942.725,223.541Z" transform="translate(-679.8 -198.1)"/>
      </g>
      <g id="Group_3658" data-name="Group 3658" transform="translate(167.35 1451.344)">
        <g id="Group_3847" data-name="Group 3847" transform="translate(0)">
          <g class="cls-25" transform="matrix(1, 0, 0, 1, -167.35, -240.34)">
            <path id="Path_5566-2" data-name="Path 5566" class="cls-3" d="M393.653,246.25h-.687c-107.609,3.664-191.865,93.9-188.2,201.308,3.663,107.639,93.872,191.69,201.481,188.255h.687c107.38-4.122,191.178-93.9,187.514-201.309S501.033,243.044,393.653,246.25Z" transform="translate(72.62 28.64)"/>
          </g>
          <g id="Group_3849" data-name="Group 3849">
            <g id="Group_3449" data-name="Group 3449" transform="translate(139.995 61.512)">
              <g id="Group_3448" data-name="Group 3448">
                <g id="Group_3447" data-name="Group 3447">
                  <path id="Path_5570" data-name="Path 5570" class="cls-4" d="M236.573,258.2c-11.475,0-25.473,9.405-25.473,25,0,23.4,25.473,48.862,25.473,48.862s25.473-25.234,25.473-48.862C262.047,267.605,248.736,258.2,236.573,258.2Zm-.229,39.686A14.681,14.681,0,1,1,251.031,283.2,14.787,14.787,0,0,1,236.344,297.886Z" transform="translate(-211.1 -258.2)"/>
                </g>
              </g>
            </g>
            <g id="Group_3450" data-name="Group 3450" transform="translate(72.8 85.051)">
              <path id="Path_5571" data-name="Path 5571" class="cls-5" d="M217.008,317.047A23.574,23.574,0,0,1,211.5,315.9c1.836,1.147.918,2.065,2.754,3.441.918.229,4.59-.229,4.59-1.147C219.073,316.818,217.926,317.047,217.008,317.047Z" transform="translate(-143.387 -207.077)"/>
              <path id="Path_5572" data-name="Path 5572" class="cls-5" d="M226.489,325.135c-.23-.229-4.36-4.359-6.426-5.964a43.194,43.194,0,0,0-5.278-3.67s-5.508,4.358-6.885,6.194c2.754,2.294,12.163,8.717,12.392,8.946,3.213,3.212,5.049,2.982,5.049,1.606,0-.229,2.754,1.147,3.213,0a1.516,1.516,0,0,0,1.606-.688,6.543,6.543,0,0,0,0-2.982C229.7,328.117,227.407,326.052,226.489,325.135Z" transform="translate(-148.049 -207.594)"/>
              <path id="Path_5573" data-name="Path 5573" class="cls-5" d="M209.5,269.009c-.23-1.835-21.113,1.376-24.326,3.212-7.344,4.358,3.672,48.632,10.327,63.543,2.524,5.735,16.753,11.24,14.687-8.258C208.579,311.677,211.1,278.873,209.5,269.009Z" transform="translate(-180.627 -268.461)"/>
              <path id="Path_5574" data-name="Path 5574" class="cls-6" d="M186.135,272.221c-5.049,2.753-5.967,24.316-1.147,42.209,2.065,0,8.491-.918,10.557-1.147a111.245,111.245,0,0,0,17.441-3.212c-1.606-15.6-1.147-34.18-2.524-41.062C210.231,267.174,189.347,270.385,186.135,272.221Z" transform="translate(-181.82 -268.461)"/>
              <path id="Path_5575" data-name="Path 5575" class="cls-5" d="M200.48,295.78a4.115,4.115,0,0,0-1.606-1.147c-2.983-1.606-8.262-1.835-10.786,4.817-2.754,7.111,31.67,40.144,46.816,51.614a39.627,39.627,0,0,1,6.2-6.882C231.921,337.3,208.283,303.579,200.48,295.78Z" transform="translate(-173.905 -235.818)"/>
            </g>
            <path id="Path_5580" data-name="Path 5580" class="cls-5" d="M172.307,349.4c-.459,6.194,11.7,142.685,11.7,142.685,0,.229,5.278.688,8.491-1.835,0,0,7.573-133.738,7.8-136.491C198.01,355.823,175.75,352.153,172.307,349.4Z" transform="translate(-121.355 -78.678)"/>
            <path id="Path_5576" data-name="Path 5576" class="cls-5" d="M155.007,349.4c-.459,6.194,11.7,142.685,11.7,142.685,0,.229,5.278.688,8.491-1.835,0,0,7.573-133.738,7.8-136.491C180.71,355.823,158.45,352.153,155.007,349.4Z" transform="translate(-143.757 -78.678)"/>
            <path id="Path_5577" data-name="Path 5577" class="cls-7" d="M170.494,412.77c-1.147-1.376-2.754-3.67-2.754-3.67l-7.114,3.9s-.688.688-.229,2.982a6.734,6.734,0,0,0,.229,4.817c.689,1.376,5.278,2.523,7.573,3.9,1.836,1.147,5.049,1.376,8.491,1.147s7.8-2.065,7.8-4.129C184.493,417.588,172.789,415.523,170.494,412.77Z" transform="translate(-137.212 -1.427)"/>
            <path id="Path_5583" data-name="Path 5583" class="cls-8" d="M168.6,310.87v44.962c3.442,2.753,2.524,42.9,8.491,85.336,7.114,49.091,10.786,101.394,10.786,101.394,3.442,3.9,10.557,0,10.557-.229,0,0,19.507-225.956,18.13-235.132C210.826,309.494,185.812,312.017,168.6,310.87Z" transform="translate(-126.139 -133.283)"/>
            <path id="Path_5578" data-name="Path 5578" class="cls-5" d="M159.9,412.341s.229,1.606.459,3.9c0,0,4.36,1.606,5.967.688a12.572,12.572,0,0,0,4.131-3.9,16.907,16.907,0,0,1-2.524-4.129Z" transform="translate(-137.404 -1.686)"/>
            <path id="Path_5579" data-name="Path 5579" class="cls-9" d="M151.3,310.87v44.962c3.442,2.753,2.524,42.9,8.491,85.336,7.114,49.091,10.786,101.394,10.786,101.394,3.442,3.9,10.557,0,10.557-.229,0,0,19.507-225.956,18.13-235.132C193.526,309.494,168.512,312.017,151.3,310.87Z" transform="translate(-148.541 -133.283)"/>
            <path id="Path_5581" data-name="Path 5581" class="cls-7" d="M187.794,412.77c-1.148-1.376-2.754-3.67-2.754-3.67l-7.114,3.9s-.689.688-.229,2.982a6.734,6.734,0,0,0,.229,4.817c.688,1.376,5.508,3.212,7.573,3.9a22.322,22.322,0,0,0,8.491,1.147c3.442-.229,7.8-2.065,7.8-4.129C201.793,417.588,190.089,415.523,187.794,412.77Z" transform="translate(-114.81 -1.427)"/>
            <path id="Path_5582" data-name="Path 5582" class="cls-5" d="M177.2,412.341s.229,1.606.459,3.9c0,0,4.36,1.606,5.967.688a12.572,12.572,0,0,0,4.131-3.9,16.909,16.909,0,0,1-2.524-4.129Z" transform="translate(-115.003 -1.686)"/>
            <path id="Path_5584" data-name="Path 5584" class="cls-6" d="M150.1,322.275c.229,3.67,16.523,13.534,62.192,11.929,17.212-.688,20.425,10.323,27.08,5.964,2.983-1.835,2.983-24.087,2.983-24.087l-85.6-14.681S149.874,318.6,150.1,322.275Z" transform="translate(-150.098 -140.788)"/>
            <path id="Path_5585" data-name="Path 5585" class="cls-6" d="M242.927,271.805c-2.065-1.606-14-7.111-14-7.111s-3.442,3.441-6.885,2.523c-5.049-1.147-11.7-8.717-11.7-8.717s-11.245.918-14.917,1.835c-14.458,3.67-20.884,24.087-22.949,33.492-.688,3.441-22.031,62.625-20.425,67.213,4.131,11.47,81.928,27.986,88.813,19.04,2.754-3.67,8.491-78.454,8.721-85.794C249.812,286.716,250.959,278.228,242.927,271.805Z" transform="translate(-147.683 -196.299)"/>
            <path id="Path_5586" data-name="Path 5586" class="cls-5" d="M182.478,249.6c0,4.817-3.213,17.893-5.278,20.187,2.754,9.176,16.982,11.24,18.818,6.194-1.606-5.964,2.295-15.828,2.524-16.746C195.1,259.235,183.626,250.747,182.478,249.6Z" transform="translate(-115.003 -207.816)"/>
            <path id="Path_5587" data-name="Path 5587" class="cls-5" d="M193.592,243.015c-7.114-.459-12.163,5.047-12.622,11.929l-.459,7.111c-.459,5.276,7.114,13.993,11.7,13.534,11.016-1.606,14.687-21.1,14.458-23.4C206.214,245.768,200.247,243.474,193.592,243.015Z" transform="translate(-110.741 -216.371)"/>
            <path id="Path_5588" data-name="Path 5588" class="cls-10" d="M209.026,246.832c-.459-3.441-11.245-13.305-24.1-3.9-18.818,13.993-1.377,28.216-1.377,28.216-.459-4.817,7.344-22.022,22.49-19.728,0,0,7.573,5.047,3.442,16.746C215.222,266.331,220.041,250.5,209.026,246.832Z" transform="translate(-116.306 -221.564)"/>
            <path id="Path_5589" data-name="Path 5589" class="cls-10" d="M176.662,252.983c-5.049,12.387-8.262,12.617-13.31,15.37-24.326,13.993.918,53.22,7.344,41.062,2.524-4.817-10.327-13.534,10.557-19.269,23.178-6.194,16.982-17.664,17.212-25.234.229-28.216,12.392-19.5,14.687-13.534,1.377,3.67,4.59,2.294,5.737-.229C223.019,240.366,192.956,211.691,176.662,252.983Z" transform="translate(-146.364 -231.385)"/>
            <path id="Path_5590" data-name="Path 5590" class="cls-7" d="M185.048,238.885a3.979,3.979,0,0,0-2.754.229c-3.672,1.606-4.131,3.9-3.442,6.423,0,0,4.36-3.67,9.18-4.588C188.261,240.95,187.113,239.344,185.048,238.885Z" transform="translate(-113.212 -221.876)"/>
            <g id="Group_3452" data-name="Group 3452" transform="translate(33.594 70.406)">
              <g id="Group_3451" data-name="Group 3451">
                <path id="Path_5591" data-name="Path 5591" class="cls-5" d="M222.349,286.18a15.67,15.67,0,0,1-5.049,2.065c2.065-.229,2.065,1.147,4.131,1.147.918-.229,3.672-2.753,3.213-3.67C223.955,284.8,223.037,285.721,222.349,286.18Z" transform="translate(-96.671 -231.99)"/>
                <path id="Path_5592" data-name="Path 5592" class="cls-5" d="M237.731,288.862c-.918-.459-3.672-.688-4.819-.918-.459,0-6.2-1.147-8.721-1.147a30.081,30.081,0,0,0-6.426,0,39.936,39.936,0,0,0-2.065,8.946c3.672.229,14.917.229,15.146.229,4.36.918,5.737-.459,5.049-1.376-.229-.229,2.983-.688,2.524-1.835a1.7,1.7,0,0,0,.918-1.376A4.057,4.057,0,0,0,237.731,288.862Z" transform="translate(-98.742 -230.313)"/>
                <path id="Path_5593" data-name="Path 5593" class="cls-5" d="M174.1,264.489c-2.983,2.065-12.163,17.664-5.737,21.563,8.721,5.047,29.6,19.04,44.521,25,18.13,7.57,18.359-5.505,13.769-9.635C214.947,290.181,181.212,259.671,174.1,264.489Z" transform="translate(-162.935 -259.619)"/>
                <path id="Path_5594" data-name="Path 5594" class="cls-6" d="M177.964,262.13c-9.639,1.835-18.359,14.223-9.639,25.463,4.36,5.735,14.687,13.764,27.309,19.5a107.6,107.6,0,0,0,11.933-13.076c1.377-1.606,5.508-6.652,6.655-8.258C201.831,272.453,183.7,261.212,177.964,262.13Z" transform="translate(-164.736 -262.077)"/>
                <path id="Path_5595" data-name="Path 5595" class="cls-5" d="M187.654,290.671c3.442,6.423,47.963,13.534,67.011,14.452a54.961,54.961,0,0,1,1.147-9.176c-11.474-.229-50.258-14.681-61.044-16.517C189.719,278.743,184.441,284.707,187.654,290.671Z" transform="translate(-136.33 -239.693)"/>
              </g>
            </g>
            <path id="Path_5600" data-name="Path 5600" class="cls-5" d="M179.212,250.57a6.733,6.733,0,0,0,2.754,5.276,58.9,58.9,0,0,0,4.131-7.57,4.441,4.441,0,0,0-2.754-1.376C181.737,246.9,179.442,248.965,179.212,250.57Z" transform="translate(-112.425 -211.309)"/>
          </g>
          <path id="Union_4" data-name="Union 4" class="cls-11" d="M143.664,383.523c8.964-1.381,14.712-5.058,18.621-9.887a23.636,23.636,0,0,0,3.214-5.058c-.918-8.5-4.6-16.778-8.505-24.821-1.375-2.532-2.757-5.287-3.9-7.819-9.886-16.32-9.655-26.659-3.909-34.021a27.665,27.665,0,0,1,5.284-5.052,83.494,83.494,0,0,1,8.046-2.99c2.757-.922,5.518-1.839,8.275-2.99a51.624,51.624,0,0,0,9.421-2.068c44.353-10.575,8.962-45.97,1.375-74.016-1.144-2.3-2.062-4.136-3.214-5.975-3.444-5.287-8.277-8.278-22.751-9.887a58.311,58.311,0,0,0-6.436-.229,34.839,34.839,0,0,1-10.114-1.375,33.536,33.536,0,0,1-8.275-3.448,31.164,31.164,0,0,0-5.742-9.429,27.154,27.154,0,0,0-6.436-5.287,28.352,28.352,0,0,0-7.123-3.213c-5.332-5.987-12.1-5.173-18.969-4.365-7.646.9-15.427,1.8-21.476-6.668a8.714,8.714,0,0,1,1.6-6.21c1.611-2.3,4.831-4.594,10.575-5.974,7.121-1.61,12.639-2.761,17.237-3.678,11.717-2.3,17.7-12.184,29.643-21.149a107.136,107.136,0,0,0,17.008-16.091c2.527-4.829,3.214-9.652,15.626-15.633,7.986-3.943,15.554-1.628,22.165.687,7.269,2.544,13.379,5.094,17.594-.687,2.3-3.213-1.152-8.5-2.527-11.491-2.987-5.975-3.679-12.184-7.584-17.7a6.906,6.906,0,0,0-4.143-3.213s-6.2-1.152-8.5-2.761a27.47,27.47,0,0,0-17.465-4.6c-.459,0-.918.235-1.382.235-9.88,2.068-10.344,18.159-22.52,18.159-14.476,0-12.643-14.023-7.587-15.862,5.061-2.99,10.114-.922,15.634-.922,6.2,0,19.07-5.745,21.138-5.516,3.222.464,7.587,2.3,10.8,2.99l9.427.916c3.9,0,14.246-14.246,2.985-21.143-3.45-2.068-19.307-5.287-19.307-5.287-4.366-.229-8.962-11.262-13.787-10.346-3.679.687-9.657,9.423-28.5,10.346-1.172.06-4.4-.476-8.425-1.013-10.247-1.374-25.627-2.743-25.125,5.836,0,2.532-3.222,4.6-5.522,4.371-4.364-.458-8.039,0-12.174.229A193.775,193.775,0,0,1,188.712.109h.459c48.262-1.61,92.846,14.71,128.009,42.756a34.991,34.991,0,0,1-11.955,6.2c-1.375.464-2.757,1.839-2.521,3.449.681,7.126,13.781,8.277,9.421,23.217-1.839,6.21-11.725,7.813-17.926,9.658-2.991.916-6.434,2.068-7.357,5.516a17.6,17.6,0,0,1-8.734,10.569,14.335,14.335,0,0,0-3.216,1.61l-2.991,2.761a11.67,11.67,0,0,0-1.831,8.965c1.375,8.507,10.108,8.965,16.772,6.668,0,0,2.991-1.38,3.45-1.61.687-.235.916-.693,1.375-.922a7.971,7.971,0,0,0,2.532-2.3l1.375-.922,9.192-12.871s9.657-5.975,13.558.458a14.128,14.128,0,0,0,4.366,4.6c1.841,1.152,16.321,5.516,13.1,1.61-2.066-2.068-4.139-5.516.922-8.736,4.825-2.99,9.421,3.219,11.717,9.887.941,2.6,2.927.935,5.473-.723,2.4-1.561,5.3-3.129,8.316-1.115.693.458,2.527,7.584,2.991,8.042,2.985,4.829,5.514,4.365,11.719,2.526,1.611,3.678,2.985,7.59,4.366,11.5a9.245,9.245,0,0,0-3.448.687c-6.178,2.448-11.233.579-16.206-1.284-4.846-1.815-9.616-3.629-15.28-1.471-12.869,4.823-13.787-8.277-24.816-9.887-13.1-1.839-12.873,7.584-38.607,10.345-12.182,1.381-18.389,9.881-29.421,13.1-6.207,1.839-8.269,7.355-7.582,12.413-2.527,21.836-2.3,58.847,28.5,57.238,9.878-.464,37.689-7.59,42.973,2.3,8.046,15.4,10.8,31.03,12.641,48.273.918,8.5,10.344,31.259,10.344,31.259,2.521,7.126,3.9,26.665,5.055,28.275a193.937,193.937,0,0,1-141.567,68.728h-.465q-3.14.1-6.262.1A198.462,198.462,0,0,1,143.664,383.523ZM.111,202.387a196.14,196.14,0,0,1,13.08-77.09l.465.229s2.98.458,3.444,2.3l.228.916c.687,2.99,3.444,10.358,12.395,10.358,6.2,0,8.491,6.9,10.561,13.577,1.6,5.523,3.673,11.738,7.574,14.957,2.3,1.839,4.132,3.684,5.973,5.293a28.132,28.132,0,0,1,4.132,8.283,31.224,31.224,0,0,1,1.831,9.206c-1.144,2.532-2.292,5.064-3.214,7.59A80.584,80.584,0,0,0,52.22,208.6a41.947,41.947,0,0,0-2.064,10.128c-.463,3.219-.687,6.439-.916,9.893,0,3.219,0,6.445.223,9.435a93.1,93.1,0,0,0,8.269,24.393c1.375,2.532-16.532,49.472-15.845,54.078A194.059,194.059,0,0,1,.111,202.387Z" transform="translate(108.698 33.226)"/>
        </g>
      </g>
      <g id="Group_3848" data-name="Group 3848" transform="translate(730.326 1603.145)">
        <g id="Group_3654" data-name="Group 3654" transform="translate(177.711)">
          <g id="XMLID_3_" transform="translate(70.344 101.61)">
            <path id="Path_5617" data-name="Path 5617" class="cls-12" d="M792.5,319.929h31.2l3.488-8.329H795.794Z" transform="translate(-716.343 -306.589)"/>
            <g id="XMLID_32_" transform="translate(77.126 12.953)">
              <g id="Group_3527" data-name="Group 3527">
                <g id="Group_3526" data-name="Group 3526">
                  <path id="Path_5618" data-name="Path 5618" class="cls-13" d="M825.943,315.7H793v3.293h32.943a1.528,1.528,0,0,0,1.55-1.55h0C827.493,316.281,826.912,315.7,825.943,315.7Z" transform="translate(-793 -315.7)"/>
                </g>
              </g>
            </g>
            <g id="Group_3528" data-name="Group 3528" transform="translate(0.581)">
              <path id="Path_5619" data-name="Path 5619" class="cls-14" d="M815.317,312.087c-8.333-5.617-19.185-2.712-22.285,2.131-2.907-4.843-13.953-7.748-22.285-2.131-5.426,3.68-13.371,1.937-17.247,1.937l4.069,10.073h70.537l4.069-10.073C828.688,314.024,820.743,315.767,815.317,312.087Z" transform="translate(-753.5 -309.013)"/>
            </g>
            <g id="XMLID_12_" transform="translate(0 12.953)">
              <g id="Group_3530" data-name="Group 3530">
                <g id="Group_3529" data-name="Group 3529">
                  <path id="Path_5620" data-name="Path 5620" class="cls-15" d="M831.1,315.7H796.8v.194a1.3,1.3,0,0,1-1.357,1.162h-5.038a1.3,1.3,0,0,1-1.356-1.162V315.7h-34.3a1.528,1.528,0,0,0-1.55,1.55h0a1.528,1.528,0,0,0,1.55,1.55h33.525a2.752,2.752,0,0,1,1.163.387,1.481,1.481,0,0,0,.969.387h5.038a1.481,1.481,0,0,0,.969-.387,2.753,2.753,0,0,1,1.163-.387H831.1a1.528,1.528,0,0,0,1.55-1.55h0A1.425,1.425,0,0,0,831.1,315.7Z" transform="translate(-753.2 -315.7)"/>
                </g>
              </g>
            </g>
          </g>
          <path id="Path_5621" data-name="Path 5621" class="cls-13" d="M816.464,372.1c-20.929-16.077-72.669-39.516-82.552-40.1-5.232-.387-31.393,18.208-4.845,42.421,16.665,15.3,54.259,13.947,82.746,16.077C821.7,391.083,825.378,378.879,816.464,372.1Z" transform="translate(-716.472 -185.866)"/>
          <g id="Group_3531" data-name="Group 3531" transform="translate(16.656 46.304)">
            <path id="Path_5622" data-name="Path 5622" class="cls-3" d="M775.757,317.578a18.931,18.931,0,0,1-4.457,1.162c1.744.194,1.55,1.162,3.294,1.55.775,0,3.295-1.937,3.1-2.518C777.307,316.415,776.532,317.19,775.757,317.578Z" transform="translate(-682.538 -246.219)"/>
            <path id="Path_5623" data-name="Path 5623" class="cls-5" d="M784.5,320.706c-.388-.194-5.038-1.55-7.17-2.131a52.273,52.273,0,0,0-5.426-.775A38.174,38.174,0,0,0,769,325.161c2.907.775,12.4,2.131,12.79,2.131,3.682,1.356,4.845.387,4.457-.581-.194-.194,2.519-.194,2.325-1.162a1.445,1.445,0,0,0,.969-1.162,3.826,3.826,0,0,0-1.163-2.131A11.612,11.612,0,0,0,784.5,320.706Z" transform="translate(-684.695 -245.473)"/>
            <path id="Path_5624" data-name="Path 5624" class="cls-3" d="M747.822,306.6c-2.907,0-6.976,1.743-6.395,7.555.581,6.392,38.951,18.4,54.841,21.5A32.838,32.838,0,0,1,798.4,328.1c-9.689-1.743-40.113-18.4-48.833-21.5C749.178,306.794,748.6,306.6,747.822,306.6Z" transform="translate(-710.606 -255.968)"/>
            <path id="Path_5625" data-name="Path 5625" class="cls-3" d="M743.46,283.145c-.969-1.162-15.5,8.91-17.247,11.622-4.069,6,21.122,35.254,31.781,44.165,4.069,3.293,16.859,2.131,8.139-11.816C758.769,315.687,748.692,290.118,743.46,283.145Z" transform="translate(-725.235 -278.034)"/>
            <path id="Path_5626" data-name="Path 5626" class="cls-16" d="M769.494,331.287a21.175,21.175,0,0,0-1.55-2.906c-3.488-5.617-7.751-14.722-12.015-23.438-4.07-8.717-7.17-16.271-10.658-24.407-.194-.581-15.309,1.937-19.572,17.627-2.713,9.491,22.479,37.191,31.005,44.552,8.139,6.973,40.113,16.659,53.872,19.37l2.907-11.235c-5.62-.969-19.378-7.748-30.618-13.172C778.02,335.355,773.175,332.836,769.494,331.287Z" transform="translate(-725.495 -280.461)"/>
          </g>
          <path id="Path_5627" data-name="Path 5627" class="cls-7" d="M848.938,371C822.2,354.922,756.5,331.484,743.908,330.9c-6.782-.387-39.919,18.208-6.2,42.421,21.316,15.3,69.181,13.947,105.224,16.078C855.527,389.983,860.372,377.973,848.938,371Z" transform="translate(-711.352 -186.897)"/>
          <path id="Path_5628" data-name="Path 5628" class="cls-5" d="M765.7,396.867a23.77,23.77,0,0,0,.194,7.748c.194.194,4.845.194,7.364-2.518a19.527,19.527,0,0,1,.775-4.843C770.743,394.348,766.092,397.06,765.7,396.867Z" transform="translate(-671.332 -125.984)"/>
          <path id="Path_5629" data-name="Path 5629" class="cls-7" d="M790.586,364.928C777.8,402.313,765.2,439.117,765.2,439.117c3.488-.969,7.752.775,9.108,3.293,0,0,17.828-32.736,39.532-71.864C822.948,354.468,799.112,340.328,790.586,364.928Z" transform="translate(-671.602 -167.46)"/>
          <path id="Path_5630" data-name="Path 5630" class="cls-17" d="M774.581,399.855a8.363,8.363,0,0,1-1.357-1.55s-5.813-1.356-7.557,2.712c0,0-.775,4.262,1.357,6.586.775.969,5.038,5.424,7.17,6.392,1.744.775,4.263.581,7.17.194s6.395-2.324,6.2-4.068C787.177,406.634,776.906,402.179,774.581,399.855Z" transform="translate(-671.294 -123.936)"/>
          <path id="Path_5631" data-name="Path 5631" class="cls-17" d="M772.192,400.665c-2.907-1.937-7.751,1.55-4.457,6,.581.775,4.263,4.649,6.007,5.424a12.078,12.078,0,0,0,6.007.194c2.519-.387,5.426-1.937,5.232-3.487C784.788,406.089,775.292,402.6,772.192,400.665Z" transform="translate(-670.261 -122.034)"/>
          <path id="Path_5632" data-name="Path 5632" class="cls-5" d="M747.894,394.5c-1.357,2.712-3.294,5.811-3.294,5.811,2.519,2.518,8.914,4.843,8.914,4.649a75.465,75.465,0,0,0,2.132-8.717C755.064,396.245,751.189,391.4,747.894,394.5Z" transform="translate(-690.922 -128.268)"/>
          <path id="Path_5633" data-name="Path 5633" class="cls-7" d="M769.248,365.628c-12.79,37.385-23.448,68.378-23.448,68.378,3.488-.969,7.558.969,8.914,3.487,0,0,16.084-26.925,37.788-66.247C801.61,355.168,777.581,341.028,769.248,365.628Z" transform="translate(-689.796 -166.804)"/>
          <path id="Path_5634" data-name="Path 5634" class="cls-17" d="M757.288,396.165h0a6.056,6.056,0,0,0-6.2,1.356h0c-2.325,2.131-12.6,6.78-12.984,10.266-.194,1.743,3.294,3.68,6.2,4.068s5.62.581,7.17-.194c2.131-.969,6.395-5.424,7.17-6.392s1.163-3.293,1.163-4.843A4.183,4.183,0,0,0,757.288,396.165Z" transform="translate(-697.022 -126.058)"/>
          <path id="Path_5635" data-name="Path 5635" class="cls-17" d="M751.694,398.364c-2.907,2.131-12.6,5.424-12.79,8.329-.194,1.356,2.713,3.1,5.232,3.487s4.651.387,6.007-.194c1.744-.775,5.426-4.649,6.007-5.424C759.446,399.914,754.6,396.427,751.694,398.364Z" transform="translate(-696.272 -124.189)"/>
          <path id="Path_5636" data-name="Path 5636" class="cls-12" d="M798.483,332.212a85.612,85.612,0,0,1-25.773,2.906c-14.534-.387-29.068-2.324-43.408-4.261-3.294-.387-6.589-.775-9.883-1.356-1.357,12.01-2.325,24.213-2.519,34.867,1.356.194,50.384,14.721,69.956,8.329,7.364-2.518,16.084-6.586,20.347-21.5C801.2,347.9,798.483,345.771,798.483,332.212Z" transform="translate(-716.9 -188.206)"/>
          <path id="Path_5637" data-name="Path 5637" class="cls-5" d="M739.738,269c.581,4.068-.581,15.3-1.938,17.433,3.294,7.361,15.5,7.554,16.278,3.1-1.938-4.649.194-13.559.194-14.334C751.171,275.586,740.707,269.775,739.738,269Z" transform="translate(-697.299 -244.897)"/>
          <path id="Path_5638" data-name="Path 5638" class="cls-5" d="M748.922,261.53c-6.007.387-9.5,5.617-9.108,11.429l.388,6c.194,4.455,7.558,11.041,11.433,9.879,8.914-2.518,9.883-19.37,9.5-21.307C759.774,262.5,754.348,261.143,748.922,261.53Z" transform="translate(-695.438 -251.955)"/>
          <path id="Path_5639" data-name="Path 5639" class="cls-3" d="M785.9,285.554c-1.938-1.162-12.6-4.455-12.6-4.455a15.183,15.183,0,0,1-8.914.581c-5.62-1.162-7.364-3.68-7.364-3.68s-9.5,1.937-12.4,3.293c-27.13,11.429-26.936,81.937-27.324,123.971,1.357.194,2.907.194,4.651.581l5.232-26.537,1.744,27.506c18.216,2.712,35.462,11.816,58.135,6.78l2.132-21.889,2.325,20.92c9.689-2.518,13.953-12.591,14.34-13.366-11.627-17.046-11.821-91.041-12.015-95.884C793.457,293.109,793.457,289.816,785.9,285.554Z" transform="translate(-716.525 -236.464)"/>
          <path id="Path_5640" data-name="Path 5640" class="cls-18" d="M768.224,268.069c-3.876-8.91-18.409-15.5-26.936-8.717-7.558,6-6.589,16.659-1.938,23.826,2.325,3.68-2.132,2.906-2.132,2.906s3.682,4.068,7.751,5.424c13.952,4.649,23.06-14.14,23.06-14.14s-5.814-1.743-3.876-1.55c8.526.581,10.27-3.1,9.5-7.554C773.65,270.2,770.937,274.655,768.224,268.069Z" transform="translate(-699.237 -256.557)"/>
          <path id="Path_5641" data-name="Path 5641" class="cls-5" d="M794.763,316.31a12.6,12.6,0,0,1-4.263,2.131c1.744-.194,1.744.775,3.488.775.775-.194,2.907-2.712,2.519-3.293C795.926,314.954,795.345,315.729,794.763,316.31Z" transform="translate(-647.875 -201.359)"/>
          <path id="Path_5642" data-name="Path 5642" class="cls-5" d="M807.425,317.768c-.775-.387-3.294-.387-4.263-.581-.387,0-5.232-.387-7.364-.387a47.636,47.636,0,0,0-5.426.387s-1.357,5.811-1.163,7.748c3.1,0,12.6-.775,12.79-.775,3.876.387,4.844-.775,4.263-1.55-.194-.194,2.519-.775,2.131-1.743a1.072,1.072,0,0,0,.581-1.162A3.077,3.077,0,0,0,807.425,317.768Z" transform="translate(-649.103 -200.106)"/>
          <path id="Path_5643" data-name="Path 5643" class="cls-5" d="M767.4,311.307c-2.907-.194-6.976,1.55-6.589,7.361.388,6.392,39.919,7.942,55.616,11.429a31.1,31.1,0,0,1,2.325-7.361c-9.5-1.937-40.888-7.942-49.609-11.041A5.662,5.662,0,0,0,767.4,311.307Z" transform="translate(-675.741 -205.267)"/>
          <path id="Path_5644" data-name="Path 5644" class="cls-5" d="M763.875,287.562c-.969-1.356-15.7,8.523-17.634,11.041-4.263,5.811,19.96,35.835,30.424,45.133,3.876,3.487,16.859,2.712,8.333-11.622C778.215,320.685,768.72,294.535,763.875,287.562Z" transform="translate(-689.85 -227.623)"/>
          <path id="Path_5645" data-name="Path 5645" class="cls-3" d="M777,309.617c-3.876-8.91-6.782-16.465-9.883-24.6-.194-.581-19.185,6.2-22.673,15.3-3.488,9.3,23.836,39.516,32.362,47.07,7.945,7.361,41.082,8.136,54.647,9.3l1.357-11.235c-5.62-1.162-39.532-7.361-43.214-8.91C789.406,335.38,780.879,318.528,777,309.617Z" transform="translate(-691.351 -229.921)"/>
        </g>
        <g id="Group_3655" data-name="Group 3655" transform="translate(0 184.754)">
          <g id="Group_3543" data-name="Group 3543" transform="translate(102.899 68.765)">
            <g id="Group_3542" data-name="Group 3542">
              <g id="Group_3541" data-name="Group 3541">
                <g id="Group_3540" data-name="Group 3540">
                  <path id="Path_5650" data-name="Path 5650" class="cls-19" d="M674.5,412.489c0,12.2,10.271,22.082,23.06,22.082l211.031.194V390.794L696.2,390.6C684.189,391.181,674.5,400.673,674.5,412.489Z" transform="translate(-674.5 -390.6)"/>
                </g>
              </g>
            </g>
          </g>
          <g id="Group_3548" data-name="Group 3548" transform="translate(96.892 62.76)">
            <g id="Group_3547" data-name="Group 3547">
              <g id="Group_3546" data-name="Group 3546">
                <g id="Group_3545" data-name="Group 3545">
                  <g id="Group_3544" data-name="Group 3544">
                    <path id="Path_5651" data-name="Path 5651" class="cls-10" d="M671.4,415.393c0,15.5,12.984,27.893,28.874,28.087l220.332.194v-12.01l-220.332-.194c-9.3,0-17.053-7.167-17.053-16.077,0-12.591,10.852-15.884,16.084-15.884l221.3.194v-12.01L699.111,387.5C683.415,388.275,671.4,400.478,671.4,415.393Z" transform="translate(-671.4 -387.5)"/>
                  </g>
                </g>
              </g>
            </g>
          </g>
          <g id="Group_3552" data-name="Group 3552" transform="translate(10.464 6.005)">
            <g id="Group_3551" data-name="Group 3551">
              <g id="Group_3550" data-name="Group 3550">
                <g id="Group_3549" data-name="Group 3549">
                  <path id="Path_5652" data-name="Path 5652" class="cls-19" d="M839.187,358.2l-212.387.194v50.557l210.837-.194c14.534,0,26.355-11.429,26.355-25.375C864.185,370.016,853.14,358.975,839.187,358.2Z" transform="translate(-626.8 -358.2)"/>
                </g>
              </g>
            </g>
          </g>
          <g id="Group_3557" data-name="Group 3557" transform="translate(0 0)">
            <g id="Group_3556" data-name="Group 3556">
              <g id="Group_3555" data-name="Group 3555">
                <g id="Group_3554" data-name="Group 3554">
                  <g id="Group_3553" data-name="Group 3553">
                    <path id="Path_5653" data-name="Path 5653" class="cls-8" d="M844.251,355.1l-222.851.194V367.3l222.658-.194c10.852.581,19.378,8.91,19.378,19.177a19.249,19.249,0,0,1-5.813,13.559,21.2,21.2,0,0,1-14.534,5.811l-221.495.194v12.01l221.495-.194a33.434,33.434,0,0,0,22.866-9.1,30.463,30.463,0,0,0,9.5-22.276C875.257,369.628,861.886,356.069,844.251,355.1Z" transform="translate(-621.4 -355.1)"/>
                  </g>
                </g>
              </g>
            </g>
          </g>
          <g id="Group_3563" data-name="Group 3563" transform="translate(278.855 83.293)">
            <g id="Group_3562" data-name="Group 3562">
              <g id="Group_3561" data-name="Group 3561">
                <g id="Group_3560" data-name="Group 3560">
                  <g id="Group_3559" data-name="Group 3559">
                    <g id="Group_3558" data-name="Group 3558">
                      <path id="Path_5654" data-name="Path 5654" class="cls-20" d="M765.3,398.294l.194,51.332,9.5-8.136,9.689,8.136-.194-51.525Z" transform="translate(-765.3 -398.1)"/>
                    </g>
                  </g>
                </g>
              </g>
            </g>
          </g>
          <g id="Group_3569" data-name="Group 3569" transform="translate(139.912 22.857)">
            <g id="Group_3568" data-name="Group 3568">
              <g id="Group_3567" data-name="Group 3567">
                <g id="Group_3566" data-name="Group 3566">
                  <g id="Group_3565" data-name="Group 3565">
                    <g id="Group_3564" data-name="Group 3564">
                      <path id="Path_5655" data-name="Path 5655" class="cls-20" d="M693.6,426.174l11.046-9.491,11.046,9.491.194-59.08-22.091-.194Z" transform="translate(-693.6 -366.9)"/>
                    </g>
                  </g>
                </g>
              </g>
            </g>
          </g>
        </g>
      </g>
      <g id="Group_3656" data-name="Group 3656" transform="translate(637.837 1361.181)">
        <g id="Group_3637" data-name="Group 3637" transform="translate(0 0)">
          <path id="Path_5708" data-name="Path 5708" class="cls-5" d="M615.342,214.987c-1.938-.775-6.782-2.324-6.976-2.324-.969-.194-3.294-1.162-4.069-1.162a3.368,3.368,0,0,0-2.132,1.162,1.2,1.2,0,0,0,.194,1.356c-.775.775,1.55,2.324,1.163,2.324-.969.581-.387,1.937,3.294,3.1.194,0,8.72,4.261,11.627,5.424a35.159,35.159,0,0,0,1.744-7.554C618.636,216.536,617.086,215.761,615.342,214.987Z" transform="translate(-594.893 -62.941)"/>
          <path id="Path_5709" data-name="Path 5709" class="cls-5" d="M685.432,206.407c-8.139,2.712-31.2,18.015-43.6,23.245-15.309,6.392-5.232,14.722,0,14.334,13.759-1.162,51.159-11.041,51.159-18.208C693.183,222.485,686.982,205.826,685.432,206.407Z" transform="translate(-565.184 -67.727)"/>
          <path id="Path_5710" data-name="Path 5710" class="cls-5" d="M666.291,225.441a11.437,11.437,0,0,0-1.55-.775c-8.914-2.518-43.6-6.2-52.322-10.266a32.087,32.087,0,0,1-2.519,7.361c14.728,6.392,53.291,18.4,57.36,13.559C670.942,230.865,668.81,227.184,666.291,225.441Z" transform="translate(-587.513 -60.224)"/>
          <path id="Path_5711" data-name="Path 5711" class="cls-21" d="M709.542,204.723c-25.967,9.492-47.089,26.731-48.058,27.119-3.876-.581-9.108-1.356-14.534-2.131-12.015-1.743-26.742-3.68-31.974-6L611.1,234.359c12.79,5.424,43.8,14.722,54.259,13.559,10.852-1.162,49.8-11.041,49.8-20.533C715.356,224.287,712.449,203.561,709.542,204.723Z" transform="translate(-586.387 -69.336)"/>
          <g id="Group_3660" data-name="Group 3660">
            <g id="Group_3577" data-name="Group 3577" transform="translate(5.132)">
              <path id="Path_5666" data-name="Path 5666" class="cls-3" d="M593.992,297.015c-.962,3.847.321,8.657-.321,12.825-.962,5.13-4.17,6.412-6.415,9.618-2.566,3.847-3.849,10.9-2.887,16.993a78.4,78.4,0,0,0,2.887,10.26c.962,3.527,1.6,7.695.641,11.222-1.283,5.451-7.7,9.618-7.7,32.7,0,20.84,15.075,29.176,19.245,34.306V289l-1.924,1.924A10.947,10.947,0,0,0,593.992,297.015Z" transform="translate(-580.2 -289)"/>
              <path id="Path_5667" data-name="Path 5667" class="cls-3" d="M598.388,346.711c.962-3.527,2.245-6.733,2.887-10.26.962-6.092-.321-13.145-2.887-16.993-2.245-3.206-5.453-4.809-6.415-9.618-.641-4.168.641-8.657-.32-12.825-.642-2.885-2.245-4.489-3.528-6.092L586.2,289V424.941c4.17-5.13,19.245-13.145,19.245-34.306,0-23.084-6.736-27.252-7.7-32.7C596.785,354.405,597.426,350.237,598.388,346.711Z" transform="translate(-566.955 -289)"/>
              <line id="Line_599" data-name="Line 599" class="cls-22" y2="109.082" transform="translate(19.721 22.276)"/>
            </g>
            <g id="Group_3578" data-name="Group 3578" transform="translate(24.773 87.207)">
              <path id="Path_5668" data-name="Path 5668" class="cls-6" d="M605.172,318.124c-.962,1.282-.641,3.206-1.283,4.489-.962,1.6-3.528,1.6-5.453,2.244a5.608,5.608,0,0,0-3.528,5.771c0,1.6.642,2.886.962,4.489s.321,3.206-.642,4.168c-1.283,1.6-6.415,1.924-8.66,10.58-1.924,7.695,8.019,13.466,10.584,16.031l12.83-49.7-1.6.321C607.1,316.841,605.814,317.162,605.172,318.124Z" transform="translate(-586.323 -316.2)"/>
              <path id="Path_5669" data-name="Path 5669" class="cls-6" d="M604.675,324.857c0-1.6,1.283-3.206.962-4.809a6.52,6.52,0,0,0-1.924-2.886l-1.283-.962L589.6,365.9c3.528-.962,15.075-1.283,17-8.977,2.245-8.336-2.245-11.221-2.566-13.466a4.315,4.315,0,0,1,1.6-3.847,13.779,13.779,0,0,0,2.887-3.206,6.388,6.388,0,0,0-.321-6.733C606.92,328.063,604.675,326.78,604.675,324.857Z" transform="translate(-579.091 -316.2)"/>
              <line id="Line_600" data-name="Line 600" class="cls-23" x1="11.035" y2="35.544" transform="translate(11.116 7.382)"/>
            </g>
            <path id="Path_5670" data-name="Path 5670" class="cls-7" d="M578.6,330.3s9.3,9.939,9.3,16.672a29.827,29.827,0,0,1-1.6,7.695c-2.887,9.939,4.17,19.878,14.433,19.878h24.7c10.264,0,17.32-9.939,14.434-19.878a29.822,29.822,0,0,1-1.6-7.695c0-6.733,9.3-16.672,9.3-16.672Z" transform="translate(-578.6 -197.886)"/>
          </g>
        </g>
        <path id="Path_5712" data-name="Path 5712" class="cls-5" d="M674.664,288.7c-.775,5.23,2.131,120.872,2.131,120.872a9.413,9.413,0,0,0,7.364-1.162s13.371-112.348,13.759-114.673C695.98,295.673,677.377,291.218,674.664,288.7Z" transform="translate(-526.898 9.398)"/>
        <path id="Path_5713" data-name="Path 5713" class="cls-6" d="M684.729,352.093c-.969-1.356-2.132-3.293-2.132-3.293l-6.2,2.906s-.581.581-.388,2.518a5.2,5.2,0,0,0,0,4.068c.581,1.162,4.457,2.906,6.2,3.68a17.448,17.448,0,0,0,7.17,1.356c2.907,0,6.782-1.162,6.782-2.906C696.162,357.129,686.473,354.611,684.729,352.093Z" transform="translate(-525.918 65.715)"/>
        <g id="Group_3638" data-name="Group 3638" transform="translate(115.383 226.04)">
          <path id="Path_5714" data-name="Path 5714" class="cls-6" d="M698.174,347.043c-1.163-1.55-1.938-1.743-1.938-1.743l-6.589,1.937a20.385,20.385,0,0,1,.581,3.874c.388,3.1-5.232,11.429-2.713,13.753,1.163,1.162,4.844-.387,6.976-2.324,2.132-2.131,3.876-4.068,4.263-5.811.582-2.324,2.519-5.617,2.132-6.78A4.241,4.241,0,0,0,698.174,347.043Z" transform="translate(-630.716 -163.605)"/>
          <path id="Path_5715" data-name="Path 5715" class="cls-5" d="M688.1,347.612a11.911,11.911,0,0,1,.969,4.068,10,10,0,0,0,4.845-.194c1.357-.387,3.1-4.068,3.1-4.068-1.163-1.55-1.938-2.518-1.938-2.518Z" transform="translate(-629.556 -163.98)"/>
          <path id="Path_5716" data-name="Path 5716" class="cls-18" d="M696.279,252.662c-14.534,1.743-33.524.775-38.369-1.162-.388,4.068,4.651,56.368,10.658,106.925,2.907,24.213,48.252,78.257,48.252,78.257,0,.387,5.232.969,7.945-2.518,0,0-30.812-61.4-30.037-76.9C696.667,322.4,700.543,278.037,696.279,252.662Z" transform="translate(-657.889 -251.5)"/>
        </g>
        <path id="Path_5717" data-name="Path 5717" class="cls-5" d="M675.6,351.218s0,1.356.194,3.293c0,0,3.682,1.55,5.038.969a10.878,10.878,0,0,0,3.682-3.1,15.975,15.975,0,0,1-1.938-3.68Z" transform="translate(-525.897 65.621)"/>
        <path id="Path_5718" data-name="Path 5718" class="cls-24" d="M675.707,248.281s-4.651,74.189-1.744,110.218c3.294,41.84,3.488,86,3.488,86,2.713,3.487,8.72.581,8.914.387,0,0,30.424-189.443,29.843-197.191C711.557,249.443,690.24,250.218,675.707,248.281Z" transform="translate(-528.329 -29.02)"/>
        <path id="Path_5719" data-name="Path 5719" class="cls-7" d="M661.338,252.048,656.3,272.193c2.132,1.937,11.433,5.617,16.472,4.649,2.326-.387,8.527-13.559,8.527-13.559l4.457,13.366c18.991,4.455,49.221-3.68,49.221-3.68,0-13.366-1.357-28.668-1.357-28.668Z" transform="translate(-545.223 -32.206)"/>
        <path id="Path_5720" data-name="Path 5720" class="cls-5" d="M682.44,190.7c-.969.775-11.239,6.973-14.34,6.586,0,.775,2.325,9.491.581,14.334.969,4.455,13.177,3.874,16.278-3.68C683.6,206,682.052,194.768,682.44,190.7Z" transform="translate(-532.931 -82.432)"/>
        <path id="Path_5721" data-name="Path 5721" class="cls-10" d="M707.25,202.506c-3.1-.581-12.4-2.906-12.4-2.906s-6.395,6-10.658,6.392c-2.907.387-5.62-2.712-5.62-2.712s-10.658,3.68-12.4,4.843c-7.364,4.649-8.72,12.2-7.364,18.208,4.263,20.92-5.038,69.927,1.163,72.639,8.333,3.487,54.647,6,72.281-5.811a4.619,4.619,0,0,0,2.132-4.455c-.969-10.847-5.038-50.751-10.464-68.184C721.2,212.772,716.746,204.443,707.25,202.506Z" transform="translate(-542.626 -74.092)"/>
        <g id="Group_3639" data-name="Group 3639" transform="translate(57.523 104.225)">
          <path id="Path_5722" data-name="Path 5722" class="cls-5" d="M641.342,214.987c-1.938-.775-6.782-2.324-6.976-2.324-.969-.194-3.294-1.162-4.069-1.162a3.368,3.368,0,0,0-2.132,1.162,1.2,1.2,0,0,0,.194,1.356c-.775.775,1.55,2.324,1.162,2.324-.969.581-.388,1.937,3.294,3.1.194,0,8.72,4.261,11.627,5.424a35.159,35.159,0,0,0,1.744-7.554C644.636,216.536,643.086,215.761,641.342,214.987Z" transform="translate(-628.031 -167.167)"/>
          <path id="Path_5723" data-name="Path 5723" class="cls-5" d="M711.432,206.407c-8.139,2.712-31.2,18.015-43.6,23.245-15.309,6.392-5.232,14.722,0,14.334,13.759-1.162,51.159-11.041,51.159-18.208C719.183,222.485,712.982,205.826,711.432,206.407Z" transform="translate(-598.323 -171.953)"/>
          <path id="Path_6644" data-name="Path 6644" class="cls-7" d="M676.61,208.346c-.775-5.036-1.356-10.266,0-14.334,0-.194-7.364-8.329-10.077-4.261a31.069,31.069,0,0,0-1.163,17.046,27.6,27.6,0,0,1-2.132,18.6c-2.713,4.843-2.907,11.428-2.713,14.722,1.163,18.6,11.821,27.7,15.115,25.956,3.488-1.937-5.038-19.952-.388-36.61C678.548,218.031,677.386,213.382,676.61,208.346Z" transform="translate(-597.609 -188.613)"/>
          <path id="Path_5724" data-name="Path 5724" class="cls-5" d="M692.291,225.441a11.423,11.423,0,0,0-1.55-.775c-8.914-2.518-43.6-6.2-52.322-10.266a32.087,32.087,0,0,1-2.519,7.361c14.728,6.392,53.291,18.4,57.36,13.559C696.942,230.865,694.81,227.184,692.291,225.441Z" transform="translate(-620.652 -164.449)"/>
          <path id="Path_5725" data-name="Path 5725" class="cls-10" d="M735.542,204.723c-25.967,9.492-47.089,26.731-48.058,27.119-3.876-.581-9.108-1.356-14.534-2.131-12.015-1.743-26.742-3.68-31.974-6L637.1,234.359c12.79,5.424,43.8,14.722,54.26,13.559,10.852-1.162,49.8-11.041,49.8-20.533C741.356,224.287,738.449,203.561,735.542,204.723Z" transform="translate(-619.526 -173.561)"/>
        </g>
        <path id="Path_5727" data-name="Path 5727" class="cls-5" d="M674.38,182.905c-5.62-.194-9.883,2.131-10.852,7.554-.388,1.937.969,18.6,10.077,20.92,3.876.969,10.852-5.811,11.046-10.266,0,0,.194-6,.194-6.2C685.038,189.1,680.387,183.1,674.38,182.905Z" transform="translate(-537.273 -89.746)"/>
        <path id="Path_5728" data-name="Path 5728" class="cls-7" d="M701.7,210.644a27.16,27.16,0,0,0-5.814-26.344c-5.62-6.392-13.565-8.136-17.828-6.392-5.232,2.324-5.426,4.843-5.426,4.843a8.985,8.985,0,0,0-5.62.969c-6.395,3.487-6.007,18.014-.969,22.47-3.294-15.5,6.395-18.015,6.395-18.015s6.782.775,10.077,4.649c3.1,3.487,6.007,13.172,4.263,20.533-1.357,5.617-5.814,9.685-1.163,22.857,6.589,18.983-7.17,39.322-1.55,41.453,5.038,2.131,21.9-8.136,24.223-29.056.388-3.68.194-11.235-3.876-16.852A23.122,23.122,0,0,1,701.7,210.644Z" transform="translate(-538.43 -95.015)"/>
        <path id="Path_5729" data-name="Path 5729" class="cls-5" d="M675.519,187.906a5.165,5.165,0,0,0-2.519.969,51.759,51.759,0,0,0,2.907,6.586,5.986,5.986,0,0,0,2.907-4.261C678.62,189.65,677.069,187.713,675.519,187.906Z" transform="translate(-528.335 -85.062)"/>
      </g>
    </g>
  </g>
</svg>
