<svg xmlns="http://www.w3.org/2000/svg" xmlns:xlink="http://www.w3.org/1999/xlink" viewBox="0 0 1227 900">
  <defs>
    <style>
      .cls-1 {
        fill: #fcce54;
        opacity: 0.4;
      }

      .cls-2 {
        fill: #f8cc73;
      }

      .cls-3 {
        fill: #ffca1b;
      }

      .cls-4 {
        fill: #e0b603;
      }

      .cls-5 {
        fill: #4cbc1d;
      }

      .cls-6 {
        fill: #e6e6e6;
      }

      .cls-7 {
        fill: #fb836f;
      }

      .cls-8 {
        fill: #ffe7e6;
      }

      .cls-9 {
        fill: #f5b945;
        opacity: 0.6;
      }

      .cls-10 {
        fill: #282828;
      }

      .cls-11 {
        fill: url(#linear-gradient);
      }

      .cls-12 {
        fill: #ffbdaf;
      }

      .cls-13 {
        fill: #303030;
      }

      .cls-14 {
        fill: #fff;
      }

      .cls-15 {
        fill: #ef9f92;
      }

      .cls-16 {
        fill: #3387ff;
      }

      .cls-17 {
        fill: #f9afa2;
      }

      .cls-18 {
        fill: #ff8281;
      }

      .cls-19 {
        filter: url(#iconmonstr-favorite-3);
      }

      .cls-20 {
        filter: url(#Path_327);
      }
    </style>
    <linearGradient id="linear-gradient" x1="0.5" x2="1.258" y2="3.373" gradientUnits="objectBoundingBox">
      <stop offset="0" stop-color="#4cbc1d"/>
      <stop offset="1" stop-color="#fff"/>
    </linearGradient>
    <filter id="Path_327" x="286.348" y="206.406" width="150.131" height="82.183" filterUnits="userSpaceOnUse">
      <feOffset dy="10" input="SourceAlpha"/>
      <feGaussianBlur stdDeviation="5" result="blur"/>
      <feFlood flood-color="#e6d4a8" flood-opacity="0.502"/>
      <feComposite operator="in" in2="blur"/>
      <feComposite in="SourceGraphic"/>
    </filter>
    <filter id="iconmonstr-favorite-3" x="362.455" y="141.596" width="68.545" height="65.332" filterUnits="userSpaceOnUse">
      <feOffset dy="5" input="SourceAlpha"/>
      <feGaussianBlur stdDeviation="5" result="blur-2"/>
      <feFlood flood-color="#e6d4a8" flood-opacity="0.502"/>
      <feComposite operator="in" in2="blur-2"/>
      <feComposite in="SourceGraphic"/>
    </filter>
  </defs>
  <g id="ilu-hero" transform="translate(-693 -152)">
    <path id="Path_2747" data-name="Path 2747" class="cls-1" d="M1034.947,348.269C917.107,399.376,772.48,215.92,674.98,236.4S568.169,353.035,572.99,376.236c22,105.876,164.429,129.29-54,333.609C239.924,971.3,1026.4,1223.8,1271.124,1020.453c64.674-53.743,287.233,24.046,331.77,114.343V518.518s-52.786-191.177-223.979-240.168C1295.41,254.454,1155.72,295.863,1034.947,348.269Z" transform="translate(317.105 -82.797)"/>
    <g id="plant" transform="translate(1641.999 622)">
      <g id="Group_41" data-name="Group 41" transform="translate(0 0)">
        <g id="Group_23" data-name="Group 23">
          <path id="Path_170" data-name="Path 170" class="cls-2" d="M423.08,398.917c0,6.641-17.756,9.8-45.342,9.8s-54.538-3.162-54.538-9.8S345.554,386.9,373.14,386.9,423.08,392.276,423.08,398.917Z" transform="translate(-262.015 -127.72)"/>
          <g id="Group_20" data-name="Group 20">
            <path id="Path_171" data-name="Path 171" class="cls-3" d="M352.329,359.546a47.957,47.957,0,0,1-7.61-27.828,12.053,12.053,0,0,1,1.268-5.218c3.646-6.167,12.208-2.688,17.6-4.9,7.61-2.846,11.415-10.119,11.732-18.341.317-7.59-2.061-15.179-2.378-22.769-.159-2.214,0-4.743,1.268-6.641a12.3,12.3,0,0,1,5.39-3.953c12.208-4.9,26.793-1.107,38.684-6.8,11.415-5.376,20.293-18.974,32.659-16.918,8.244,1.423,13.951,9.961,14.427,18.341.634,8.38-2.7,16.444-6.342,24.192-3.646,7.59-7.61,15.337-8.4,23.559-.951,8.064,1.268,16.286,1.11,24.35,0,8.222-3.012,17.235-10.464,20.555-7.768,3.479-19.183.474-23.305,8.064-2.22,4.111-.634,9.329-2.854,13.44-9.671,16.918-42.489.949-52.635-7.59A50.619,50.619,0,0,1,352.329,359.546Z" transform="translate(-248.446 -209.624)"/>
            <path id="Path_172" data-name="Path 172" class="cls-3" d="M330.784,372.588c-5.232-11.542-.159-26.722-6.025-37.473-7.451-13.282-28.537-13.44-33.452-27.67-3.171-9.171,2.22-19.606,2.854-29.41.951-18.025-14.427-33.046-9.037-49.964a6.273,6.273,0,0,1,1.744-3.162,7.537,7.537,0,0,1,6.025-1.9c15.378.632,20.769,20.081,34.562,26.722,6.025,2.846,13.159,3,19.5,5.376,11.732,4.269,19.976,16.444,19.659,29.568-.317,10.91-5.707,23.4.159,32.572,2.537,3.953,6.817,6.483,10.464,9.487a47.215,47.215,0,0,1,16.488,30.833c.951,7.431,0,15.5-3.8,22.136C378.187,399.467,338.869,390.613,330.784,372.588Z" transform="translate(-283.975 -222.982)"/>
          </g>
          <g id="Group_21" data-name="Group 21" transform="translate(114.32 59.337)">
            <path id="Path_173" data-name="Path 173" class="cls-4" d="M361.342,417.5c-1.268-22.136,3.964-44.747,11.1-65.618,7.927-22.927,28.537-58.186,59.294-88.861,1.11-1.107-.476-3.32-1.744-2.214-26.793,23.717-54.538,65.144-62.306,86.805-7.927,21.978-13,46.328-11.256,69.887.317,3,5.073,3,4.915,0Z" transform="translate(-356.083 -260.509)"/>
          </g>
          <g id="Group_22" data-name="Group 22" transform="translate(28.794 43.001)">
            <path id="Path_174" data-name="Path 174" class="cls-4" d="M375.641,414.653c.793-12.491-1.9-25.3-5.073-37.315a356.9,356.9,0,0,0-16.647-49.016,315.96,315.96,0,0,0-23.464-46.17c-7.134-11.384-15.22-23.4-25.842-31.623a1.457,1.457,0,0,0-2.061,2.056c21.086,21.978,34.72,51.388,46.294,79.058a380.333,380.333,0,0,1,16.013,45.7c3.329,12.017,6.342,24.824,5.707,37.473.158,2.846,4.915,2.846,5.073-.158Z" transform="translate(-302.137 -250.178)"/>
          </g>
          <path id="Path_175" data-name="Path 175" class="cls-5" d="M349.935,419.112S332.02,390.177,329.8,342.9h75.941s3.646,44.589-15.7,76.212a67.148,67.148,0,0,1-22.2,4.111C356.91,423.381,349.935,419.112,349.935,419.112Z" transform="translate(-257.149 -153.291)"/>
        </g>
        <g id="Group_40" data-name="Group 40" transform="translate(23.03 37.305)">
          <g id="Group_24" data-name="Group 24" transform="translate(103.601 108.975)">
            <path id="Path_176" data-name="Path 176" class="cls-4" d="M365.357,318.664c12.842,1.107,26.635,2.53,39.318.474,1.268-.158.793-2.055-.317-2.055-12.842-1.265-26.159-.474-39.159-1.581-1.9-.158-1.744,3,.159,3.162Z" transform="translate(-363.848 -315.496)"/>
          </g>
          <g id="Group_25" data-name="Group 25" transform="translate(114.205 83.524)">
            <path id="Path_177" data-name="Path 177" class="cls-4" d="M371.905,302.246c16.647,1.265,33.928,3,50.733,1.9,1.11,0,1.585-2.055.317-2.214-16.647-2.53-34.086-2.214-51.05-2.53-1.9,0-1.744,2.688,0,2.846Z" transform="translate(-370.537 -299.4)"/>
          </g>
          <g id="Group_26" data-name="Group 26" transform="translate(133.131 54.672)">
            <path id="Path_178" data-name="Path 178" class="cls-4" d="M383.783,285.971c11.891,0,24.732.316,36.306-2.846a.971.971,0,0,0-.317-1.9c-11.891-.474-24.1,1.423-35.989,1.9-1.744.158-1.744,2.846,0,2.846Z" transform="translate(-382.475 -281.152)"/>
          </g>
          <g id="Group_27" data-name="Group 27" transform="translate(128.256 26.845)">
            <path id="Path_179" data-name="Path 179" class="cls-4" d="M388.6,291.456c-1.744-8.7-3.012-19.764-7.768-27.512a.762.762,0,0,0-1.427.316c.317,4.427,2.061,8.7,3.171,12.965,1.427,4.9,2.537,9.8,3.646,14.7a1.214,1.214,0,1,0,2.378-.474Z" transform="translate(-379.4 -263.553)"/>
          </g>
          <g id="Group_28" data-name="Group 28" transform="translate(113.021 60.357)">
            <path id="Path_180" data-name="Path 180" class="cls-4" d="M376.464,302.381c-.793-5.534-1.9-12.491-5.232-17.235a.786.786,0,0,0-1.427.632c.476,2.846,1.9,5.692,2.7,8.538a76.958,76.958,0,0,1,1.9,8.7c.158,1.265,2.219.633,2.061-.632Z" transform="translate(-369.79 -284.748)"/>
          </g>
          <g id="Group_29" data-name="Group 29" transform="translate(94.749 78.681)">
            <path id="Path_181" data-name="Path 181" class="cls-4" d="M372.272,319.522c-2.061-4.111-4.122-8.222-6.342-12.333-1.9-3.637-3.488-7.59-6.183-10.594-.634-.632-1.744,0-1.427.791,1.11,3.953,3.488,7.431,5.39,11.068,2.22,4.111,4.439,8.064,6.659,12.017a1.066,1.066,0,1,0,1.9-.949Z" transform="translate(-358.265 -296.337)"/>
          </g>
          <g id="Group_30" data-name="Group 30" transform="translate(27.913 102.34)">
            <path id="Path_182" data-name="Path 182" class="cls-4" d="M316.73,313.2c12.208,2.53,24.415,5.218,36.623,7.431,1.427.316,2.061-1.9.634-2.214-12.208-2.688-24.415-4.743-36.623-7.115-1.268,0-1.744,1.739-.634,1.9Z" transform="translate(-316.108 -311.3)"/>
          </g>
          <g id="Group_31" data-name="Group 31" transform="translate(27.165 73.846)">
            <path id="Path_183" data-name="Path 183" class="cls-4" d="M316.372,295.368c3.646.791,7.134,1.581,10.781,2.372,3.171.632,6.342,1.739,9.671,1.581.793,0,1.268-1.265.476-1.581-2.854-1.423-6.342-1.739-9.354-2.372-3.646-.632-7.293-1.423-10.939-2.055-1.427-.316-1.9,1.739-.634,2.055Z" transform="translate(-315.636 -293.279)"/>
          </g>
          <g id="Group_32" data-name="Group 32" transform="translate(0.823 42.227)">
            <path id="Path_184" data-name="Path 184" class="cls-4" d="M299.939,275.524c11.415,2.055,22.988,3.953,34.4,5.534,1.9.316,1.9-2.688,0-3-11.256-1.423-22.671-2.846-33.769-4.743-1.585-.316-2.22,2.055-.634,2.214Z" transform="translate(-299.021 -273.282)"/>
          </g>
          <g id="Group_33" data-name="Group 33" transform="translate(0 18.855)">
            <path id="Path_185" data-name="Path 185" class="cls-4" d="M299.133,260.239c5.866,1.107,12.525,2.846,18.549,2.372,1.744-.158,1.585-2.372,0-2.688-6.024-.79-12.049-.474-18.074-1.423-1.11,0-1.585,1.581-.476,1.739Z" transform="translate(-298.502 -258.5)"/>
          </g>
          <g id="Group_34" data-name="Group 34" transform="translate(18.825)">
            <path id="Path_186" data-name="Path 186" class="cls-4" d="M312.317,267.96a51.7,51.7,0,0,0,4.439-10.594c.951-3.162,2.378-6.8,1.744-10.119-.159-.949-1.268-.791-1.744-.158-1.744,2.688-2.061,6.325-3.012,9.487-1.11,3.637-2.22,7.115-3.329,10.594a1.055,1.055,0,0,0,1.9.791Z" transform="translate(-310.376 -246.575)"/>
          </g>
          <g id="Group_35" data-name="Group 35" transform="translate(36.125 14.426)">
            <path id="Path_187" data-name="Path 187" class="cls-4" d="M323.527,289.854c5.232-9.8,11.256-21.978,11.1-33.2,0-.791-1.268-1.423-1.744-.474-2.061,4.585-3.012,9.645-4.439,14.547a143.845,143.845,0,0,1-6.976,17.867c-.793,1.423,1.268,2.688,2.061,1.265Z" transform="translate(-321.288 -255.699)"/>
          </g>
          <g id="Group_36" data-name="Group 36" transform="translate(49.747 63.975)">
            <path id="Path_188" data-name="Path 188" class="cls-4" d="M331.814,302.316c1.268-2.53,2.7-5.218,3.964-7.748,1.11-2.055,2.7-4.269,2.537-6.641,0-.949-.951-1.107-1.585-.632-1.9,1.423-2.537,4.269-3.488,6.483-1.11,2.53-2.22,5.06-3.171,7.59-.793,1.107,1.11,2.372,1.744.949Z" transform="translate(-329.88 -287.036)"/>
          </g>
          <g id="Group_37" data-name="Group 37" transform="translate(64.186 86.691)">
            <path id="Path_189" data-name="Path 189" class="cls-4" d="M341.227,325.748c4.6-6.483,11.256-15.337,11.891-23.559,0-.949-1.11-.949-1.585-.474-2.537,3.32-3.8,7.906-5.707,11.7a116.048,116.048,0,0,1-6.659,11.226c-.793,1.265,1.268,2.372,2.061,1.107Z" transform="translate(-338.988 -301.403)"/>
          </g>
          <g id="Group_38" data-name="Group 38" transform="translate(154.166 31.441)">
            <path id="Path_190" data-name="Path 190" class="cls-4" d="M397.1,271.741c5.866-.158,14.269-.316,19.659-3.162a1.1,1.1,0,0,0-.634-2.055c-3.012-.316-6.183.632-9.2.949-3.329.474-6.817.949-10.147,1.581-1.585.158-1.268,2.688.317,2.688Z" transform="translate(-395.743 -266.46)"/>
          </g>
          <g id="Group_39" data-name="Group 39" transform="translate(152.432 19.101)">
            <path id="Path_191" data-name="Path 191" class="cls-4" d="M398.376,274.379c.476-4.585,1.11-11.7-1.9-15.5a1.009,1.009,0,0,0-1.585.474c-.634,2.214.159,4.743.476,7.115.317,2.688.634,5.376.793,8.064.159,1.107,2.061,1.107,2.22-.158Z" transform="translate(-394.649 -258.656)"/>
          </g>
        </g>
      </g>
    </g>
    <g id="plant-2" data-name="plant" transform="translate(692.999 794)">
      <g id="Group_41-2" data-name="Group 41">
        <g id="Group_23-2" data-name="Group 23">
          <path id="Path_170-2" data-name="Path 170" class="cls-6" d="M394.543,395.5c0,4.75-12.683,7.012-32.387,7.012S323.2,400.246,323.2,395.5s15.967-8.6,35.672-8.6S394.543,390.745,394.543,395.5Z" transform="translate(-278.781 -201.508)"/>
          <g id="Group_20-2" data-name="Group 20">
            <path id="Path_171-2" data-name="Path 171" class="cls-7" d="M350.14,327.21A34.34,34.34,0,0,1,344.7,307.3a8.631,8.631,0,0,1,.906-3.732c2.6-4.411,8.72-1.923,12.57-3.506,5.436-2.036,8.153-7.238,8.38-13.12.227-5.429-1.472-10.858-1.7-16.286a7.665,7.665,0,0,1,.906-4.75,8.787,8.787,0,0,1,3.85-2.828c8.72-3.506,19.138-.792,27.631-4.863,8.153-3.845,14.5-13.572,23.328-12.1,5.889,1.018,9.965,7.125,10.305,13.12.453,5.994-1.925,11.762-4.53,17.3-2.6,5.429-5.436,10.971-6,16.852-.679,5.768.906,11.649.793,17.418,0,5.881-2.152,12.328-7.474,14.7-5.549,2.488-13.7.339-16.647,5.768-1.585,2.941-.453,6.673-2.038,9.613-6.908,12.1-30.349.679-37.6-5.429A36.192,36.192,0,0,1,350.14,327.21Z" transform="translate(-275.938 -219.971)"/>
            <path id="Path_172-2" data-name="Path 172" class="cls-7" d="M317.41,330c-3.737-8.256-.113-19.114-4.3-26.8-5.322-9.5-20.384-9.614-23.894-19.793-2.265-6.56,1.585-14.024,2.038-21.037.679-12.893-10.305-23.638-6.455-35.74a4.489,4.489,0,0,1,1.246-2.262,5.378,5.378,0,0,1,4.3-1.357c10.985.452,14.835,14.364,24.687,19.114,4.3,2.036,9.4,2.149,13.929,3.845,8.38,3.054,14.269,11.762,14.042,21.15-.227,7.8-4.077,16.739.113,23.3,1.812,2.827,4.869,4.637,7.474,6.786a33.787,33.787,0,0,1,11.777,22.055,25.627,25.627,0,0,1-2.718,15.834C351.27,349.222,323.185,342.889,317.41,330Z" transform="translate(-283.975 -222.982)"/>
          </g>
          <g id="Group_21-2" data-name="Group 21" transform="translate(81.657 42.444)">
            <path id="Path_173-2" data-name="Path 173" class="cls-8" d="M359.839,372.807c-.906-15.834,2.831-32.007,7.927-46.937,5.662-16.4,20.384-41.621,42.353-63.562.793-.792-.34-2.375-1.246-1.583-19.138,16.965-38.956,46.6-44.5,62.092-5.662,15.721-9.286,33.138-8.04,49.99.226,2.149,3.624,2.149,3.511,0Z" transform="translate(-356.083 -260.509)"/>
          </g>
          <g id="Group_22-2" data-name="Group 22" transform="translate(20.567 30.759)">
            <path id="Path_174-2" data-name="Path 174" class="cls-8" d="M354.64,367.827c.566-8.935-1.359-18.1-3.624-26.692a255.537,255.537,0,0,0-11.891-35.061,226.126,226.126,0,0,0-16.76-33.025c-5.1-8.143-10.871-16.739-18.459-22.62a1.042,1.042,0,0,0-1.472,1.47c15.061,15.721,24.8,36.758,33.067,56.55a272.307,272.307,0,0,1,11.438,32.686c2.378,8.6,4.53,17.757,4.077,26.8.113,2.036,3.51,2.036,3.624-.113Z" transform="translate(-302.137 -250.178)"/>
          </g>
          <path id="Path_175-2" data-name="Path 175" class="cls-5" d="M344.182,397.414s-12.8-20.7-14.382-54.514h54.243s2.6,31.894-11.211,54.514a47.9,47.9,0,0,1-15.854,2.941A25.593,25.593,0,0,1,344.182,397.414Z" transform="translate(-277.907 -207.272)"/>
        </g>
        <g id="Group_40-2" data-name="Group 40" transform="translate(16.45 26.684)">
          <g id="Group_24-2" data-name="Group 24" transform="translate(74.001 77.95)">
            <path id="Path_176-2" data-name="Path 176" class="cls-8" d="M364.926,317.763c9.173.792,19.025,1.81,28.084.339.906-.113.566-1.47-.227-1.47-9.173-.9-18.685-.339-27.971-1.131-1.359-.113-1.246,2.149.113,2.262Z" transform="translate(-363.848 -315.496)"/>
          </g>
          <g id="Group_25-2" data-name="Group 25" transform="translate(81.575 59.745)">
            <path id="Path_177-2" data-name="Path 177" class="cls-8" d="M371.514,301.436c11.891.9,24.234,2.149,36.238,1.357.793,0,1.132-1.47.227-1.583-11.891-1.81-24.347-1.583-36.464-1.81-1.359,0-1.246,1.923,0,2.036Z" transform="translate(-370.537 -299.4)"/>
          </g>
          <g id="Group_26-2" data-name="Group 26" transform="translate(95.094 39.107)">
            <path id="Path_178-2" data-name="Path 178" class="cls-8" d="M383.409,284.6c8.493,0,17.666.226,25.933-2.036a.694.694,0,0,0-.226-1.357c-8.493-.339-17.213,1.018-25.706,1.357-1.246.113-1.246,2.036,0,2.036Z" transform="translate(-382.475 -281.152)"/>
          </g>
          <g id="Group_27-2" data-name="Group 27" transform="translate(91.612 19.202)">
            <path id="Path_179-2" data-name="Path 179" class="cls-8" d="M385.968,283.512c-1.246-6.221-2.152-14.138-5.549-19.679a.544.544,0,0,0-1.019.226c.227,3.167,1.472,6.221,2.265,9.274,1.019,3.506,1.812,7.012,2.6,10.518a.867.867,0,1,0,1.7-.339Z" transform="translate(-379.4 -263.553)"/>
          </g>
          <g id="Group_28-2" data-name="Group 28" transform="translate(80.729 43.173)">
            <path id="Path_180-2" data-name="Path 180" class="cls-8" d="M374.557,297.361c-.566-3.959-1.359-8.935-3.737-12.328a.561.561,0,0,0-1.019.452c.34,2.036,1.359,4.072,1.925,6.107a55.115,55.115,0,0,1,1.359,6.22c.113.9,1.585.452,1.472-.452Z" transform="translate(-369.79 -284.748)"/>
          </g>
          <g id="Group_29-2" data-name="Group 29" transform="translate(67.678 56.281)">
            <path id="Path_181-2" data-name="Path 181" class="cls-8" d="M368.27,312.921c-1.472-2.941-2.944-5.881-4.53-8.822-1.359-2.6-2.491-5.429-4.416-7.578-.453-.452-1.246,0-1.019.566.793,2.828,2.491,5.316,3.85,7.917,1.585,2.941,3.171,5.768,4.756,8.6a.761.761,0,1,0,1.359-.679Z" transform="translate(-358.265 -296.337)"/>
          </g>
          <g id="Group_30-2" data-name="Group 30" transform="translate(19.938 73.204)">
            <path id="Path_182-2" data-name="Path 182" class="cls-8" d="M316.552,312.657c8.72,1.81,17.439,3.732,26.159,5.316,1.019.226,1.472-1.357.453-1.583C334.444,314.467,325.725,313,317,311.3c-.906,0-1.246,1.244-.453,1.357Z" transform="translate(-316.108 -311.3)"/>
          </g>
          <g id="Group_31-2" data-name="Group 31" transform="translate(19.403 52.823)">
            <path id="Path_183-2" data-name="Path 183" class="cls-8" d="M316.161,294.773c2.6.565,5.1,1.131,7.7,1.7,2.265.452,4.53,1.244,6.908,1.131.566,0,.906-.9.34-1.131-2.038-1.018-4.53-1.244-6.681-1.7-2.6-.452-5.209-1.018-7.814-1.47-1.019-.226-1.359,1.244-.453,1.47Z" transform="translate(-315.636 -293.279)"/>
          </g>
          <g id="Group_32-2" data-name="Group 32" transform="translate(0.588 30.205)">
            <path id="Path_184-2" data-name="Path 184" class="cls-8" d="M299.677,274.886c8.154,1.47,16.42,2.827,24.574,3.958,1.359.226,1.359-1.923,0-2.149-8.04-1.018-16.194-2.036-24.121-3.393-1.132-.226-1.585,1.47-.453,1.583Z" transform="translate(-299.021 -273.282)"/>
          </g>
          <g id="Group_33-2" data-name="Group 33" transform="translate(0 13.487)">
            <path id="Path_185-2" data-name="Path 185" class="cls-8" d="M298.953,259.744c4.19.792,8.946,2.036,13.249,1.7a.964.964,0,0,0,0-1.923c-4.3-.565-8.607-.339-12.91-1.018-.793,0-1.132,1.131-.34,1.244Z" transform="translate(-298.502 -258.5)"/>
          </g>
          <g id="Group_34-2" data-name="Group 34" transform="translate(13.447)">
            <path id="Path_186-2" data-name="Path 186" class="cls-8" d="M311.762,261.872a37,37,0,0,0,3.171-7.578c.68-2.262,1.7-4.863,1.246-7.238-.113-.679-.906-.566-1.246-.113-1.246,1.923-1.472,4.524-2.152,6.786-.793,2.6-1.585,5.089-2.378,7.578-.226.792,1.019,1.244,1.359.565Z" transform="translate(-310.376 -246.575)"/>
          </g>
          <g id="Group_35-2" data-name="Group 35" transform="translate(25.803 10.319)">
            <path id="Path_187-2" data-name="Path 187" class="cls-8" d="M322.887,280.13c3.737-7.012,8.04-15.721,7.927-23.751,0-.566-.906-1.018-1.246-.339-1.472,3.28-2.152,6.9-3.171,10.405a102.98,102.98,0,0,1-4.983,12.78c-.566,1.018.906,1.923,1.472.9Z" transform="translate(-321.288 -255.699)"/>
          </g>
          <g id="Group_36-2" data-name="Group 36" transform="translate(35.534 45.762)">
            <path id="Path_188-2" data-name="Path 188" class="cls-8" d="M331.262,297.966c.906-1.81,1.925-3.732,2.831-5.542.793-1.47,1.925-3.054,1.812-4.75,0-.679-.68-.792-1.132-.452-1.359,1.018-1.812,3.054-2.491,4.637-.793,1.81-1.585,3.619-2.265,5.429-.566.792.793,1.7,1.246.679Z" transform="translate(-329.88 -287.036)"/>
          </g>
          <g id="Group_37-2" data-name="Group 37" transform="translate(45.847 62.011)">
            <path id="Path_189-2" data-name="Path 189" class="cls-8" d="M340.587,318.817c3.284-4.637,8.04-10.971,8.493-16.852,0-.679-.793-.679-1.132-.339-1.812,2.375-2.718,5.655-4.077,8.369a83.032,83.032,0,0,1-4.756,8.03c-.566.9.906,1.7,1.472.792Z" transform="translate(-338.988 -301.403)"/>
          </g>
          <g id="Group_38-2" data-name="Group 38" transform="translate(110.118 22.49)">
            <path id="Path_190-2" data-name="Path 190" class="cls-8" d="M396.714,270.238c4.19-.113,10.192-.226,14.042-2.262a.788.788,0,0,0-.453-1.47c-2.152-.226-4.416.452-6.568.679-2.378.339-4.869.679-7.248,1.131-1.132.113-.906,1.923.227,1.923Z" transform="translate(-395.743 -266.46)"/>
          </g>
          <g id="Group_39-2" data-name="Group 39" transform="translate(108.88 13.663)">
            <path id="Path_191-2" data-name="Path 191" class="cls-8" d="M397.311,269.9c.34-3.28.793-8.369-1.359-11.084a.72.72,0,0,0-1.132.339c-.453,1.583.113,3.393.34,5.09.227,1.923.453,3.845.566,5.768.113.792,1.472.792,1.585-.113Z" transform="translate(-394.649 -258.656)"/>
          </g>
        </g>
      </g>
    </g>
    <g id="Pani" transform="translate(991.869 358.543)">
      <path id="Path_270" data-name="Path 270" class="cls-9" d="M28.6,306.78c0,17.205,84.366,25.345,215.171,25.345s258.279-8.14,258.279-25.345S396.036,275.7,265.417,275.7,28.6,289.575,28.6,306.78Z" transform="translate(24.314 234.202)"/>
      <g id="Group_113" data-name="Group 113" transform="translate(449.583 441.266)">
        <ellipse id="Ellipse_24" data-name="Ellipse 24" class="cls-10" cx="17.946" cy="13.135" rx="17.946" ry="13.135"/>
        <path id="Path_271" data-name="Path 271" class="cls-10" d="M268.637,248.6s4.255,34.04-2.96,38.851c0,0,5.92,34.04,12.026,41.255l-5.921,2.4S244.215,293.926,244.4,272.1c0,0,10.546-6.66,8.326-23.31h15.911Z" transform="translate(-241.81 -230.1)"/>
      </g>
      <g id="Group_114" data-name="Group 114" transform="translate(200 442.376)">
        <ellipse id="Ellipse_25" data-name="Ellipse 25" class="cls-10" cx="18.686" cy="13.69" rx="18.686" ry="13.69" transform="translate(0.185)"/>
        <path id="Path_272" data-name="Path 272" class="cls-10" d="M117.536,249.7s-4.44,35.705,3.145,40.7c0,0-6.29,35.705-12.581,43.106l6.29,2.59s28.862-38.85,28.862-61.976c0,0-11.1-7.03-8.7-24.42Z" transform="translate(-108.1 -230.275)"/>
      </g>
      <g id="Group_115" data-name="Group 115" transform="translate(250.138 423.321)">
        <ellipse id="Ellipse_26" data-name="Ellipse 26" class="cls-10" cx="16.466" cy="12.21" rx="16.466" ry="12.21"/>
        <path id="Path_273" data-name="Path 273" class="cls-10" d="M144.026,240.6s-3.885,31.45,2.775,35.89c0,0-5.55,31.45-11.1,38.11l5.55,2.22S166.782,282.6,166.6,262.245c0,0-9.806-6.29-7.771-21.46h-14.8Z" transform="translate(-134.775 -218.955)"/>
      </g>
      <g id="Group_116" data-name="Group 116" transform="translate(387.233 422.766)">
        <ellipse id="Ellipse_27" data-name="Ellipse 27" class="cls-10" cx="16.466" cy="12.21" rx="16.466" ry="12.21"/>
        <path id="Path_274" data-name="Path 274" class="cls-10" d="M233.072,242s3.885,31.45-2.775,35.89c0,0,5.55,31.45,11.1,38.11l-5.55,2.22S210.315,284,210.5,263.645c0,0,9.806-6.29,7.771-21.46h14.8Z" transform="translate(-208.28 -217.21)"/>
      </g>
      <path id="Path_275" data-name="Path 275" class="cls-5" d="M125.769,249.182s-6.475-9.065,10.546-44.771c17.021-35.89-6.105-93.8-11.656-113.221-5.365-19.24,4.625-57.166,42.553-48.656,37.373,8.325,44.033-32.93,109.713-31.82,65.68-1.3,72.34,40.145,109.713,31.82,37.928-8.51,47.918,29.415,42.553,48.656s-28.677,77.331-11.656,113.221-24.792,60.681-24.792,60.681c41.813-8.51,116.558,19.425,89.731,115.256-11.1,39.775-36.263,65.491-36.263,65.491H113.188a331.37,331.37,0,0,1-41.813-65.491C30.672,294.692,84.141,240.671,125.769,249.182Z" transform="translate(48.329 8.932)"/>
      <path id="Path_276" data-name="Path 276" class="cls-11" d="M333.511,216.974A311.043,311.043,0,0,0,125,225.3c-2.405,18.5-5,37-7.4,55.5H325.74Q329.625,249.165,333.511,216.974Z" transform="translate(99.976 172.307)"/>
      <g id="Group_122" data-name="Group 122" transform="translate(0 0)">
        <g id="Group_117" data-name="Group 117" transform="translate(148.196 75.332)">
          <path id="Path_277" data-name="Path 277" class="cls-12" d="M108.45,71.587s6.105-13.135,3.7-15.91-9.251,10.36-9.251,10.36Z" transform="translate(-60.717 -28.482)"/>
          <path id="Path_278" data-name="Path 278" class="cls-13" d="M99.9,96.856,80.1,47.83l3.515-6.845s24.237-.185,28.677-.185c2.22,0,18.131,49.951,18.131,49.951l-17.576,10.36L99.9,96.856" transform="translate(-80.1 -40.8)"/>
          <path id="Path_279" data-name="Path 279" class="cls-14" d="M125.813,91.471l-19.981,3.7L84,43.185,108.977,43Z" transform="translate(-76.784 -38.93)"/>
          <path id="Path_280" data-name="Path 280" class="cls-12" d="M89.367,79.187s-3.885-4.44-2.775-7.215S97.507,56.8,99.728,59.022c2.22,2.035-8.881,14.985-8.881,14.985l2.405,5.18H89.367" transform="translate(-74.751 -25.536)"/>
          <path id="Path_281" data-name="Path 281" class="cls-12" d="M91.045,76.757s-6.845-1.85-6.845-4.44,8.511-17.945,10.731-17.205c2.405.74-6.105,14.06-6.105,14.06l2.22,3.515Z" transform="translate(-76.614 -28.657)"/>
          <path id="Path_282" data-name="Path 282" class="cls-12" d="M89.345,72.724s-6.845-1.85-6.845-4.44,5.365-15.91,7.771-15.17-3.145,12.21-3.145,12.21l2.22,3.515Z" transform="translate(-78.06 -30.358)"/>
          <path id="Path_283" data-name="Path 283" class="cls-12" d="M104.747,108.09s-.185-9.25-5.92-15.17C93.277,87,86.616,77.379,88.1,74.234s11.656-10.175,13.876-9.62c2.405.37-8.881,12.025-8.881,12.025l9.436,12.58,15.541-7.03s-.185,18.5.185,26.085Z" transform="translate(-73.48 -20.584)"/>
          <path id="Path_284" data-name="Path 284" class="cls-13" d="M124.657,79.365,96.72,89.54,90.8,74.925,120.587,66.6Z" transform="translate(-71.004 -18.869)"/>
        </g>
        <g id="Group_120" data-name="Group 120" transform="translate(392.435 274.024)">
          <g id="Group_119" data-name="Group 119" transform="translate(0 0)">
            <path id="Path_285" data-name="Path 285" class="cls-12" d="M238.917,155.97S234.107,168,229.112,171.7l.37,9.065s5.365,2.22,5.18,4.255-8.511-3.515-8.511-3.515l-.925-11.47s-2.59,10.36-3.33,12.025c0,0,4.255,5.55,3.33,6.845s-4.07-1.48-5.55-2.035c-1.3-.555-4.07-4.255-4.255-6.105-.555-4.07,4.07-16.1,4.07-16.1s-3.7,4.255-4.255,5c-.555.555,1.11,7.4-2.035,8.51-1.665.555-.925-10.545-.925-10.545s9.251-14.8,11.471-16.465,16.466-2.96,16.466-2.96Z" transform="translate(-212.111 -148.2)"/>
            <g id="Group_118" data-name="Group 118" transform="translate(6.269 19.409)">
              <path id="Path_286" data-name="Path 286" class="cls-15" d="M219.2,158.893c.185-.37.74-.185.555.185-2.22,6.66-5.365,13.69-.74,19.98-.74-.555-1.48-.925-2.035-1.3C213.835,172.028,216.24,164.443,219.2,158.893Z" transform="translate(-215.5 -158.691)"/>
            </g>
          </g>
        </g>
        <path id="Path_287" data-name="Path 287" class="cls-7" d="M285.242,132.926c6.661,8.88,12.211,18.87,14.431,29.785s.74,22.94-5.55,32.005c-5.365,7.585-13.691,12.58-22.387,15.54s-17.391,5.92-26.457,6.845c-1.48-3.145-5-11.1-7.216-14.985,5.92-.925,13.876-4.255,19.056-7.585,6.105-4.07,12.581-8.51,14.8-15.54,2.22-6.66-.185-14.43-4.625-19.8s-10.546-9.065-16.836-12.21a150.613,150.613,0,0,0-48.843-14.615c-.74,0,10.731-32.56,12.026-35.335,4.625-10.36,8.326-14.985,18.871-8.88C252.309,99.626,271.366,114.8,285.242,132.926Z" transform="translate(171.371 72.462)"/>
        <path id="Path_290" data-name="Path 290" class="cls-7" d="M304.125,90.913c2.22,8.88,8.511,79.736,8.7,88.986.555,76.961-22.942,131.167-27.382,131.352-18.871.74,5.92.555,4.07.925a7.758,7.758,0,0,1-4.07-.925c-10.546-4.81-22.2-6.475-33.672-8.51-34.6-6.105-68.64-15.725-102.682-25.345-15.356-4.255,19.981-25.345,4.625-29.6,11.471-13.505,39.593-64.381,42.183-102.306-5.735,4.255-16.836,19.425-50.324,12.95C114.116,152.334,92.1,121.254,93.95,88.323l22.2.555c.74,13.135,10.361,24.605,21.832,30.525s41.258-7.4,53.654-11.285c19.981-6.29,32.007-25.715,43.663-28.49,31.637-7.4,13.136,13.875,44.958,7.4,9.066-1.85,17.021-3.515,23.867,3.885C312.821,100.349,301.165,78.7,304.125,90.913Z" transform="translate(79.778 66.189)"/>
        <path id="Exclusion_1" data-name="Exclusion 1" class="cls-16" d="M91.8,106.812h0a95.852,95.852,0,0,1-13.17-.806,16.681,16.681,0,0,1-6.707-2.243c-1.468-.954-1.989-1.879-1.989-2.382,0-2.717,1.331-4.495,4.07-5.435a25.692,25.692,0,0,1,7.956-.856l.336,0a35.905,35.905,0,0,0,11.869-2.2,44.763,44.763,0,0,0,11.329-6.029,36.964,36.964,0,0,0,8.8-8.99,24.917,24.917,0,0,0,4.294-11.086c.129.03,13.425,3.15,24.422,3.7,0,2.412-.138,4.865-.272,7.237a83.175,83.175,0,0,0-.1,11.819c.03.482.065.962.1,1.494a27.181,27.181,0,0,1-.1,7.2c-.641,3.2-2.326,5.7-4.625,6.845a3.832,3.832,0,0,1-1.178.262,1.519,1.519,0,0,1-.487-.076,2.668,2.668,0,0,1-1.48-2.036,76.488,76.488,0,0,1-2.59-11.285c-2.577,5.453-8.274,9.49-16.933,12C107.164,106.314,98.026,106.812,91.8,106.812ZM14.292,44.374h0A42.65,42.65,0,0,1,3.146,42.92C1.625,42.54,0,41.612,0,40.146a2.96,2.96,0,0,1,1.48-2.22c3.546-2.621,7.8-3.98,11.923-5.293l.006,0c.822-.262,1.671-.533,2.5-.81,5.808-2.055,13.076-6.523,20.467-12.58A102.3,102.3,0,0,0,54.764,0c.1.093,10.306,9.7,19.612,15.54-1.185,2.22-2.508,4.415-3.787,6.538a96.439,96.439,0,0,0-5.464,9.928l-.164.383-.082.193a27.589,27.589,0,0,1-3.824,7.009,9.893,9.893,0,0,1-3,2.647,7.746,7.746,0,0,1-3.79,1.067c-.142,0-.284,0-.425-.014a2.09,2.09,0,0,1-1.48-.554c-.74-.555-.552-1.495-.37-2.4a77.066,77.066,0,0,1,2.961-11.286A92.491,92.491,0,0,1,35.466,39.954,57.222,57.222,0,0,1,14.292,44.374Z" transform="translate(0 433.311)"/>
        <g id="Group_151" data-name="Group 151" transform="translate(185.8 166.908)">
          <g id="Group_123" data-name="Group 123" transform="translate(236.808 109.874)">
            <path id="Path_298" data-name="Path 298" class="cls-14" d="M235.413,152.113c0,.185,0,.185.185.37a3.363,3.363,0,0,1-1.665,3.885h-.185a3.539,3.539,0,0,1-3.33,0h-.185c-1.11-.74-2.22-2.405-1.665-3.885,0-.185,0-.185.185-.37.555-1.3,1.665-2.59,3.33-2.405a3.388,3.388,0,0,1,3.33,2.405Z" transform="translate(-228.42 -149.69)"/>
          </g>
          <g id="Group_124" data-name="Group 124" transform="translate(264.708 98.302)">
            <path id="Path_299" data-name="Path 299" class="cls-14" d="M245.165,143.555h.37a2.658,2.658,0,0,1,3.33,2.59,2.75,2.75,0,0,1-3.33,2.59h-.37c-2.22-1.11-2.22-4.44,0-5.18Z" transform="translate(-243.5 -143.436)"/>
          </g>
          <g id="Group_125" data-name="Group 125" transform="translate(270.582 69.491)">
            <path id="Path_300" data-name="Path 300" class="cls-14" d="M247.646,129.042h0a3.868,3.868,0,0,1,4.07-.925,3.6,3.6,0,1,1-3.885,5.92l-.185-.185a3.463,3.463,0,0,1,0-4.81Z" transform="translate(-246.675 -127.862)"/>
          </g>
          <g id="Group_126" data-name="Group 126" transform="translate(252.682 39.405)">
            <path id="Path_301" data-name="Path 301" class="cls-14" d="M240.885,119.74c-5.18,0-5.18-8.14,0-8.14,5.365,0,5.365,8.14,0,8.14Z" transform="translate(-237 -111.6)"/>
          </g>
          <g id="Group_127" data-name="Group 127" transform="translate(223.542 31.265)">
            <path id="Path_302" data-name="Path 302" class="cls-14" d="M224.858,114.6c-4.81,0-4.81-7.4,0-7.4,4.625,0,4.625,7.4,0,7.4Z" transform="translate(-221.25 -107.2)"/>
          </g>
          <g id="Group_128" data-name="Group 128" transform="translate(213.552 6.591)">
            <path id="Path_303" data-name="Path 303" class="cls-14" d="M217.978,101.7l-.185-.185a3.986,3.986,0,0,1,0-6.845l.185-.185c2.59-1.85,6.29.74,6.29,3.515,0,3.145-3.515,5.55-6.29,3.7Z" transform="translate(-215.85 -93.863)"/>
          </g>
          <g id="Group_129" data-name="Group 129" transform="translate(194.357 27.856)">
            <path id="Path_304" data-name="Path 304" class="cls-14" d="M207,105.991a.181.181,0,0,0,.185-.185,3.436,3.436,0,1,1,0,5.92l-.185-.185a3.286,3.286,0,0,1,0-5.55Z" transform="translate(-205.475 -105.357)"/>
          </g>
          <g id="Group_130" data-name="Group 130" transform="translate(188.667 56.611)">
            <path id="Path_305" data-name="Path 305" class="cls-14" d="M205.175,126.635c-3.7,0-3.7-5.735,0-5.735,3.515.185,3.515,5.735,0,5.735Z" transform="translate(-202.4 -120.9)"/>
          </g>
          <g id="Group_131" data-name="Group 131" transform="translate(166.574 55.871)">
            <path id="Path_306" data-name="Path 306" class="cls-14" d="M197.381,126.05a.181.181,0,0,1-.185.185,3.631,3.631,0,0,1-6.105,0,.181.181,0,0,0-.185-.185,3.756,3.756,0,0,1,3.145-5.55,3.713,3.713,0,0,1,3.33,5.55Z" transform="translate(-190.459 -120.5)"/>
          </g>
          <g id="Group_132" data-name="Group 132" transform="translate(187.021 90.096)">
            <path id="Path_307" data-name="Path 307" class="cls-14" d="M207.967,143.255v.37a3.276,3.276,0,0,1-6.29,0v-.37c-.74-2.035,1.11-4.255,3.33-4.255a3.465,3.465,0,0,1,2.96,4.255Z" transform="translate(-201.51 -139)"/>
          </g>
          <g id="Group_133" data-name="Group 133" transform="translate(188.852 127.267)">
            <path id="Path_308" data-name="Path 308" class="cls-14" d="M203.8,163.732l-.185-.185a2.255,2.255,0,0,1,0-3.885l.185-.185c1.48-1.11,3.7.37,3.7,2.035a2.564,2.564,0,0,1-3.7,2.22Z" transform="translate(-202.5 -159.092)"/>
          </g>
          <g id="Group_134" data-name="Group 134" transform="translate(160.499 122.101)">
            <path id="Path_309" data-name="Path 309" class="cls-14" d="M190.367,162.96c-4.255,0-4.255-6.66,0-6.66s4.255,6.66,0,6.66Z" transform="translate(-187.175 -156.3)"/>
          </g>
          <g id="Group_135" data-name="Group 135" transform="translate(164.061 98.606)">
            <path id="Path_310" data-name="Path 310" class="cls-14" d="M192.43,150.445c-4.44,0-4.44-6.845,0-6.845s4.44,6.845,0,6.845Z" transform="translate(-189.1 -143.6)"/>
          </g>
          <g id="Group_136" data-name="Group 136" transform="translate(184.227 150.222)">
            <path id="Path_311" data-name="Path 311" class="cls-14" d="M202.775,177.235c-3.7,0-3.7-5.735,0-5.735,3.7.185,3.7,5.735,0,5.735Z" transform="translate(-200 -171.5)"/>
          </g>
          <g id="Group_137" data-name="Group 137" transform="translate(147.844 73.872)">
            <path id="Path_312" data-name="Path 312" class="cls-14" d="M182.12,130.729c2.775-1.665,6.66,1.11,5.365,4.255a3.642,3.642,0,0,1-3.885,2.59,3.594,3.594,0,0,1-3.145-3.515c.37.74.555,1.48.925,2.22.925.37,1.665.74,2.59,1.11h-.185a3.569,3.569,0,0,1-1.665-6.66Z" transform="translate(-180.335 -130.23)"/>
          </g>
          <g id="Group_138" data-name="Group 138" transform="translate(131.868 102.744)">
            <path id="Path_313" data-name="Path 313" class="cls-14" d="M174.29,151.874h-.37a3.083,3.083,0,0,1,0-5.92h.37a3.111,3.111,0,1,1,0,5.92Z" transform="translate(-171.7 -145.837)"/>
          </g>
          <g id="Group_139" data-name="Group 139" transform="translate(121.646 55.686)">
            <path id="Path_314" data-name="Path 314" class="cls-14" d="M169.367,127.06c-4.255,0-4.255-6.66,0-6.66s4.255,6.66,0,6.66Z" transform="translate(-166.175 -120.4)"/>
          </g>
          <g id="Group_140" data-name="Group 140" transform="translate(117.053 82.763)">
            <path id="Path_315" data-name="Path 315" class="cls-14" d="M168.7,141.075a3.73,3.73,0,0,1-2.035.555,2.922,2.922,0,0,1-2.96-2.96,3.729,3.729,0,0,1,.555-2.035,3.458,3.458,0,0,1,5.18-.74,3.337,3.337,0,0,1-.74,5.18Z" transform="translate(-163.692 -135.036)"/>
          </g>
          <g id="Group_141" data-name="Group 141" transform="translate(98.011 101.751)">
            <path id="Path_316" data-name="Path 316" class="cls-14" d="M156.73,152.145c-4.44,0-4.44-6.845,0-6.845,4.625,0,4.625,6.845,0,6.845Z" transform="translate(-153.4 -145.3)"/>
          </g>
          <g id="Group_142" data-name="Group 142" transform="translate(88.004 81.216)">
            <path id="Path_317" data-name="Path 317" class="cls-14" d="M150.967,140.12a2.96,2.96,0,1,1,2.96-2.96,2.919,2.919,0,0,1-2.96,2.96Z" transform="translate(-147.992 -134.2)"/>
          </g>
          <g id="Group_143" data-name="Group 143" transform="translate(97.178 53.281)">
            <path id="Path_318" data-name="Path 318" class="cls-14" d="M156,125.39c-4.07,0-4.07-6.29,0-6.29s4.07,6.29,0,6.29Z" transform="translate(-152.95 -119.1)"/>
          </g>
          <g id="Group_144" data-name="Group 144" transform="translate(90.61 28.305)">
            <path id="Path_319" data-name="Path 319" class="cls-14" d="M152.73,112.445c-4.44,0-4.44-6.845,0-6.845,4.44.185,4.44,6.845,0,6.845Z" transform="translate(-149.4 -105.6)"/>
          </g>
          <g id="Group_145" data-name="Group 145" transform="translate(84.782 12.025)">
            <path id="Path_320" data-name="Path 320" class="cls-14" d="M149.3,103.09c-4.07,0-4.07-6.29,0-6.29s4.07,6.29,0,6.29Z" transform="translate(-146.25 -96.8)"/>
          </g>
          <g id="Group_146" data-name="Group 146" transform="translate(63.737 38.487)">
            <path id="Path_321" data-name="Path 321" class="cls-14" d="M135.846,116.462a3.023,3.023,0,0,1,0-4.44,3.453,3.453,0,0,1,3.515-.74,3,3,0,0,1,1.85,2.96,3.262,3.262,0,0,1-1.48,2.775,3.112,3.112,0,0,1-3.885-.555Z" transform="translate(-134.875 -111.103)"/>
          </g>
          <g id="Group_147" data-name="Group 147" transform="translate(44.079 27.935)">
            <path id="Path_322" data-name="Path 322" class="cls-14" d="M126.748,110.58c-3.33,0-3.33-5.18,0-5.18,3.33.185,3.33,5.18,0,5.18Z" transform="translate(-124.25 -105.4)"/>
          </g>
          <g id="Group_148" data-name="Group 148" transform="translate(27.228 38.85)">
            <path id="Path_323" data-name="Path 323" class="cls-14" d="M121.91,115.74v.37a3.469,3.469,0,0,1-6.66,0v-.37a3.469,3.469,0,1,1,6.66,0Z" transform="translate(-115.142 -111.3)"/>
          </g>
          <g id="Group_149" data-name="Group 149" transform="translate(12.35 27.75)">
            <path id="Path_324" data-name="Path 324" class="cls-14" d="M109.875,111.035c-3.7,0-3.7-5.735,0-5.735s3.7,5.735,0,5.735Z" transform="translate(-107.1 -105.3)"/>
          </g>
          <g id="Group_150" data-name="Group 150">
            <path id="Path_325" data-name="Path 325" class="cls-14" d="M103.894,97.33c-4.625,0-4.625-7.03,0-7.03s4.625,7.03,0,7.03Z" transform="translate(-100.425 -90.3)"/>
          </g>
        </g>
        <path id="Path_288" data-name="Path 288" class="cls-10" d="M158.267,68c1.11,7.03,3.7,13.875,5,20.905s.925,14.985-3.145,20.905c-3.885,5.55-10.176,8.14-15.911,10.915-9.806,4.44-17.946,9.99-20.907,21.645-2.59,10.545-.555,22.385,6.105,30.34,6.845,8.14,16.836,11.655,26.457,14.06,9.806,2.405,20.166,5.92,30.527,3.7,14.431-3.145,21.832-28.12,32.747-39.035,4.44-4.44,8.881-9.065,12.026-14.43,6.29-10.36,7.771-23.31,7.956-35.52.74-31.08,1.85-77.331-24.422-94.351C187.13-10.811,154.382,43.765,158.267,68Z" transform="translate(103.897 2.892)"/>
        <path id="Path_289" data-name="Path 289" class="cls-12" d="M150.045,82.508c1.85,10.545,13.136,16.835,25.347,19.24,12.026,2.405,13.506,21.645,14.246,29.785,1.11,14.615,19.426-28.305,28.122-39.96s10.361-27.935,5.55-41.811S207.954,24.6,195.373,17.757c-6.29-3.33-14.246-2.59-21.277-2.035C151.9,17.572,144.865,53.092,150.045,82.508Z" transform="translate(126.18 12.804)"/>
        <path id="Path_291" data-name="Path 291" class="cls-12" d="M132.777,209.661c.74-1.85,132.285,102.861,192.6,38.481S132.777,127.52,104.1,146.76c-26.827,17.76-25.532,66.786-75.3,173.9l12.951,10.36S116.5,249.992,132.777,209.661Z" transform="translate(24.484 121.344)"/>
        <path id="Path_292" data-name="Path 292" class="cls-17" d="M157.967,183.561c-1.85-1.3-79-21.645-93.617.74-14.616,22.57,8.141,177.972,8.141,177.972l15.726,1.85s15.171-111,7.4-130.057c0,0,54.579,21.275,127.289,16.65Z" transform="translate(50.543 147.629)"/>
        <g id="Group_121" data-name="Group 121" transform="translate(132.825 291.599)">
          <path id="Path_293" data-name="Path 293" class="cls-12" d="M77.357,157.7,254.6,207.466l-38.113,60.681c-39.963-6.475-120.259-72.891-128.954-80.661C59.6,160.105,77.357,157.7,77.357,157.7Z" transform="translate(-71.792 -157.7)"/>
        </g>
        <path id="Path_294" data-name="Path 294" class="cls-13" d="M232.848,207.689a58.534,58.534,0,0,1-49.769,7.955c-11.286-3.33-22.2-11.1-26.087-22.57-4.625-14.06,2.22-28.86,9.436-41.441,9.436-16.28,19.611-32.375,24.237-51.061s2.035-41.256-11.471-55.5c-4.81-5.18-10.916-8.88-15.541-14.245-4.81-5.365-8.326-12.95-6.29-19.61C160.138,2.152,171.238-.253,180.3.117c12.4.37,25.162,2.59,36.448,8.51s21.091,15.725,25.717,27.935c7.4,19.24,2.22,43.106,14.616,58.646,5.92,7.585,14.8,11.285,23.127,15.54,9.991,5,19.8,11.285,25.9,20.905s12.4,19.98,5.18,32.93c-2.775,5-11.286,10.915-20.351,9.62,0,0-21.462-15.54-26.272-15.17-6.29.37-6.66,11.84-8.881,17.945C251.164,189.374,243.393,200.289,232.848,207.689Z" transform="translate(132.184 -0.081)"/>
        <path id="Path_295" data-name="Path 295" class="cls-13" d="M131.711,273.867S164.274,190.986,112.1,146.4c0,0,119.519,5.735,152.451,50.876C297.3,242.231,271.4,300.877,131.711,273.867Z" transform="translate(95.3 124.294)"/>
      </g>
    </g>
    <g class="cls-20" transform="matrix(1, 0, 0, 1, 693, 152)">
      <path id="Path_327-2" data-name="Path 327" class="cls-16" d="M206.532,88.283H112.493A26.02,26.02,0,0,1,86.4,62.192h0A26.02,26.02,0,0,1,112.493,36.1h67.945a26.02,26.02,0,0,1,26.093,26.092V88.283Z" transform="translate(214.95 175.31)"/>
    </g>
    <g id="Group_155" data-name="Group 155" transform="translate(1029.482 385.515)">
      <ellipse id="Ellipse_28" data-name="Ellipse 28" class="cls-14" cx="3.359" cy="3.358" rx="3.359" ry="3.358" transform="translate(0 1.399)"/>
      <circle id="Ellipse_29" data-name="Ellipse 29" class="cls-14" cx="3.359" cy="3.359" r="3.359" transform="translate(20.611 4.763) rotate(-45)"/>
      <circle id="Ellipse_30" data-name="Ellipse 30" class="cls-14" cx="3.359" cy="3.359" r="3.359" transform="translate(42.564 4.749) rotate(-45)"/>
    </g>
    <g class="cls-19" transform="matrix(1, 0, 0, 1, 693, 152)">
      <path id="iconmonstr-favorite-3-2" data-name="iconmonstr-favorite-3" class="cls-18" d="M19.273,6.216C14.217-2.459,0,.073,0,10.944c0,7.485,8.947,15.14,19.273,25.387C29.6,26.084,38.546,18.43,38.546,10.944,38.546.037,24.292-2.395,19.273,6.216Z" transform="translate(377.46 150.6)"/>
    </g>
    <g id="Group_3868" data-name="Group 3868" transform="translate(1419 295.09)">
      <path id="Path_6514" data-name="Path 6514" class="cls-14" d="M844.874,185.5a25.832,25.832,0,0,0-19.974,9.986h40.233C860.282,189.78,853.149,185.5,844.874,185.5Z" transform="translate(-425.133 -143.272)"/>
      <path id="Path_6515" data-name="Path 6515" class="cls-14" d="M1006.1,201.8c-8.56,0-15.124,10.272-22.828,8.274C966.435,206.081,959.3,184.4,940.754,184.4c-14.267,0-22.542,17.69-35.953,16.549-20.83-2-30.532-30.245-53.074-30.245-20.83,0-31.1,24.253-50.506,26.25-11.414,1.141-19.689-12.269-31.959-12.269-23.4,0-25.4,9.13-46.8,15.978-6.277,2-10.843,13.981-17.691,13.981-8.275,0-15.409,2.568-19.974,8.274H1040.91C1034.917,211.5,1021.506,201.8,1006.1,201.8Z" transform="translate(-684.8 -170.7)"/>
    </g>
    <g id="Group_3869" data-name="Group 3869" transform="translate(831.568 465.08)">
      <path id="Path_6514-2" data-name="Path 6514" class="cls-14" d="M836.541,185.5a15.055,15.055,0,0,0-11.641,5.82h23.448A15.664,15.664,0,0,0,836.541,185.5Z" transform="translate(-591.916 -160.889)"/>
      <path id="Path_6515-2" data-name="Path 6515" class="cls-14" d="M872.052,188.825c-4.989,0-8.814,5.986-13.3,4.822-9.812-2.328-13.969-14.966-24.779-14.966-8.315,0-13.138,10.31-20.954,9.645-12.14-1.164-17.794-17.627-30.931-17.627-12.14,0-18.127,14.135-29.435,15.3-6.652.665-11.475-7.15-18.625-7.15-13.636,0-14.8,5.321-27.273,9.312-3.658,1.164-6.319,8.148-10.31,8.148-4.823,0-8.98,1.5-11.641,4.822H892.341A23.565,23.565,0,0,0,872.052,188.825Z" transform="translate(-684.8 -170.7)"/>
    </g>
  </g>
</svg>
