<svg xmlns="http://www.w3.org/2000/svg" viewBox="0 0 360 143.437">
  <defs>
    <style>
      .cls-1 {
        fill: #f2f2f2;
      }

      .cls-17, .cls-2 {
        fill: #edf5f8;
      }

      .cls-14, .cls-15, .cls-3 {
        fill: #fff;
      }

      .cls-4 {
        fill: #272063;
      }

      .cls-5 {
        fill: #fcd2c5;
      }

      .cls-6 {
        fill: #3387ff;
      }

      .cls-7 {
        fill: #febb00;
      }

      .cls-8 {
        fill: #ffaf33;
      }

      .cls-9 {
        fill: #fb836f;
      }

      .cls-10 {
        fill: #ff8080;
      }

      .cls-11 {
        fill: #fa6c51;
      }

      .cls-12 {
        fill: #333;
      }

      .cls-13 {
        fill: #4cbc1d;
      }

      .cls-14 {
        font-size: 3px;
        font-family: Verdana;
      }

      .cls-15, .cls-17 {
        fill-rule: evenodd;
      }

      .cls-16 {
        fill: #afc4d5;
      }

      .cls-18 {
        fill: #e4eef9;
      }

      .cls-19 {
        fill: #d3e1ea;
      }

      .cls-20 {
        fill: #fb0;
      }

      .cls-21 {
        fill: #1557b5;
      }
    </style>
  </defs>
  <g id="ilu-oferta-head" transform="translate(0 48)">
    <g id="Group_1121" data-name="Group 1121" transform="translate(0.002)">
      <path id="Path_2745" data-name="Path 2745" class="cls-1" d="M-17449-970l0,143.437s20.406-31.3,52.043-29.126,35.2,14.752,74.51,14.752c29.8,0,71.014-18.346,71.014-18.346s17.973-8.574,41.934-1.891,39.064,10.213,67.895,8.889,52.6-27.613,52.6-27.613V-970Z" transform="translate(17448.998 922)"/>
    </g>
    <g id="Group_3883" data-name="Group 3883" transform="translate(26.188 11.373)">
      <g id="Group_3857" data-name="Group 3857">
        <g id="Group_3067" data-name="Group 3067" transform="translate(103.908 30.853)">
          <path id="Path_5072" data-name="Path 5072" class="cls-2" d="M381.8,373.7l-4.392,12.756H376.9l4.392-12.756Z" transform="translate(-376.178 -354.819)"/>
          <path id="Path_5073" data-name="Path 5073" class="cls-2" d="M406.67,373.7l-4.392,12.756H401.8l4.362-12.756Z" transform="translate(-393.639 -354.819)"/>
          <path id="Path_5074" data-name="Path 5074" class="cls-3" d="M379.118,310.5a7,7,0,0,1,6.6,5.557l1.912,7.977a4.284,4.284,0,0,0,4.153,3.107h4a1.105,1.105,0,1,1,0,2.211l-16.491.03a1.6,1.6,0,0,1-1.583-1.285l-3.137-12.01A4.517,4.517,0,0,1,379.118,310.5Z" transform="translate(-374.482 -310.5)"/>
          <path id="Path_5075" data-name="Path 5075" class="cls-2" d="M379.375,328.066l-3.137-12.01a4.444,4.444,0,0,1,3.734-5.5,7.331,7.331,0,0,0-.807-.06,4.462,4.462,0,0,0-4.511,5.557l3.137,12.01a1.6,1.6,0,0,0,1.583,1.285h1.583A1.553,1.553,0,0,1,379.375,328.066Z" transform="translate(-374.53 -310.5)"/>
          <path id="Path_5076" data-name="Path 5076" class="cls-3" d="M438.869,386.456h-.478L434,373.7h.478Z" transform="translate(-416.219 -354.819)"/>
          <path id="Path_5077" data-name="Path 5077" class="cls-3" d="M414.07,386.456h-.478L409.2,373.7h.478Z" transform="translate(-398.828 -354.819)"/>
        </g>
        <g id="Group_3073" data-name="Group 3073" transform="translate(146.933 8.899)">
          <path id="Path_5091" data-name="Path 5091" class="cls-3" d="M821.991,212.9a2.7,2.7,0,0,0-2.091,1.046h4.212A2.814,2.814,0,0,0,821.991,212.9Z" transform="translate(-778.046 -208.479)"/>
          <path id="Path_5092" data-name="Path 5092" class="cls-3" d="M713.439,201.356c-.9,0-1.583,1.075-2.39.866-1.763-.418-2.509-2.689-4.451-2.689-1.494,0-2.36,1.852-3.764,1.733-2.181-.209-3.2-3.167-5.557-3.167-2.181,0-3.256,2.539-5.288,2.748-1.195.12-2.061-1.285-3.346-1.285-2.45,0-2.659.956-4.9,1.673-.657.209-1.135,1.464-1.852,1.464a2.565,2.565,0,0,0-2.091.866h37.284A4.233,4.233,0,0,0,713.439,201.356Z" transform="translate(-679.8 -198.1)"/>
        </g>
        <g id="Group_3858" data-name="Group 3858" transform="translate(72.496 15.836)">
          <path id="Path_5091-2" data-name="Path 5091" class="cls-3" d="M821.991,212.9a2.7,2.7,0,0,0-2.091,1.046h4.212A2.814,2.814,0,0,0,821.991,212.9Z" transform="translate(-778.046 -208.479)"/>
          <path id="Path_5092-2" data-name="Path 5092" class="cls-3" d="M713.439,201.356c-.9,0-1.583,1.075-2.39.866-1.763-.418-2.509-2.689-4.451-2.689-1.494,0-2.36,1.852-3.764,1.733-2.181-.209-3.2-3.167-5.557-3.167-2.181,0-3.256,2.539-5.288,2.748-1.195.12-2.061-1.285-3.346-1.285-2.45,0-2.659.956-4.9,1.673-.657.209-1.135,1.464-1.852,1.464a2.565,2.565,0,0,0-2.091.866h37.284A4.233,4.233,0,0,0,713.439,201.356Z" transform="translate(-679.8 -198.1)"/>
        </g>
        <g id="Group_3074" data-name="Group 3074">
          <path id="Path_5093" data-name="Path 5093" class="cls-3" d="M149.921,191.9a2.7,2.7,0,0,1,2.091,1.046H147.8A2.814,2.814,0,0,1,149.921,191.9Z" transform="translate(-147.8 -187.479)"/>
          <path id="Path_5094" data-name="Path 5094" class="cls-3" d="M180.775,180.356c.9,0,1.583,1.076,2.39.866,1.763-.418,2.509-2.689,4.451-2.689,1.494,0,2.36,1.852,3.764,1.733,2.181-.209,3.2-3.167,5.557-3.167,2.181,0,3.256,2.539,5.288,2.748,1.195.12,2.061-1.285,3.346-1.285,2.45,0,1.852,1.225,4.9,1.673,1.763.269,1.135,1.464,1.852,1.464a2.565,2.565,0,0,1,2.091.866H177.1A4.244,4.244,0,0,1,180.775,180.356Z" transform="translate(-168.347 -177.1)"/>
        </g>
        <g id="Group_3077" data-name="Group 3077" transform="translate(109.292 18.582)">
          <path id="Path_5095" data-name="Path 5095" class="cls-4" d="M439.278,405.3l1.075.03s.03.359.06.6c.09.478,1.255,1.464.986,1.942-.149.239-.747.149-1.135-.06a1.949,1.949,0,0,1-.866-.687c-.179-.3-.6-.747-.6-.926a.745.745,0,0,1,.269-.538C439.158,405.36,439.278,405.3,439.278,405.3Z" transform="translate(-424.969 -364.708)"/>
          <path id="Path_5096" data-name="Path 5096" class="cls-5" d="M441.044,405.747a.918.918,0,0,1-.717.179,1.154,1.154,0,0,1-.627-.478c.12-.269.179-.448.179-.448l1.165.12A1.665,1.665,0,0,0,441.044,405.747Z" transform="translate(-425.6 -364.497)"/>
          <path id="Path_5097" data-name="Path 5097" class="cls-6" d="M394.117,343.1c1.942-.06,13.981,2.928,18.283,5.109,1.822.926,1.255,2.838-.687,2.868-5.587.09-12.936.836-16.371-1.255C389.875,346.474,394.117,343.1,394.117,343.1Z" transform="translate(-392.535 -321.088)"/>
          <path id="Path_5098" data-name="Path 5098" class="cls-6" d="M424.3,347.356c1.942.06,5.079-.687,7.11.06,1.912.687.329,3.107-1.524,3.615-1.7.478-4.541,1.464-7.708-1.046C419.936,348.222,423.462,347.326,424.3,347.356Z" transform="translate(-412.798 -323.882)"/>
          <path id="Path_5099" data-name="Path 5099" class="cls-6" d="M446.352,363.044c-.884,1.913-1.715,3.7-2.464,5.316-1.638,3.521-2.764,5.917-2.764,5.917a1.529,1.529,0,0,0-1.524-.448s1.583-5.5,3.107-11.382C443.723,358.592,447.547,360.475,446.352,363.044Z" transform="translate(-425.53 -333.117)"/>
          <path id="Path_5100" data-name="Path 5100" class="cls-4" d="M434.8,392.1l.926.538s-.149.329-.239.568c-.179.448.358,1.912-.12,2.151-.239.12-.717-.239-.956-.627a2.248,2.248,0,0,1-.418-1.046,5.053,5.053,0,0,1-.06-1.105.668.668,0,0,1,.508-.329C434.68,392.066,434.8,392.1,434.8,392.1Z" transform="translate(-421.536 -355.447)"/>
          <path id="Path_5101" data-name="Path 5101" class="cls-5" d="M436.714,392.925a.967.967,0,0,1-.717-.209.954.954,0,0,1-.3-.717c.239-.179.388-.3.388-.3l.926.687A1.643,1.643,0,0,0,436.714,392.925Z" transform="translate(-422.794 -355.171)"/>
          <path id="Path_5102" data-name="Path 5102" class="cls-6" d="M441.852,350.544c-2.9,6.274-5.228,11.233-5.228,11.233a1.529,1.529,0,0,0-1.524-.448s1.583-5.5,3.107-11.382C439.223,346.092,443.047,347.975,441.852,350.544Z" transform="translate(-422.375 -324.351)"/>
          <g id="Group_3075" data-name="Group 3075" transform="translate(8.814 9.478)">
            <path id="Path_5103" data-name="Path 5103" class="cls-5" d="M468.747,318.2c.09.06-.09.538-.179.6-.269.09-.329-.06-.568.06a4.076,4.076,0,0,0,.508-.508C468.568,318.227,468.627,318.077,468.747,318.2Z" transform="translate(-454.26 -313.074)"/>
            <path id="Path_5104" data-name="Path 5104" class="cls-5" d="M467,319.694a3.905,3.905,0,0,1,.627-.239c.269-.09.866-.179.926-.209a3.292,3.292,0,0,1,.538-.06.91.91,0,0,1,.3.209.215.215,0,0,1,0,.209c.12.119-.179.3-.149.329.119.09.06.3-.418.358-.03,0-1.135.448-1.524.538A9.419,9.419,0,0,1,467,319.694Z" transform="translate(-453.559 -313.794)"/>
            <path id="Path_5105" data-name="Path 5105" class="cls-5" d="M424.8,301.166c.777,1.076,2.36,5.019,3.465,6.782,1.374,2.151-.627,2.33-1.255,1.822-1.643-1.374-5.5-5.885-4.87-6.811C422.408,302.541,424.649,300.987,424.8,301.166Z" transform="translate(-422.052 -301.152)"/>
            <path id="Path_5106" data-name="Path 5106" class="cls-7" d="M425.56,307.2c-.239.149-.926.6-1.165.747-1.583-1.822-2.719-4.362-2.3-4.989.269-.388,2.509-1.972,2.659-1.792.568.747,1.583,2.928,2.659,4.66A16.5,16.5,0,0,1,425.56,307.2Z" transform="translate(-422.008 -301.153)"/>
            <path id="Path_5107" data-name="Path 5107" class="cls-5" d="M438.438,321.914a1.769,1.769,0,0,1,.239-.12c1.4-.329,6.752-.627,8.156-1.195a4.578,4.578,0,0,0,.329,1.165c-2.33.9-8.335,2.45-8.932,1.643A.93.93,0,0,1,438.438,321.914Z" transform="translate(-433.182 -314.79)"/>
          </g>
          <path id="Path_5108" data-name="Path 5108" class="cls-7" d="M393.465,336.8a13.23,13.23,0,0,0-.329,3.914c.09.448,4.182.09,6.393.388s5.318-.209,6.094-.866c.358-.3-.508-2.539-.508-2.539Z" transform="translate(-392.899 -316.672)"/>
          <path id="Path_5109" data-name="Path 5109" class="cls-5" d="M414.258,286a6.872,6.872,0,0,0,2.211.986,5.512,5.512,0,0,0-.06,2.211c-.149.687-2.031.657-2.509-.508A6.752,6.752,0,0,0,414.258,286Z" transform="translate(-407.508 -281.048)"/>
          <path id="Path_5110" data-name="Path 5110" class="cls-5" d="M417.531,278.594c.866-.03,1.673.179,1.852.986.06.3-.119,2.9-1.494,3.256-.6.149-1.7-.866-1.733-1.553,0,0-.06-.926-.06-.956A1.55,1.55,0,0,1,417.531,278.594Z" transform="translate(-409.048 -275.853)"/>
          <path id="Path_5111" data-name="Path 5111" class="cls-7" d="M395.221,298.555c.538-1.434,1.464-2.928,2.928-3.226.478-.12,1.225-.329,1.225-.329a4.088,4.088,0,0,0,1.673.956,1.3,1.3,0,0,0,.866-.448s1.643.538,1.942.717c1.135.687,1.135,1.822,1.195,2.778.508,9.41.926,10.815.6,11.322-.747,1.255-12.727.209-12.458-1.374C394,303.723,395.042,299,395.221,298.555Z" transform="translate(-392.982 -287.359)"/>
          <g id="Group_3076" data-name="Group 3076" transform="translate(2.825 8.933)">
            <path id="Path_5112" data-name="Path 5112" class="cls-5" d="M435.086,345.149c0,.12-.448.269-.568.239-.239-.149-.179-.269-.418-.388a1.935,1.935,0,0,0,.717.03C434.936,345.03,435.086,344.97,435.086,345.149Z" transform="translate(-424.499 -331.355)"/>
            <path id="Path_5113" data-name="Path 5113" class="cls-5" d="M431.677,344.8a4.259,4.259,0,0,1,.747.358,8.84,8.84,0,0,1,.956.627c.12.09.448.3.538.388a.82.82,0,0,1,.06.388c-.03.119-.179.119-.179.119-.03.149-.418.03-.418.09.03.179-.209.239-.687-.12-.03-.03-1.374-.627-1.793-.866A5.592,5.592,0,0,1,431.677,344.8Z" transform="translate(-422.255 -331.215)"/>
            <path id="Path_5114" data-name="Path 5114" class="cls-5" d="M407.009,301.781c.179,1.314-.388,5.527-.269,7.618.149,2.539-1.673,1.733-1.972.986-.777-2-1.942-7.827-.956-8.335C404.26,301.811,406.979,301.542,407.009,301.781Z" transform="translate(-402.994 -300.982)"/>
            <path id="Path_5115" data-name="Path 5115" class="cls-8" d="M402.362,305.86a12.11,12.11,0,0,1-.209-5.2,2.293,2.293,0,0,1,3.824-.538c.418.836-.06,3.346.06,5.377A7.311,7.311,0,0,1,402.362,305.86Z" transform="translate(-401.962 -299.325)"/>
            <path id="Path_5116" data-name="Path 5116" class="cls-5" d="M408.774,326.664a.6.6,0,0,1,.239.119c1.165.836,4.959,4.631,6.3,5.318a4.759,4.759,0,0,0-.657,1.016c-2.211-1.135-7.349-4.6-7.17-5.587A.955.955,0,0,1,408.774,326.664Z" transform="translate(-405.835 -318.456)"/>
          </g>
          <path id="Path_5117" data-name="Path 5117" class="cls-9" d="M415.823,276.1c1.464.3,1.105,2.45.418,2.748a1.73,1.73,0,0,0-.717-2.091c-1.972-.06-2.719,2.3-2.6,2.9,0,0-2.181-2-.269-3.675C413.941,274.849,415.823,276.1,415.823,276.1Z" transform="translate(-406.086 -273.691)"/>
          <path id="Path_5118" data-name="Path 5118" class="cls-5" d="M415.073,283.2a.8.8,0,0,1,.388.149,8.475,8.475,0,0,1-.418,1.046.763.763,0,0,1-.448-.657A.606.606,0,0,1,415.073,283.2Z" transform="translate(-407.994 -279.085)"/>
          <path id="Path_5119" data-name="Path 5119" class="cls-9" d="M394.326,273.032c.508-5.766,5.168-3.256,5.019-1.733-.03.359-.239.6-.538.179-.508-.687-2.33-1.285-1.314,2.241.269.926,1.464,2.151-1.195,3.764-2.39,1.464-.448,2.091-.6,2.778-.358,1.793-4.959-2.181-2.45-4.84C393.758,274.914,394.176,274.765,394.326,273.032Z" transform="translate(-392.505 -269.425)"/>
          <path id="Path_5120" data-name="Path 5120" class="cls-4" d="M413.517,275.09a.779.779,0,0,1,.329-.09.675.675,0,0,1,.418.209,2.876,2.876,0,0,0-1.105.747C413.039,275.657,413.069,275.358,413.517,275.09Z" transform="translate(-406.946 -273.334)"/>
        </g>
        <g id="Group_3081" data-name="Group 3081" transform="translate(185.022 13.446)">
          <g id="Group_3078" data-name="Group 3078" transform="translate(23.71 8.109)">
            <path id="Path_5121" data-name="Path 5121" class="cls-5" d="M618.424,315.966c.06.09.687-.209.747-.3a.76.76,0,0,0,.03-.568,2.061,2.061,0,0,1-.478.538C618.544,315.787,618.3,315.847,618.424,315.966Z" transform="translate(-609.849 -299.929)"/>
            <path id="Path_5122" data-name="Path 5122" class="cls-5" d="M620.252,315.191c-.179.687-.388.956-.358,1.255,0,.12,1.225.418,1.374-.149,0-.03.09-.418.179-.866A5.425,5.425,0,0,0,620.252,315.191Z" transform="translate(-610.9 -299.99)"/>
            <path id="Path_5123" data-name="Path 5123" class="cls-5" d="M591.872,269.807c.926.926,4.631,3.047,6.214,4.421,1.942,1.673,2.39-.269,1.972-.986-1.105-1.822-5.049-6.3-6.035-5.826C593.575,267.656,591.693,269.657,591.872,269.807Z" transform="translate(-591.243 -266.466)"/>
            <path id="Path_5124" data-name="Path 5124" class="cls-5" d="M613.7,286.6v.269c.269,1.4,2.151,6.423,2.181,7.947a4.1,4.1,0,0,1,1.195-.03c.12-.807-1.105-8.753-2.061-8.992A.989.989,0,0,0,613.7,286.6Z" transform="translate(-606.559 -279.347)"/>
            <path id="Path_5125" data-name="Path 5125" class="cls-7" d="M600.612,279.01c-.12-2.121-.956-7.05-1.852-8.425-.9-1.434-5.228-6.871-6.542-6.214a17.729,17.729,0,0,0-2.42,3.406c.478.478,6.871,4.392,7.021,4.481.179.568.418,1.344.687,2.151a31.052,31.052,0,0,1,1.374,4.81Z" transform="translate(-589.796 -264.316)"/>
          </g>
          <path id="Path_5126" data-name="Path 5126" class="cls-5" d="M584.137,349.577c-.06.359-2.121,17.686-2.121,17.686a1.451,1.451,0,0,1-1.135.179s-.448-17.835-.329-18.642C580.971,349.158,583.839,349.846,584.137,349.577Z" transform="translate(-559.59 -315.451)"/>
          <path id="Path_5127" data-name="Path 5127" class="cls-7" d="M581.534,409.248l.956-.448s.179.3.329.508c.3.388,1.763.747,1.733,1.285-.03.269-.6.478-1.046.448a3.458,3.458,0,0,1-1.105-.209,2.891,2.891,0,0,1-.956-.568.8.8,0,0,1,0-.627A1.267,1.267,0,0,1,581.534,409.248Z" transform="translate(-560.183 -357.527)"/>
          <g id="Group_3079" data-name="Group 3079" transform="translate(15.97 22.235)">
            <path id="Path_5128" data-name="Path 5128" class="cls-7" d="M594.308,405.3l-1.016.3a3.145,3.145,0,0,1,.09.6c.06.478-.807,1.763-.418,2.121.179.179.747-.06,1.075-.358a2.26,2.26,0,0,0,.657-.9c.09-.359.388-.866.329-1.046a.721.721,0,0,0-.418-.448C594.428,405.3,594.308,405.3,594.308,405.3Z" transform="translate(-584.208 -377.307)"/>
            <path id="Path_5129" data-name="Path 5129" class="cls-10" d="M594.249,405.846a1.541,1.541,0,0,0,.747-.03c.209-.06.478-.627.478-.627-.179-.239-.3-.388-.3-.388l-1.076.418A2.534,2.534,0,0,1,594.249,405.846Z" transform="translate(-585.075 -376.957)"/>
            <path id="Path_5130" data-name="Path 5130" class="cls-9" d="M563.893,311.6a19.449,19.449,0,0,0,5.915.179c.657,3.914.03,10.755-.209,16.132-.12,2.39,4.63,11.86,4.63,11.86a1.276,1.276,0,0,1-1.225.388s-7.021-8.335-7.439-12.069C564.64,320.293,563.833,312.227,563.893,311.6Z" transform="translate(-563.89 -311.6)"/>
          </g>
          <path id="Path_5131" data-name="Path 5131" class="cls-5" d="M583.074,409.1a1.678,1.678,0,0,1-.568.478c-.209.09-.777-.149-.777-.149-.03-.3-.03-.508-.03-.508l1.076-.418A1.372,1.372,0,0,0,583.074,409.1Z" transform="translate(-560.409 -357.316)"/>
          <path id="Path_5132" data-name="Path 5132" class="cls-11" d="M585.7,307.6a21.5,21.5,0,0,1-6.274.119s-.717,11.442-.269,17c.508,6.453.538,13.264.538,13.264.418.538,1.344.09,1.374.06C581.1,338.042,585.786,308.795,585.7,307.6Z" transform="translate(-558.52 -286.56)"/>
          <path id="Path_5133" data-name="Path 5133" class="cls-12" d="M563.609,304.3s-.209,2.36-.209,4.421a13.611,13.611,0,0,0,4.6.866l.687-2.061s.956,2.061,1.314,2.091a10.73,10.73,0,0,0,5.527-1.016l-.777-3.107Z" transform="translate(-547.576 -284.246)"/>
          <path id="Path_5134" data-name="Path 5134" class="cls-5" d="M583.788,250.7A6.6,6.6,0,0,0,586,251.716a5.366,5.366,0,0,0-.09,2.211c-.149.687-2.031.6-2.51-.568A6.49,6.49,0,0,0,583.788,250.7Z" transform="translate(-561.601 -246.658)"/>
          <path id="Path_5135" data-name="Path 5135" class="cls-7" d="M564.533,262.826a3.689,3.689,0,0,1,2.539-2.778c.478-.09,1.912-.448,1.912-.448a4.1,4.1,0,0,0,1.643.986,1.189,1.189,0,0,0,.866-.418,20.055,20.055,0,0,1,1.912.747,2.546,2.546,0,0,1,1.135,2.808c-.657,3.226.777,10.785-.179,11.2-1.285.538-8.425.926-11.143-.9a.713.713,0,0,1-.329-.687C563.069,271.669,563.7,265.515,564.533,262.826Z" transform="translate(-547.215 -252.9)"/>
          <g id="Group_3080" data-name="Group 3080" transform="translate(0 7.351)">
            <path id="Path_5136" data-name="Path 5136" class="cls-5" d="M513.23,271.5a3.437,3.437,0,0,0-.747-.358c-.3-.12-1.046-.358-1.075-.358-.149-.03-.508-.179-.627-.179a.519.519,0,0,0-.329.179.185.185,0,0,0,.03.209c-.119.119.239.359.179.359-.149.09-.06.3.508.478.03,0,1.344.657,1.792.836A8.244,8.244,0,0,0,513.23,271.5Z" transform="translate(-510.431 -267.965)"/>
            <path id="Path_5137" data-name="Path 5137" class="cls-5" d="M550.083,265.395c-1.255.418-4.81,2.778-6.722,3.585-2.36.986-.807,2.271,0,2.211,2.121-.179,7.887-1.7,7.887-2.808C551.278,267.874,550.322,265.305,550.083,265.395Z" transform="translate(-532.645 -264.313)"/>
            <path id="Path_5138" data-name="Path 5138" class="cls-5" d="M526.993,275.1a1.76,1.76,0,0,0-.239-.12c-1.374-.388-6.722-.956-8.066-1.583a4.954,4.954,0,0,1-.388,1.135c2.27.986,8.216,2.838,8.843,2.091A.979.979,0,0,0,526.993,275.1Z" transform="translate(-515.949 -269.928)"/>
            <path id="Path_5139" data-name="Path 5139" class="cls-7" d="M519.6,266.924c1.972.837,6.752,2.271,8.365,2.091,1.673-.179,7.678-1.7,7.678-3.167,0-.508.956-4.242.478-4.063a49.3,49.3,0,0,0-8.783,4.75c-.6-.09-1.4-.209-2.241-.329a29.194,29.194,0,0,1-4.929-.926Z" transform="translate(-516.861 -261.779)"/>
          </g>
          <path id="Path_5140" data-name="Path 5140" class="cls-6" d="M591.337,255.012a5.969,5.969,0,0,1-.179-3.256,5.006,5.006,0,0,0,0-2.211c0-.03,1.135-1.285,1.553-.657a4.794,4.794,0,0,1,.179,2.629,4.258,4.258,0,0,0,.329,2.868,4.5,4.5,0,0,1,.418,2.27c-.179,2.868-1.822,4.272-2.33,4C590.71,260.33,592.024,257.582,591.337,255.012Z" transform="translate(-566.939 -245.265)"/>
          <path id="Path_5141" data-name="Path 5141" class="cls-5" d="M587.411,242.9a1.445,1.445,0,0,1,1.673,1.165c.06.3-.149,2.868-1.554,3.226-.6.149-1.673-.9-1.7-1.583,0,0-.03-.926-.03-.956A1.8,1.8,0,0,1,587.411,242.9Z" transform="translate(-563.282 -241.185)"/>
          <path id="Path_5142" data-name="Path 5142" class="cls-6" d="M574.151,248.2a3.989,3.989,0,0,1,.6-2.6,3.69,3.69,0,0,0,.448-3.286,4.19,4.19,0,0,1,.9-4.063,2.713,2.713,0,0,1,2.748-.986c.807.358.836.747.836.747a1.385,1.385,0,0,1,.866.149c.986.538.926,2.778.149,3.465.508-2.39-.986-2.778-.986-2.778a2.747,2.747,0,0,0-1.553.717,4.211,4.211,0,0,0-.657,3.167c.209.866.9,1.494.179,3.525-1.016,2.928,1.105,6.065.239,6.393C577.108,253.013,574.509,251.46,574.151,248.2Z" transform="translate(-555.1 -237.171)"/>
          <path id="Path_5143" data-name="Path 5143" class="cls-5" d="M584.708,247.9a.917.917,0,0,1,.388.149,7.994,7.994,0,0,1-.448,1.016.923.923,0,0,1-.448-.657C584.23,248.164,584.5,247.865,584.708,247.9Z" transform="translate(-562.162 -244.69)"/>
        </g>
        <g id="Group_3094" data-name="Group 3094" transform="translate(292.572 8.863)">
          <g id="Group_3084" data-name="Group 3084" transform="translate(0)">
            <g id="Group_3083" data-name="Group 3083">
              <g id="Group_3082" data-name="Group 3082">
                <path id="Path_5144" data-name="Path 5144" class="cls-13" d="M602.976,203h-8.425a2.142,2.142,0,0,0-2.151,2.151v3.943a2.142,2.142,0,0,0,2.151,2.151h4.6v3.167l3.107-3.167h.747a2.142,2.142,0,0,0,2.151-2.151v-3.943A2.187,2.187,0,0,0,602.976,203Z" transform="translate(-592.4 -203)"/>
              </g>
            </g>
            <text id="_3" data-name="3" class="cls-14" transform="translate(6.365 4.139)"><tspan x="0" y="0">3</tspan></text>
          </g>
          <g id="Group_3087" data-name="Group 3087" transform="translate(4.573 2.577)">
            <g id="Group_3086" data-name="Group 3086" transform="translate(0)">
              <g id="Group_3085" data-name="Group 3085">
                <path id="Path_5145" data-name="Path 5145" class="cls-3" d="M601.526,213.822l-1.292-1.292a.176.176,0,0,1,0-.264L601.5,211l.264.264L600.63,212.4l1.16,1.16Z" transform="translate(-600.175 -211)"/>
              </g>
            </g>
          </g>
        </g>
        <g id="Group_3131" data-name="Group 3131" transform="translate(261.78 18.007)">
          <g id="XMLID_123_" transform="translate(9.44 15.027)">
            <g id="Group_3095" data-name="Group 3095" transform="translate(0)">
              <rect id="Rectangle_4868" data-name="Rectangle 4868" class="cls-2" width="7.469" height="3.406"/>
            </g>
          </g>
          <g id="XMLID_122_" transform="translate(0)">
            <g id="Group_3096" data-name="Group 3096">
              <path id="Path_5147" data-name="Path 5147" class="cls-15" d="M657.044,267.5H633.025a1.23,1.23,0,0,0-1.225,1.225V281.81a1.23,1.23,0,0,0,1.225,1.225h24.019a1.23,1.23,0,0,0,1.225-1.225V268.725A1.23,1.23,0,0,0,657.044,267.5Z" transform="translate(-631.8 -267.5)"/>
            </g>
          </g>
          <g id="XMLID_111_" transform="translate(0.807 0.717)">
            <g id="Group_3097" data-name="Group 3097">
              <rect id="Rectangle_4869" data-name="Rectangle 4869" class="cls-13" width="24.856" height="12.607"/>
            </g>
          </g>
          <g id="XMLID_105_" transform="translate(6.393 17.955)">
            <g id="Group_3098" data-name="Group 3098">
              <path id="Path_5148" data-name="Path 5148" class="cls-15" d="M665.807,327.6H653.678a.478.478,0,1,0,0,.956h12.129a.478.478,0,0,0,0-.956Z" transform="translate(-653.2 -327.6)"/>
            </g>
          </g>
        </g>
        <g id="Group_3132" data-name="Group 3132" transform="translate(139.024 24.75)">
          <rect id="Rectangle_4895" data-name="Rectangle 4895" class="cls-2" width="3.914" height="12.159" transform="translate(0)"/>
          <rect id="Rectangle_4896" data-name="Rectangle 4896" class="cls-16" width="8.455" height="12.159" transform="translate(3.929)"/>
        </g>
        <g id="Group_3137" data-name="Group 3137" transform="translate(119 18.007)">
          <g id="XMLID_104_" transform="translate(9.44 15.027)">
            <g id="Group_3133" data-name="Group 3133" transform="translate(0)">
              <rect id="Rectangle_4897" data-name="Rectangle 4897" class="cls-2" width="7.469" height="3.406"/>
            </g>
          </g>
          <g id="XMLID_101_" transform="translate(0)">
            <g id="Group_3134" data-name="Group 3134">
              <path id="Path_5156" data-name="Path 5156" class="cls-15" d="M450.244,267.5H426.225A1.23,1.23,0,0,0,425,268.725V281.81a1.23,1.23,0,0,0,1.225,1.225h24.019a1.23,1.23,0,0,0,1.225-1.225V268.725A1.23,1.23,0,0,0,450.244,267.5Z" transform="translate(-425 -267.5)"/>
            </g>
          </g>
          <g id="XMLID_90_" transform="translate(7.319 1.972)">
            <g id="Group_3135" data-name="Group 3135">
              <path id="Path_5157" data-name="Path 5157" class="cls-17" d="M465,274.1H450.247a.74.74,0,0,0-.747.747v8.006a.74.74,0,0,0,.747.747h14.728a.74.74,0,0,0,.747-.747v-8.006A.7.7,0,0,0,465,274.1Z" transform="translate(-449.5 -274.1)"/>
            </g>
          </g>
          <g id="XMLID_80_" transform="translate(6.393 17.955)">
            <g id="Group_3136" data-name="Group 3136">
              <path id="Path_5158" data-name="Path 5158" class="cls-15" d="M459.007,327.6H446.878a.478.478,0,0,0,0,.956h12.129a.478.478,0,1,0,0-.956Z" transform="translate(-446.4 -327.6)"/>
            </g>
          </g>
        </g>
        <g id="Group_3138" data-name="Group 3138" transform="translate(259.749 39.457)">
          <rect id="Rectangle_4898" data-name="Rectangle 4898" class="cls-3" width="0.687" height="23.033" transform="translate(0)"/>
          <rect id="Rectangle_4899" data-name="Rectangle 4899" class="cls-3" width="0.687" height="23.033" transform="translate(8.933)"/>
          <rect id="Rectangle_4900" data-name="Rectangle 4900" class="cls-3" width="0.687" height="23.033" transform="translate(33.489)"/>
          <rect id="Rectangle_4901" data-name="Rectangle 4901" class="cls-3" width="0.687" height="23.033" transform="translate(42.452)"/>
        </g>
        <g id="Group_3139" data-name="Group 3139" transform="translate(103.823 39.457)">
          <rect id="Rectangle_4902" data-name="Rectangle 4902" class="cls-3" width="0.687" height="23.033" transform="translate(0)"/>
          <rect id="Rectangle_4903" data-name="Rectangle 4903" class="cls-3" width="0.687" height="23.033" transform="translate(8.962)"/>
          <rect id="Rectangle_4904" data-name="Rectangle 4904" class="cls-3" width="0.687" height="23.033" transform="translate(33.519)"/>
          <rect id="Rectangle_4905" data-name="Rectangle 4905" class="cls-3" width="0.687" height="23.033" transform="translate(42.452)"/>
        </g>
        <g id="Group_3140" data-name="Group 3140" transform="translate(255.062 36.917)">
          <rect id="Rectangle_4906" data-name="Rectangle 4906" class="cls-2" width="15.206" height="2.569" transform="translate(0)"/>
          <rect id="Rectangle_4907" data-name="Rectangle 4907" class="cls-18" width="37.134" height="2.569" transform="translate(15.206)"/>
        </g>
        <g id="Group_3141" data-name="Group 3141" transform="translate(101.404 36.917)">
          <rect id="Rectangle_4908" data-name="Rectangle 4908" class="cls-2" width="15.206" height="2.569" transform="translate(0)"/>
          <rect id="Rectangle_4909" data-name="Rectangle 4909" class="cls-18" width="37.134" height="2.569" transform="translate(15.206)"/>
        </g>
        <g id="Group_3142" data-name="Group 3142" transform="translate(286.546 24.37)">
          <rect id="Rectangle_4910" data-name="Rectangle 4910" class="cls-2" width="5.497" height="12.368" transform="translate(8.455)"/>
          <rect id="Rectangle_4911" data-name="Rectangle 4911" class="cls-19" width="4.511" height="1.882" transform="translate(8.962 1.105)"/>
          <rect id="Rectangle_4912" data-name="Rectangle 4912" class="cls-19" width="4.511" height="1.105" transform="translate(8.962 3.465)"/>
          <rect id="Rectangle_4913" data-name="Rectangle 4913" class="cls-16" width="8.455" height="12.368" transform="translate(0)"/>
          <path id="Path_5159" data-name="Path 5159" class="cls-16" d="M750.711,317.105A1.105,1.105,0,1,1,749.605,316,1.1,1.1,0,0,1,750.711,317.105Z" transform="translate(-738.402 -307.874)"/>
        </g>
        <g id="Group_3144" data-name="Group 3144" transform="translate(270.289 17.695)">
          <g id="Group_3143" data-name="Group 3143" transform="translate(5.89 7.141)">
            <path id="Path_5160" data-name="Path 5160" class="cls-5" d="M685.395,326.922c-.12-.06-.239-.149-.3.03-.03.12.359.388.478.388.269-.06.239-.209.508-.239A3.35,3.35,0,0,1,685.395,326.922Z" transform="translate(-683.573 -315.946)"/>
            <path id="Path_5161" data-name="Path 5161" class="cls-5" d="M682.749,327.6c-.269.03-.538.06-.836.119a8.977,8.977,0,0,0-1.105.329,3.907,3.907,0,0,0-.627.239.712.712,0,0,0-.179.329c0,.12.149.179.149.179-.03.149.388.149.358.179-.06.149.12.3.687.09.03,0,1.494-.239,1.972-.329A6.3,6.3,0,0,0,682.749,327.6Z" transform="translate(-680 -316.475)"/>
            <path id="Path_5162" data-name="Path 5162" class="cls-5" d="M696.7,316.4c-.09,0-.209.03-.269.03-1.344.478-6.065,3.047-7.528,3.316a4.367,4.367,0,0,1,.329,1.165c2.42-.478,8.365-2.33,8.454-3.316A.969.969,0,0,0,696.7,316.4Z" transform="translate(-686.241 -308.62)"/>
            <path id="Path_5163" data-name="Path 5163" class="cls-5" d="M715.558,292.866c-.777,1.046-2.36,5.019-3.466,6.781-1.374,2.151.627,2.33,1.255,1.822,1.643-1.374,5.5-5.885,4.9-6.811C717.947,294.241,715.707,292.687,715.558,292.866Z" transform="translate(-702.174 -292.107)"/>
            <path id="Path_5164" data-name="Path 5164" class="cls-8" d="M699.146,290.372c-.508,1.255-.986,2.39-1.643,3.764a33.176,33.176,0,0,1-1.852,3.615,3.268,3.268,0,0,0-.239.448c-.568.239-1.315.6-2.091.986a29.807,29.807,0,0,1-4.72,2.031l.448,1.733c2.151-.418,7.05-1.912,8.305-2.987,1.344-1.105,5.2-5.407,4.78-6.871A3.441,3.441,0,0,0,699.146,290.372Z" transform="translate(-686.031 -290.359)"/>
          </g>
          <path id="Path_5165" data-name="Path 5165" class="cls-12" d="M685.652,340.7c-1.942.09-12.069,3.734-16.192,6.184-1.763,1.046-1.016,2.928.9,2.808,5.587-.329,12.966-.119,16.222-2.48C691.806,343.506,686.7,340.638,685.652,340.7Z" transform="translate(-666.019 -318.518)"/>
          <path id="Path_5166" data-name="Path 5166" class="cls-5" d="M689.9,405.962a1.978,1.978,0,0,1,.12.747,1.627,1.627,0,0,0,1.135.388,3.667,3.667,0,0,0,.03-1.195C691.095,405.9,690.378,405.484,689.9,405.962Z" transform="translate(-681.052 -364.125)"/>
          <path id="Path_5167" data-name="Path 5167" class="cls-12" d="M668.593,364.306c3.346,6.035,6.094,11.083,6.094,11.083a1.316,1.316,0,0,1,1.4-.508s-1.942-5.676-3.914-11.442C670.923,359.675,667.219,361.856,668.593,364.306Z" transform="translate(-665.9 -333.044)"/>
          <path id="Path_5168" data-name="Path 5168" class="cls-20" d="M685.008,407.921a1.286,1.286,0,0,1-.209.239c-.358.329-1.942,1.046-2,1.583-.03.269.508.568.956.627a2.2,2.2,0,0,0,1.105-.03,6.128,6.128,0,0,0,1.105-.986,1.532,1.532,0,0,0,.209-1.016C685.9,407.712,685.008,407.921,685.008,407.921Z" transform="translate(-676.071 -365.636)"/>
          <path id="Path_5169" data-name="Path 5169" class="cls-20" d="M685.568,409.969c-.448.329-1.942.836-1.972,1.285-.03.209.418.478.807.538a1.839,1.839,0,0,0,.926-.03,4.314,4.314,0,0,0,.926-.836C686.763,410.178,686.017,409.64,685.568,409.969Z" transform="translate(-676.631 -367.026)"/>
          <path id="Path_5170" data-name="Path 5170" class="cls-5" d="M719.1,405.923a11.648,11.648,0,0,0,.329,1.344,3.712,3.712,0,0,0,1.374-.717,7.9,7.9,0,0,1-.508-.9C719.787,405.206,719.19,405.923,719.1,405.923Z" transform="translate(-701.529 -363.966)"/>
          <path id="Path_5171" data-name="Path 5171" class="cls-12" d="M698.689,367.306c3.346,6.035,5.826,10.217,5.826,10.217a1.283,1.283,0,0,1,1.374-.538s-1.643-4.78-3.615-10.546C700.99,362.675,697.315,364.856,698.689,367.306Z" transform="translate(-687.003 -335.148)"/>
          <path id="Path_5172" data-name="Path 5172" class="cls-20" d="M721.444,408.129h0a.961.961,0,0,0-.956-.239h0a.622.622,0,0,0-.388.627,1.831,1.831,0,0,0,.179.747,5.248,5.248,0,0,0,1.105.986,2.219,2.219,0,0,0,1.105.03c.448-.06.986-.359.956-.627C723.386,409.175,721.8,408.487,721.444,408.129Z" transform="translate(-702.23 -365.604)"/>
          <path id="Path_5173" data-name="Path 5173" class="cls-20" d="M721.887,410c-.448-.3-1.195.239-.687.926a4.314,4.314,0,0,0,.926.837,1.862,1.862,0,0,0,.926.03c.388-.06.836-.3.807-.538C723.8,410.838,722.335,410.3,721.887,410Z" transform="translate(-702.882 -367.059)"/>
          <path id="Path_5174" data-name="Path 5174" class="cls-2" d="M708.21,339.679c-2.241.269-4.451.6-6.692.657a14.351,14.351,0,0,1-3.973-.448c0,2.091-.418,2.42-1.344,2.958a4.34,4.34,0,0,0,3.137,3.316c3.017.986,10.576-1.285,10.785-1.285a42.982,42.982,0,0,0-.388-5.377Z" transform="translate(-685.47 -317.679)"/>
          <path id="Path_5175" data-name="Path 5175" class="cls-5" d="M715.641,278.8a6.754,6.754,0,0,1-2.241.956,5.159,5.159,0,0,1,.03,2.211c.12.687,2,.687,2.509-.478A8.135,8.135,0,0,1,715.641,278.8Z" transform="translate(-697.532 -275.112)"/>
          <path id="Path_5176" data-name="Path 5176" class="cls-5" d="M710.824,271.278c-.836-.06-1.673.149-1.852.956-.06.3.06,2.9,1.464,3.286.6.179,1.7-.836,1.763-1.524l.06-.926A1.6,1.6,0,0,0,710.824,271.278Z" transform="translate(-694.418 -269.831)"/>
          <path id="Path_5177" data-name="Path 5177" class="cls-7" d="M706.17,288.308c-.478-.119-1.912-.508-1.912-.508a1.831,1.831,0,0,1-1.135.568,2.34,2.34,0,0,1-1.374-.09,20.11,20.11,0,0,0-1.942.687c-1.165.687-1.165,1.165-1.255,2.749-.009.236-.019,1.537-.086,3.339-.139,3.743-.54,9.651-1.766,11.449a3.709,3.709,0,0,0,2.211,2.061l.359-3.226.329,3.376c3.5.747,6.154-.627,8.962-1.046l.269-4.242.807,4.093q.4-.045.717-.09a110.082,110.082,0,0,0-1.912-16.491C708.112,289.682,707.6,288.637,706.17,288.308Z" transform="translate(-685.821 -281.424)"/>
          <path id="Path_5178" data-name="Path 5178" class="cls-12" d="M709.5,266.888c-1.344-1.046-3.585-.03-4.153,1.344-.448,1.016-.836.3-.807.03-.12.687.149,1.255,1.464,1.165.269-.03-.6.239-.6.239s1.4,2.9,3.555,2.181a3.407,3.407,0,0,0,1.2-.836s-.687.12-.329-.448A2.787,2.787,0,0,0,709.5,266.888Z" transform="translate(-691.301 -266.457)"/>
          <path id="Path_5179" data-name="Path 5179" class="cls-5" d="M666.083,325.334c-.06.09.269.478.388.508.269,0,.3-.149.538-.119a1.942,1.942,0,0,1-.657-.329C666.262,325.3,666.173,325.184,666.083,325.334Z" transform="translate(-664.346 -307.695)"/>
          <path id="Path_5180" data-name="Path 5180" class="cls-5" d="M662.32,326.6c-.329,0-1.076.06-1.135.06a4.363,4.363,0,0,0-.657.09.814.814,0,0,0-.239.3.165.165,0,0,0,.09.179c-.06.149.329.239.329.269-.09.149.06.3.657.239.03,0,1.494.119,1.972.119a4.579,4.579,0,0,0-.179-1.2A7.882,7.882,0,0,0,662.32,326.6Z" transform="translate(-660.284 -308.632)"/>
          <path id="Path_5181" data-name="Path 5181" class="cls-5" d="M676.917,321.095a.872.872,0,0,0-.269.06c-1.344.508-6.184,1.4-7.648,1.7a3.719,3.719,0,0,1,.358,1.135c2.42-.538,8.514-.777,8.574-1.763A.928.928,0,0,0,676.917,321.095Z" transform="translate(-666.396 -304.77)"/>
          <path id="Path_5182" data-name="Path 5182" class="cls-5" d="M695.956,297.265c-.747,1.076-2.211,5.079-3.286,6.871-1.314,2.181.687,2.33,1.285,1.793,1.613-1.4,5.348-6.035,4.69-6.961A8.44,8.44,0,0,0,695.956,297.265Z" transform="translate(-682.687 -288.051)"/>
          <path id="Path_5183" data-name="Path 5183" class="cls-7" d="M679.957,294.787c-.478,1.255-.926,2.42-1.524,3.794s-1.912,3.973-1.972,4.123c-.568.269-5.8,1.225-6.662,1.374l.209,1.733a57.689,57.689,0,0,0,6.408-.645,4.531,4.531,0,0,0,2.016-.789c1.314-1.165,5.527-5.826,4.989-7.26C682.915,295.743,679.987,294.7,679.957,294.787Z" transform="translate(-666.957 -286.32)"/>
        </g>
        <g id="Group_3145" data-name="Group 3145" transform="translate(278.868 30.853)">
          <path id="Path_5184" data-name="Path 5184" class="cls-2" d="M746,373.7l4.392,12.756h.478L746.478,373.7Z" transform="translate(-728.971 -354.819)"/>
          <path id="Path_5185" data-name="Path 5185" class="cls-2" d="M721.2,373.7l4.392,12.756h.478L721.678,373.7Z" transform="translate(-711.581 -354.819)"/>
          <path id="Path_5186" data-name="Path 5186" class="cls-2" d="M707.575,310.5a7,7,0,0,0-6.6,5.557l-1.912,7.977a4.284,4.284,0,0,1-4.153,3.107h-4a1.105,1.105,0,0,0,0,2.211l16.491.03a1.6,1.6,0,0,0,1.583-1.285l3.137-12.01A4.53,4.53,0,0,0,707.575,310.5Z" transform="translate(-689.561 -310.5)"/>
          <path id="Path_5187" data-name="Path 5187" class="cls-3" d="M707.575,310.5a7,7,0,0,0-6.6,5.557l-1.912,8.006a4.31,4.31,0,0,1-4.153,3.137h-4a1.1,1.1,0,0,0-1.105,1.075,1.078,1.078,0,0,0,1.105,1.075h.508a1.122,1.122,0,0,1,1.016-.657h4a4.257,4.257,0,0,0,4.153-3.107l1.912-7.977a7,7,0,0,1,6.6-5.557,4.873,4.873,0,0,1,2.48.657A4.522,4.522,0,0,0,707.575,310.5Z" transform="translate(-689.561 -310.5)"/>
          <path id="Path_5188" data-name="Path 5188" class="cls-3" d="M689,386.456h.478L693.87,373.7h-.508Z" transform="translate(-689 -354.819)"/>
          <path id="Path_5189" data-name="Path 5189" class="cls-3" d="M713.8,386.456h.478L718.67,373.7h-.508Z" transform="translate(-706.391 -354.819)"/>
        </g>
        <g id="Group_3207" data-name="Group 3207" transform="translate(16.73 18.007)">
          <g id="XMLID_51_" transform="translate(9.44 15.027)">
            <g id="Group_3146" data-name="Group 3146" transform="translate(0)">
              <rect id="Rectangle_4914" data-name="Rectangle 4914" class="cls-19" width="7.469" height="3.406"/>
            </g>
          </g>
          <g id="XMLID_50_">
            <g id="Group_3147" data-name="Group 3147">
              <path id="Path_5190" data-name="Path 5190" class="cls-15" d="M229.044,267.5H205.025a1.23,1.23,0,0,0-1.225,1.225V281.81a1.23,1.23,0,0,0,1.225,1.225h24.019a1.23,1.23,0,0,0,1.225-1.225V268.725A1.23,1.23,0,0,0,229.044,267.5Z" transform="translate(-203.8 -267.5)"/>
            </g>
          </g>
          <g id="XMLID_32_" transform="translate(0.807 0.717)">
            <g id="Group_3148" data-name="Group 3148">
              <rect id="Rectangle_4915" data-name="Rectangle 4915" class="cls-16" width="24.856" height="12.607"/>
            </g>
          </g>
          <g id="XMLID_12_" transform="translate(6.393 17.955)">
            <g id="Group_3149" data-name="Group 3149">
              <path id="Path_5191" data-name="Path 5191" class="cls-15" d="M237.807,327.6H225.678a.478.478,0,1,0,0,.956h12.129a.478.478,0,1,0,0-.956Z" transform="translate(-225.2 -327.6)"/>
            </g>
          </g>
          <path id="iconmonstr-favorite-3" class="cls-3" d="M3.614,1.978A1.929,1.929,0,0,0,0,2.865c0,1.4,1.678,2.839,3.614,4.76C5.55,5.7,7.227,4.268,7.227,2.865A1.93,1.93,0,0,0,3.614,1.978Z" transform="translate(9.293 2.62)"/>
        </g>
        <g id="Group_3208" data-name="Group 3208" transform="translate(14.041 39.457)">
          <rect id="Rectangle_4939" data-name="Rectangle 4939" class="cls-3" width="0.687" height="23.033" transform="translate(0)"/>
          <rect id="Rectangle_4940" data-name="Rectangle 4940" class="cls-3" width="0.687" height="23.033" transform="translate(8.932)"/>
          <rect id="Rectangle_4941" data-name="Rectangle 4941" class="cls-3" width="0.687" height="23.033" transform="translate(33.489)"/>
          <rect id="Rectangle_4942" data-name="Rectangle 4942" class="cls-3" width="0.687" height="23.033" transform="translate(42.452)"/>
        </g>
        <g id="Group_3209" data-name="Group 3209" transform="translate(10.008 36.917)">
          <rect id="Rectangle_4943" data-name="Rectangle 4943" class="cls-2" width="15.206" height="2.569" transform="translate(0)"/>
          <rect id="Rectangle_4944" data-name="Rectangle 4944" class="cls-18" width="37.134" height="2.569" transform="translate(15.206)"/>
        </g>
        <g id="Group_3210" data-name="Group 3210" transform="translate(41.496 24.37)">
          <rect id="Rectangle_4945" data-name="Rectangle 4945" class="cls-2" width="5.497" height="12.368" transform="translate(8.455)"/>
          <rect id="Rectangle_4946" data-name="Rectangle 4946" class="cls-19" width="4.511" height="1.882" transform="translate(8.962 1.105)"/>
          <rect id="Rectangle_4947" data-name="Rectangle 4947" class="cls-19" width="4.511" height="1.105" transform="translate(8.962 3.465)"/>
          <rect id="Rectangle_4948" data-name="Rectangle 4948" class="cls-16" width="8.455" height="12.368" transform="translate(0)"/>
          <path id="Path_5205" data-name="Path 5205" class="cls-16" d="M322.711,317.105A1.105,1.105,0,1,1,321.605,316,1.1,1.1,0,0,1,322.711,317.105Z" transform="translate(-310.402 -307.874)"/>
        </g>
        <g id="Group_3212" data-name="Group 3212" transform="translate(25.239 17.544)">
          <g id="Group_3211" data-name="Group 3211" transform="translate(5.89 7.292)">
            <path id="Path_5206" data-name="Path 5206" class="cls-5" d="M257.395,326.922c-.119-.06-.239-.149-.3.03-.03.12.358.388.478.388.269-.06.239-.209.508-.239A3.347,3.347,0,0,1,257.395,326.922Z" transform="translate(-255.573 -315.946)"/>
            <path id="Path_5207" data-name="Path 5207" class="cls-5" d="M254.748,327.6c-.269.03-.538.06-.836.119a8.976,8.976,0,0,0-1.105.329,3.9,3.9,0,0,0-.627.239.712.712,0,0,0-.179.329c0,.12.149.179.149.179-.03.149.388.149.359.179-.06.149.119.3.687.09.03,0,1.494-.239,1.972-.329A6.286,6.286,0,0,0,254.748,327.6Z" transform="translate(-252 -316.475)"/>
            <path id="Path_5208" data-name="Path 5208" class="cls-5" d="M268.7,316.4c-.09,0-.209.03-.269.03-1.344.478-6.065,3.047-7.528,3.316a4.368,4.368,0,0,1,.329,1.165c2.42-.478,8.365-2.33,8.454-3.316A.969.969,0,0,0,268.7,316.4Z" transform="translate(-258.241 -308.62)"/>
            <path id="Path_5209" data-name="Path 5209" class="cls-5" d="M287.557,292.866c-.777,1.046-2.36,5.019-3.465,6.781-1.374,2.151.627,2.33,1.255,1.822,1.643-1.374,5.5-5.885,4.9-6.811C289.947,294.241,287.707,292.687,287.557,292.866Z" transform="translate(-274.174 -292.107)"/>
            <path id="Path_5210" data-name="Path 5210" class="cls-21" d="M271.146,290.372c-.508,1.255-.986,2.39-1.643,3.764a33.165,33.165,0,0,1-1.852,3.615,3.262,3.262,0,0,0-.239.448c-.568.239-1.315.6-2.091.986a29.807,29.807,0,0,1-4.72,2.031l.448,1.733c2.151-.418,7.05-1.912,8.305-2.987,1.344-1.105,5.2-5.407,4.78-6.871A3.441,3.441,0,0,0,271.146,290.372Z" transform="translate(-258.031 -290.359)"/>
          </g>
          <path id="Path_5211" data-name="Path 5211" class="cls-9" d="M257.652,340.7c-1.942.09-12.069,3.734-16.192,6.184-1.763,1.046-1.016,2.928.9,2.808,5.587-.329,12.966-.119,16.222-2.48C263.806,343.506,258.7,340.638,257.652,340.7Z" transform="translate(-238.019 -318.367)"/>
          <path id="Path_5212" data-name="Path 5212" class="cls-5" d="M261.9,405.962a1.977,1.977,0,0,1,.119.747,1.627,1.627,0,0,0,1.135.388,3.666,3.666,0,0,0,.03-1.195C263.1,405.9,262.378,405.484,261.9,405.962Z" transform="translate(-253.052 -363.974)"/>
          <path id="Path_5213" data-name="Path 5213" class="cls-9" d="M240.593,364.306c3.346,6.035,6.094,11.083,6.094,11.083a1.315,1.315,0,0,1,1.4-.508s-1.942-5.676-3.914-11.442C242.923,359.675,239.219,361.856,240.593,364.306Z" transform="translate(-237.9 -332.893)"/>
          <path id="Path_5214" data-name="Path 5214" class="cls-20" d="M257.008,407.921a1.288,1.288,0,0,1-.209.239c-.358.329-1.942,1.046-2,1.583-.03.269.508.568.956.627a2.2,2.2,0,0,0,1.105-.03,6.127,6.127,0,0,0,1.105-.986,1.532,1.532,0,0,0,.209-1.016C257.9,407.712,257.008,407.921,257.008,407.921Z" transform="translate(-248.071 -365.485)"/>
          <path id="Path_5215" data-name="Path 5215" class="cls-20" d="M257.568,409.969c-.448.329-1.942.836-1.972,1.285-.03.209.418.478.807.538a1.839,1.839,0,0,0,.926-.03,4.315,4.315,0,0,0,.926-.836C258.763,410.178,258.017,409.64,257.568,409.969Z" transform="translate(-248.631 -366.875)"/>
          <path id="Path_5216" data-name="Path 5216" class="cls-5" d="M291.1,405.923a11.645,11.645,0,0,0,.329,1.344,3.712,3.712,0,0,0,1.374-.717,7.914,7.914,0,0,1-.508-.9C291.787,405.206,291.19,405.923,291.1,405.923Z" transform="translate(-273.529 -363.815)"/>
          <path id="Path_5217" data-name="Path 5217" class="cls-9" d="M270.689,367.306c3.346,6.035,5.826,10.217,5.826,10.217a1.283,1.283,0,0,1,1.374-.538s-1.643-4.78-3.615-10.546C272.989,362.675,269.315,364.856,270.689,367.306Z" transform="translate(-259.003 -334.996)"/>
          <path id="Path_5218" data-name="Path 5218" class="cls-20" d="M293.444,408.129h0a.961.961,0,0,0-.956-.239h0a.622.622,0,0,0-.388.627,1.833,1.833,0,0,0,.179.747,5.249,5.249,0,0,0,1.105.986,2.22,2.22,0,0,0,1.105.03c.448-.06.986-.359.956-.627C295.386,409.175,293.8,408.487,293.444,408.129Z" transform="translate(-274.23 -365.453)"/>
          <path id="Path_5219" data-name="Path 5219" class="cls-20" d="M293.887,410c-.448-.3-1.195.239-.687.926a4.314,4.314,0,0,0,.926.837,1.862,1.862,0,0,0,.926.03c.388-.06.836-.3.807-.538C295.8,410.838,294.335,410.3,293.887,410Z" transform="translate(-274.882 -366.908)"/>
          <path id="Path_5220" data-name="Path 5220" class="cls-2" d="M280.21,339.679c-2.241.269-4.451.6-6.692.657a14.352,14.352,0,0,1-3.973-.448c0,2.091-.418,2.42-1.344,2.958a4.34,4.34,0,0,0,3.137,3.316c3.017.986,10.576-1.285,10.785-1.285a42.987,42.987,0,0,0-.388-5.377Z" transform="translate(-257.47 -317.527)"/>
          <path id="Path_5221" data-name="Path 5221" class="cls-5" d="M287.641,278.8a6.754,6.754,0,0,1-2.241.956,5.158,5.158,0,0,1,.03,2.211c.12.687,2,.687,2.509-.478A8.137,8.137,0,0,1,287.641,278.8Z" transform="translate(-269.532 -274.961)"/>
          <path id="Path_5222" data-name="Path 5222" class="cls-5" d="M282.824,271.278c-.836-.06-1.673.149-1.852.956-.06.3.06,2.9,1.464,3.286.6.179,1.7-.836,1.763-1.524l.06-.926A1.6,1.6,0,0,0,282.824,271.278Z" transform="translate(-266.418 -269.679)"/>
          <path id="Path_5223" data-name="Path 5223" class="cls-6" d="M278.17,288.308c-.478-.119-1.912-.508-1.912-.508a1.832,1.832,0,0,1-1.135.568,2.34,2.34,0,0,1-1.374-.09,20.1,20.1,0,0,0-1.942.687c-1.165.687-1.165,1.165-1.255,2.749-.03.747-.06,12.159-1.852,14.788a3.709,3.709,0,0,0,2.211,2.061l.359-3.226.329,3.376c3.5.747,6.154-.627,8.962-1.046l.269-4.242.807,4.093q.4-.045.717-.09a110.084,110.084,0,0,0-1.912-16.491C280.112,289.682,279.6,288.637,278.17,288.308Z" transform="translate(-257.821 -281.273)"/>
          <path id="Path_5224" data-name="Path 5224" class="cls-5" d="M238.083,325.334c-.06.09.269.478.388.508.269,0,.3-.149.538-.119a1.942,1.942,0,0,1-.657-.329C238.262,325.3,238.173,325.184,238.083,325.334Z" transform="translate(-236.346 -307.543)"/>
          <path id="Path_5225" data-name="Path 5225" class="cls-5" d="M234.32,326.6c-.329,0-1.075.06-1.135.06a4.362,4.362,0,0,0-.657.09.814.814,0,0,0-.239.3.165.165,0,0,0,.09.179c-.06.149.329.239.329.269-.09.149.06.3.657.239.03,0,1.494.119,1.972.119a4.578,4.578,0,0,0-.179-1.2A7.88,7.88,0,0,0,234.32,326.6Z" transform="translate(-232.284 -308.481)"/>
          <path id="Path_5226" data-name="Path 5226" class="cls-5" d="M248.917,321.095a.872.872,0,0,0-.269.06c-1.344.508-6.184,1.4-7.648,1.7a3.718,3.718,0,0,1,.358,1.135c2.42-.538,8.514-.777,8.574-1.763A.928.928,0,0,0,248.917,321.095Z" transform="translate(-238.396 -304.619)"/>
          <path id="Path_5227" data-name="Path 5227" class="cls-5" d="M267.957,297.265c-.747,1.076-2.211,5.079-3.286,6.871-1.314,2.181.687,2.33,1.285,1.793,1.613-1.4,5.348-6.035,4.69-6.961A8.439,8.439,0,0,0,267.957,297.265Z" transform="translate(-254.687 -287.9)"/>
          <path id="Path_5228" data-name="Path 5228" class="cls-6" d="M251.957,294.787c-.478,1.255-.926,2.42-1.524,3.794s-1.912,3.973-1.972,4.123c-.568.269-5.8,1.225-6.662,1.374l.209,1.733c2.121-.179,7.2-.3,8.425-1.434,1.314-1.165,5.527-5.826,4.989-7.26C254.915,295.743,251.987,294.7,251.957,294.787Z" transform="translate(-238.957 -286.169)"/>
          <path id="Path_5229" data-name="Path 5229" class="cls-8" d="M277.5,268.325c0,.388.687.9,1.822.687.179,2.509,2.241,2.48,2.928,1.942a2.994,2.994,0,0,0,0-4.362C280.547,265.069,277.56,266.5,277.5,268.325Z" transform="translate(-263.992 -265.95)"/>
        </g>
        <g id="Group_3213" data-name="Group 3213" transform="translate(33.818 30.853)">
          <path id="Path_5230" data-name="Path 5230" class="cls-2" d="M318,373.7l4.392,12.756h.478L318.478,373.7Z" transform="translate(-300.972 -354.819)"/>
          <path id="Path_5231" data-name="Path 5231" class="cls-2" d="M293.2,373.7l4.392,12.756h.478L293.678,373.7Z" transform="translate(-283.58 -354.819)"/>
          <path id="Path_5232" data-name="Path 5232" class="cls-2" d="M279.575,310.5a7,7,0,0,0-6.6,5.557l-1.912,7.977a4.284,4.284,0,0,1-4.153,3.107h-4a1.106,1.106,0,0,0-.03,2.211l16.491.03a1.6,1.6,0,0,0,1.583-1.285l3.137-12.01A4.5,4.5,0,0,0,279.575,310.5Z" transform="translate(-261.561 -310.5)"/>
          <path id="Path_5233" data-name="Path 5233" class="cls-3" d="M279.575,310.5a7,7,0,0,0-6.6,5.557l-1.912,8.006a4.31,4.31,0,0,1-4.153,3.137h-4a1.1,1.1,0,0,0-1.105,1.075,1.071,1.071,0,0,0,1.075,1.075h.508a1.122,1.122,0,0,1,1.016-.657h4a4.257,4.257,0,0,0,4.153-3.107l1.912-7.977a7,7,0,0,1,6.6-5.557,4.873,4.873,0,0,1,2.48.657A4.438,4.438,0,0,0,279.575,310.5Z" transform="translate(-261.561 -310.5)"/>
          <path id="Path_5234" data-name="Path 5234" class="cls-3" d="M261,386.456h.478L265.87,373.7h-.508Z" transform="translate(-261 -354.819)"/>
          <path id="Path_5235" data-name="Path 5235" class="cls-3" d="M285.8,386.456h.478L290.67,373.7h-.508Z" transform="translate(-278.391 -354.819)"/>
        </g>
        <g id="plant" transform="translate(62.313 42.32)">
          <g id="Group_41" data-name="Group 41" transform="translate(0 0)">
            <g id="Group_23" data-name="Group 23">
              <path id="Path_170" data-name="Path 170" class="cls-1" d="M333.758,388.174c0,.7-1.877,1.039-4.793,1.039s-5.765-.335-5.765-1.039,2.363-1.274,5.279-1.274S333.758,387.47,333.758,388.174Z" transform="translate(-316.733 -359.43)"/>
              <g id="Group_20" data-name="Group 20">
                <path id="Path_171" data-name="Path 171" class="cls-7" d="M345.477,258.005a5.093,5.093,0,0,1-.8-2.949,1.28,1.28,0,0,1,.134-.553c.385-.654,1.29-.285,1.86-.52a2.032,2.032,0,0,0,1.24-1.944c.034-.8-.218-1.609-.251-2.413a1.137,1.137,0,0,1,.134-.7,1.3,1.3,0,0,1,.57-.419c1.29-.52,2.832-.117,4.089-.721,1.207-.57,2.145-2.011,3.452-1.793a2.054,2.054,0,0,1,1.525,1.944,5.232,5.232,0,0,1-.67,2.564,7.692,7.692,0,0,0-.888,2.5c-.1.855.134,1.726.117,2.581a2.3,2.3,0,0,1-1.106,2.179c-.821.369-2.028.05-2.464.855-.235.436-.067.989-.3,1.424-1.022,1.793-4.491.1-5.564-.8A5.36,5.36,0,0,1,345.477,258.005Z" transform="translate(-334.497 -242.115)"/>
                <path id="Path_172" data-name="Path 172" class="cls-8" d="M288.923,238.838c-.553-1.223-.017-2.832-.637-3.972-.788-1.408-3.017-1.424-3.536-2.933-.335-.972.235-2.078.3-3.117.1-1.91-1.525-3.5-.955-5.3a.665.665,0,0,1,.184-.335.8.8,0,0,1,.637-.2c1.626.067,2.2,2.128,3.653,2.832.637.3,1.391.318,2.061.57a3.278,3.278,0,0,1,2.078,3.134c-.034,1.156-.6,2.48.017,3.452a4.886,4.886,0,0,0,1.106,1.005,5.008,5.008,0,0,1,1.743,3.268,3.8,3.8,0,0,1-.4,2.346C293.934,241.687,289.778,240.749,288.923,238.838Z" transform="translate(-283.975 -222.982)"/>
              </g>
              <g id="Group_21" data-name="Group 21" transform="translate(12.084 6.289)">
                <path id="Path_173" data-name="Path 173" class="cls-3" d="M356.639,277.149a18.631,18.631,0,0,1,1.173-6.955,27.262,27.262,0,0,1,6.268-9.418c.117-.117-.05-.352-.184-.235a28.353,28.353,0,0,0-6.586,9.2,18.305,18.305,0,0,0-1.19,7.407c.034.318.536.318.52,0Z" transform="translate(-356.083 -260.509)"/>
              </g>
              <g id="Group_22" data-name="Group 22" transform="translate(3.044 4.558)">
                <path id="Path_174" data-name="Path 174" class="cls-3" d="M309.907,267.61a12.663,12.663,0,0,0-.536-3.955,37.9,37.9,0,0,0-1.76-5.2,33.526,33.526,0,0,0-2.48-4.893,12.619,12.619,0,0,0-2.732-3.352.154.154,0,0,0-.218.218,26.988,26.988,0,0,1,4.893,8.379,40.383,40.383,0,0,1,1.693,4.843,12.758,12.758,0,0,1,.6,3.972.271.271,0,0,0,.536-.017Z" transform="translate(-302.137 -250.178)"/>
              </g>
              <path id="Path_175" data-name="Path 175" class="cls-13" d="M331.928,350.977A18.148,18.148,0,0,1,329.8,342.9h8.027s.385,4.726-1.659,8.078a7.081,7.081,0,0,1-2.346.436A3.784,3.784,0,0,1,331.928,350.977Z" transform="translate(-322.121 -322.804)"/>
            </g>
            <g id="Group_40" data-name="Group 40" transform="translate(2.434 3.954)">
              <g id="Group_24" data-name="Group 24" transform="translate(10.951 11.55)">
                <path id="Path_176" data-name="Path 176" class="cls-3" d="M364.008,315.832a17.256,17.256,0,0,0,4.156.05c.134-.017.084-.218-.034-.218-1.357-.134-2.765-.05-4.139-.168-.2-.017-.184.318.017.335Z" transform="translate(-363.848 -315.496)"/>
              </g>
              <g id="Group_25" data-name="Group 25" transform="translate(12.072 8.853)">
                <path id="Path_177" data-name="Path 177" class="cls-3" d="M370.682,299.7a38.162,38.162,0,0,0,5.363.2c.117,0,.168-.218.034-.235a41.275,41.275,0,0,0-5.4-.268c-.2,0-.184.285,0,.3Z" transform="translate(-370.537 -299.4)"/>
              </g>
              <g id="Group_26" data-name="Group 26" transform="translate(14.072 5.795)">
                <path id="Path_178" data-name="Path 178" class="cls-3" d="M382.613,281.663a14.732,14.732,0,0,0,3.838-.3.1.1,0,0,0-.034-.2c-1.257-.05-2.547.151-3.8.2-.184.017-.184.3,0,.3Z" transform="translate(-382.475 -281.152)"/>
              </g>
              <g id="Group_27" data-name="Group 27" transform="translate(13.557 2.845)">
                <path id="Path_179" data-name="Path 179" class="cls-3" d="M380.372,266.511a9.229,9.229,0,0,0-.821-2.916.08.08,0,0,0-.151.034,7.826,7.826,0,0,0,.335,1.374c.151.52.268,1.039.385,1.559a.128.128,0,1,0,.251-.05Z" transform="translate(-379.4 -263.553)"/>
              </g>
              <g id="Group_28" data-name="Group 28" transform="translate(11.947 6.397)">
                <path id="Path_180" data-name="Path 180" class="cls-3" d="M370.5,286.617a4.375,4.375,0,0,0-.553-1.827.083.083,0,0,0-.151.067,9.39,9.39,0,0,0,.285.9,8.177,8.177,0,0,1,.2.922c.017.134.235.067.218-.067Z" transform="translate(-369.79 -284.748)"/>
              </g>
              <g id="Group_29" data-name="Group 29" transform="translate(10.015 8.339)">
                <path id="Path_181" data-name="Path 181" class="cls-3" d="M359.745,298.794c-.218-.436-.436-.871-.67-1.307a5.322,5.322,0,0,0-.654-1.123c-.067-.067-.184,0-.151.084a6.317,6.317,0,0,0,.57,1.173c.235.436.469.855.7,1.274a.113.113,0,1,0,.2-.1Z" transform="translate(-358.265 -296.337)"/>
              </g>
              <g id="Group_30" data-name="Group 30" transform="translate(2.95 10.847)">
                <path id="Path_182" data-name="Path 182" class="cls-3" d="M316.173,311.5c1.29.268,2.581.553,3.871.788.151.034.218-.2.067-.235-1.29-.285-2.581-.5-3.871-.754-.134,0-.184.184-.067.2Z" transform="translate(-316.108 -311.3)"/>
              </g>
              <g id="Group_31" data-name="Group 31" transform="translate(2.871 7.827)">
                <path id="Path_183" data-name="Path 183" class="cls-3" d="M315.714,293.5c.385.084.754.168,1.14.251a4.205,4.205,0,0,0,1.022.168c.084,0,.134-.134.05-.168a4.079,4.079,0,0,0-.989-.251c-.385-.067-.771-.151-1.156-.218-.151-.033-.2.184-.067.218Z" transform="translate(-315.636 -293.279)"/>
              </g>
              <g id="Group_32" data-name="Group 32" transform="translate(0.087 4.476)">
                <path id="Path_184" data-name="Path 184" class="cls-3" d="M299.118,273.519c1.207.218,2.43.419,3.637.587.2.034.2-.285,0-.318-1.19-.151-2.4-.3-3.57-.5-.168-.034-.235.218-.067.235Z" transform="translate(-299.021 -273.282)"/>
              </g>
              <g id="Group_33" data-name="Group 33" transform="translate(0 1.998)">
                <path id="Path_185" data-name="Path 185" class="cls-3" d="M298.568,258.684a7.769,7.769,0,0,0,1.961.251.143.143,0,0,0,0-.285c-.637-.084-1.274-.05-1.91-.151-.117,0-.168.168-.05.184Z" transform="translate(-298.502 -258.5)"/>
              </g>
              <g id="Group_34" data-name="Group 34" transform="translate(1.99)">
                <path id="Path_186" data-name="Path 186" class="cls-3" d="M310.581,248.842a5.487,5.487,0,0,0,.469-1.123,2.381,2.381,0,0,0,.184-1.073c-.017-.1-.134-.084-.184-.017a3.918,3.918,0,0,0-.318,1.005c-.117.385-.235.754-.352,1.123-.034.117.151.184.2.084Z" transform="translate(-310.376 -246.575)"/>
              </g>
              <g id="Group_35" data-name="Group 35" transform="translate(3.819 1.529)">
                <path id="Path_187" data-name="Path 187" class="cls-3" d="M321.524,259.319A7.908,7.908,0,0,0,322.7,255.8c0-.084-.134-.151-.184-.05a11.732,11.732,0,0,0-.469,1.542,15.27,15.27,0,0,1-.737,1.894c-.084.151.134.285.218.134Z" transform="translate(-321.288 -255.699)"/>
              </g>
              <g id="Group_36" data-name="Group 36" transform="translate(5.258 6.781)">
                <path id="Path_188" data-name="Path 188" class="cls-3" d="M330.084,288.656c.134-.268.285-.553.419-.821a1.4,1.4,0,0,0,.268-.7c0-.1-.1-.117-.168-.067a1.6,1.6,0,0,0-.369.687c-.117.268-.235.536-.335.8-.084.117.117.251.184.1Z" transform="translate(-329.88 -287.036)"/>
              </g>
              <g id="Group_37" data-name="Group 37" transform="translate(6.785 9.188)">
                <path id="Path_189" data-name="Path 189" class="cls-3" d="M339.224,303.983a5.784,5.784,0,0,0,1.257-2.5c0-.1-.117-.1-.168-.05a7.715,7.715,0,0,0-.6,1.24,12.32,12.32,0,0,1-.7,1.19c-.084.134.134.251.218.117Z" transform="translate(-338.988 -301.403)"/>
              </g>
              <g id="Group_38" data-name="Group 38" transform="translate(16.296 3.332)">
                <path id="Path_190" data-name="Path 190" class="cls-3" d="M395.886,267.02a5.16,5.16,0,0,0,2.078-.335.117.117,0,0,0-.067-.218,4.785,4.785,0,0,0-.972.1c-.352.05-.721.1-1.073.168-.168.017-.134.285.034.285Z" transform="translate(-395.743 -266.46)"/>
              </g>
              <g id="Group_39" data-name="Group 39" transform="translate(16.113 2.024)">
                <path id="Path_191" data-name="Path 191" class="cls-3" d="M395.043,260.322a2.5,2.5,0,0,0-.2-1.642.106.106,0,0,0-.168.05,1.937,1.937,0,0,0,.05.754c.033.285.067.57.084.855a.121.121,0,0,0,.235-.017Z" transform="translate(-394.649 -258.656)"/>
              </g>
            </g>
          </g>
        </g>
        <g id="plant-2" data-name="plant" transform="translate(226.374 30.695)">
          <g id="Group_41-2" data-name="Group 41" transform="translate(0)">
            <g id="Group_23-2" data-name="Group 23">
              <path id="Path_170-2" data-name="Path 170" class="cls-1" d="M333.758,388.174c0,.7-1.877,1.039-4.793,1.039s-5.765-.335-5.765-1.039,2.363-1.274,5.279-1.274S333.758,387.47,333.758,388.174Z" transform="translate(-316.733 -359.43)"/>
              <g id="Group_20-2" data-name="Group 20">
                <path id="Path_171-2" data-name="Path 171" class="cls-9" d="M345.477,258.005a5.093,5.093,0,0,1-.8-2.949,1.28,1.28,0,0,1,.134-.553c.385-.654,1.29-.285,1.86-.52a2.032,2.032,0,0,0,1.24-1.944c.034-.8-.218-1.609-.251-2.413a1.137,1.137,0,0,1,.134-.7,1.3,1.3,0,0,1,.57-.419c1.29-.52,2.832-.117,4.089-.721,1.207-.57,2.145-2.011,3.452-1.793a2.054,2.054,0,0,1,1.525,1.944,5.232,5.232,0,0,1-.67,2.564,7.692,7.692,0,0,0-.888,2.5c-.1.855.134,1.726.117,2.581a2.3,2.3,0,0,1-1.106,2.179c-.821.369-2.028.05-2.464.855-.235.436-.067.989-.3,1.424-1.022,1.793-4.491.1-5.564-.8A5.36,5.36,0,0,1,345.477,258.005Z" transform="translate(-334.497 -242.115)"/>
                <path id="Path_172-2" data-name="Path 172" class="cls-9" d="M288.923,238.838c-.553-1.223-.017-2.832-.637-3.972-.788-1.408-3.017-1.424-3.536-2.933-.335-.972.235-2.078.3-3.117.1-1.91-1.525-3.5-.955-5.3a.665.665,0,0,1,.184-.335.8.8,0,0,1,.637-.2c1.626.067,2.2,2.128,3.653,2.832.637.3,1.391.318,2.061.57a3.278,3.278,0,0,1,2.078,3.134c-.034,1.156-.6,2.48.017,3.452a4.886,4.886,0,0,0,1.106,1.005,5.008,5.008,0,0,1,1.743,3.268,3.8,3.8,0,0,1-.4,2.346C293.934,241.687,289.778,240.749,288.923,238.838Z" transform="translate(-283.975 -222.982)"/>
              </g>
              <g id="Group_21-2" data-name="Group 21" transform="translate(12.084 6.289)">
                <path id="Path_173-2" data-name="Path 173" class="cls-3" d="M356.639,277.149a18.631,18.631,0,0,1,1.173-6.955,27.262,27.262,0,0,1,6.268-9.418c.117-.117-.05-.352-.184-.235a28.353,28.353,0,0,0-6.586,9.2,18.305,18.305,0,0,0-1.19,7.407c.034.318.536.318.52,0Z" transform="translate(-356.083 -260.509)"/>
              </g>
              <g id="Group_22-2" data-name="Group 22" transform="translate(3.044 4.558)">
                <path id="Path_174-2" data-name="Path 174" class="cls-3" d="M309.907,267.61a12.663,12.663,0,0,0-.536-3.955,37.9,37.9,0,0,0-1.76-5.2,33.526,33.526,0,0,0-2.48-4.893,12.619,12.619,0,0,0-2.732-3.352.154.154,0,0,0-.218.218,26.988,26.988,0,0,1,4.893,8.379,40.383,40.383,0,0,1,1.693,4.843,12.758,12.758,0,0,1,.6,3.972.271.271,0,0,0,.536-.017Z" transform="translate(-302.137 -250.178)"/>
              </g>
              <path id="Path_175-2" data-name="Path 175" class="cls-13" d="M331.928,350.977A18.148,18.148,0,0,1,329.8,342.9h8.027s.385,4.726-1.659,8.078a7.081,7.081,0,0,1-2.346.436A3.784,3.784,0,0,1,331.928,350.977Z" transform="translate(-322.121 -322.804)"/>
            </g>
            <g id="Group_40-2" data-name="Group 40" transform="translate(2.434 3.954)">
              <g id="Group_24-2" data-name="Group 24" transform="translate(10.951 11.55)">
                <path id="Path_176-2" data-name="Path 176" class="cls-3" d="M364.008,315.832a17.256,17.256,0,0,0,4.156.05c.134-.017.084-.218-.034-.218-1.357-.134-2.765-.05-4.139-.168-.2-.017-.184.318.017.335Z" transform="translate(-363.848 -315.496)"/>
              </g>
              <g id="Group_25-2" data-name="Group 25" transform="translate(12.072 8.853)">
                <path id="Path_177-2" data-name="Path 177" class="cls-3" d="M370.682,299.7a38.162,38.162,0,0,0,5.363.2c.117,0,.168-.218.034-.235a41.275,41.275,0,0,0-5.4-.268c-.2,0-.184.285,0,.3Z" transform="translate(-370.537 -299.4)"/>
              </g>
              <g id="Group_26-2" data-name="Group 26" transform="translate(14.072 5.795)">
                <path id="Path_178-2" data-name="Path 178" class="cls-3" d="M382.613,281.663a14.732,14.732,0,0,0,3.838-.3.1.1,0,0,0-.034-.2c-1.257-.05-2.547.151-3.8.2-.184.017-.184.3,0,.3Z" transform="translate(-382.475 -281.152)"/>
              </g>
              <g id="Group_27-2" data-name="Group 27" transform="translate(13.557 2.845)">
                <path id="Path_179-2" data-name="Path 179" class="cls-3" d="M380.372,266.511a9.229,9.229,0,0,0-.821-2.916.08.08,0,0,0-.151.034,7.826,7.826,0,0,0,.335,1.374c.151.52.268,1.039.385,1.559a.128.128,0,1,0,.251-.05Z" transform="translate(-379.4 -263.553)"/>
              </g>
              <g id="Group_28-2" data-name="Group 28" transform="translate(11.947 6.397)">
                <path id="Path_180-2" data-name="Path 180" class="cls-3" d="M370.5,286.617a4.375,4.375,0,0,0-.553-1.827.083.083,0,0,0-.151.067,9.39,9.39,0,0,0,.285.9,8.177,8.177,0,0,1,.2.922c.017.134.235.067.218-.067Z" transform="translate(-369.79 -284.748)"/>
              </g>
              <g id="Group_29-2" data-name="Group 29" transform="translate(10.015 8.339)">
                <path id="Path_181-2" data-name="Path 181" class="cls-3" d="M359.745,298.794c-.218-.436-.436-.871-.67-1.307a5.322,5.322,0,0,0-.654-1.123c-.067-.067-.184,0-.151.084a6.317,6.317,0,0,0,.57,1.173c.235.436.469.855.7,1.274a.113.113,0,1,0,.2-.1Z" transform="translate(-358.265 -296.337)"/>
              </g>
              <g id="Group_30-2" data-name="Group 30" transform="translate(2.95 10.847)">
                <path id="Path_182-2" data-name="Path 182" class="cls-3" d="M316.173,311.5c1.29.268,2.581.553,3.871.788.151.034.218-.2.067-.235-1.29-.285-2.581-.5-3.871-.754-.134,0-.184.184-.067.2Z" transform="translate(-316.108 -311.3)"/>
              </g>
              <g id="Group_31-2" data-name="Group 31" transform="translate(2.871 7.827)">
                <path id="Path_183-2" data-name="Path 183" class="cls-3" d="M315.714,293.5c.385.084.754.168,1.14.251a4.205,4.205,0,0,0,1.022.168c.084,0,.134-.134.05-.168a4.079,4.079,0,0,0-.989-.251c-.385-.067-.771-.151-1.156-.218-.151-.033-.2.184-.067.218Z" transform="translate(-315.636 -293.279)"/>
              </g>
              <g id="Group_32-2" data-name="Group 32" transform="translate(0.087 4.476)">
                <path id="Path_184-2" data-name="Path 184" class="cls-3" d="M299.118,273.519c1.207.218,2.43.419,3.637.587.2.034.2-.285,0-.318-1.19-.151-2.4-.3-3.57-.5-.168-.034-.235.218-.067.235Z" transform="translate(-299.021 -273.282)"/>
              </g>
              <g id="Group_33-2" data-name="Group 33" transform="translate(0 1.998)">
                <path id="Path_185-2" data-name="Path 185" class="cls-3" d="M298.568,258.684a7.769,7.769,0,0,0,1.961.251.143.143,0,0,0,0-.285c-.637-.084-1.274-.05-1.91-.151-.117,0-.168.168-.05.184Z" transform="translate(-298.502 -258.5)"/>
              </g>
              <g id="Group_34-2" data-name="Group 34" transform="translate(1.99)">
                <path id="Path_186-2" data-name="Path 186" class="cls-3" d="M310.581,248.842a5.487,5.487,0,0,0,.469-1.123,2.381,2.381,0,0,0,.184-1.073c-.017-.1-.134-.084-.184-.017a3.918,3.918,0,0,0-.318,1.005c-.117.385-.235.754-.352,1.123-.034.117.151.184.2.084Z" transform="translate(-310.376 -246.575)"/>
              </g>
              <g id="Group_35-2" data-name="Group 35" transform="translate(3.819 1.529)">
                <path id="Path_187-2" data-name="Path 187" class="cls-3" d="M321.524,259.319A7.908,7.908,0,0,0,322.7,255.8c0-.084-.134-.151-.184-.05a11.732,11.732,0,0,0-.469,1.542,15.27,15.27,0,0,1-.737,1.894c-.084.151.134.285.218.134Z" transform="translate(-321.288 -255.699)"/>
              </g>
              <g id="Group_36-2" data-name="Group 36" transform="translate(5.258 6.781)">
                <path id="Path_188-2" data-name="Path 188" class="cls-3" d="M330.084,288.656c.134-.268.285-.553.419-.821a1.4,1.4,0,0,0,.268-.7c0-.1-.1-.117-.168-.067a1.6,1.6,0,0,0-.369.687c-.117.268-.235.536-.335.8-.084.117.117.251.184.1Z" transform="translate(-329.88 -287.036)"/>
              </g>
              <g id="Group_37-2" data-name="Group 37" transform="translate(6.785 9.188)">
                <path id="Path_189-2" data-name="Path 189" class="cls-3" d="M339.224,303.983a5.784,5.784,0,0,0,1.257-2.5c0-.1-.117-.1-.168-.05a7.715,7.715,0,0,0-.6,1.24,12.32,12.32,0,0,1-.7,1.19c-.084.134.134.251.218.117Z" transform="translate(-338.988 -301.403)"/>
              </g>
              <g id="Group_38-2" data-name="Group 38" transform="translate(16.296 3.332)">
                <path id="Path_190-2" data-name="Path 190" class="cls-3" d="M395.886,267.02a5.16,5.16,0,0,0,2.078-.335.117.117,0,0,0-.067-.218,4.785,4.785,0,0,0-.972.1c-.352.05-.721.1-1.073.168-.168.017-.134.285.034.285Z" transform="translate(-395.743 -266.46)"/>
              </g>
              <g id="Group_39-2" data-name="Group 39" transform="translate(16.113 2.024)">
                <path id="Path_191-2" data-name="Path 191" class="cls-3" d="M395.043,260.322a2.5,2.5,0,0,0-.2-1.642.106.106,0,0,0-.168.05,1.937,1.937,0,0,0,.05.754c.033.285.067.57.084.855a.121.121,0,0,0,.235-.017Z" transform="translate(-394.649 -258.656)"/>
              </g>
            </g>
          </g>
        </g>
      </g>
    </g>
  </g>
</svg>
