<svg xmlns="http://www.w3.org/2000/svg" viewBox="0 0 918 971">
  <defs>
    <style>
      .cls-1, .cls-10 {
        fill: #3387ff;
      }

      .cls-1 {
        opacity: 0.15;
      }

      .cls-2 {
        fill: #fff;
      }

      .cls-3 {
        fill: #fa968c;
      }

      .cls-4 {
        fill: #2e79e6;
      }

      .cls-5 {
        fill: #fab9af;
      }

      .cls-6 {
        fill: #f57a2f;
      }

      .cls-7 {
        fill: #0091c8;
      }

      .cls-8 {
        fill: #ffca1b;
      }

      .cls-9 {
        fill: #ff8c46;
      }

      .cls-11 {
        fill: #333;
      }

      .cls-12 {
        fill: #41378c;
      }

      .cls-13, .cls-14, .cls-15, .cls-16 {
        fill: none;
        stroke-linecap: round;
      }

      .cls-13 {
        stroke: #333;
        stroke-width: 2.067px;
      }

      .cls-13, .cls-15, .cls-16 {
        stroke-miterlimit: 10;
      }

      .cls-14, .cls-15 {
        stroke: #4cbc1d;
      }

      .cls-14, .cls-15, .cls-16 {
        stroke-width: 2px;
      }

      .cls-16 {
        stroke: #61d375;
      }

      .cls-17 {
        fill: #4cbc1d;
      }

      .cls-18 {
        fill: #a5adb8;
      }

      .cls-19 {
        fill: #d9d9d9;
      }

      .cls-20 {
        fill: #ffaf33;
      }

      .cls-21 {
        fill: #fb836f;
      }

      .cls-22 {
        fill: #1a1a1a;
      }

      .cls-23 {
        fill: #46738c;
      }

      .cls-24 {
        fill: #41b4e6;
      }

      .cls-25 {
        fill: #2b8b02;
      }

      .cls-26 {
        fill: #fd3;
      }

      .cls-27 {
        fill: #e6e6e6;
      }

      .cls-28 {
        fill: #ffe7e6;
      }

      .cls-29 {
        fill: #a5db8e;
      }
    </style>
  </defs>
  <g id="Ilu-home-kompetencje" transform="translate(-968 -1997.679)">
    <g id="Group_3894" data-name="Group 3894">
      <path id="Path_6645" data-name="Path 6645" class="cls-1" d="M987.751,101.762c-63.7-17.1-136.353-15.684-207.972,10.359-161.939,58.918-201.553,301.244-326.1,274.952C161.177,324.987,55.964,533.419,71.175,703.205,81,812.806,173.219,948.382,369.384,934.127c57.677-4.118,114.72,10.137,163.524,38.329,83.663,48.465,216.447,59.552,354.3,21.857a637.552,637.552,0,0,0,100.465-36.756C987.676,770.706,987.751,225.981,987.751,101.762Z" transform="translate(898.25 1907.219)"/>
      <g id="Group_3855" data-name="Group 3855" transform="translate(1499.937 2210.283)">
        <path id="Path_6515" data-name="Path 6515" class="cls-2" d="M1005.924,201.772c-8.556,0-15.115,10.262-22.816,8.267-16.826-3.991-23.956-25.656-42.493-25.656-14.259,0-22.53,17.674-35.934,16.534-20.819-2-30.515-30.217-53.045-30.217-20.819,0-31.086,24.23-50.479,26.226-11.408,1.14-19.678-12.258-31.941-12.258-23.385,0-25.382,9.122-46.771,15.963-6.274,2-10.837,13.968-17.682,13.968-8.271,0-15.4,2.566-19.963,8.267h355.917C1034.728,211.464,1021.324,201.772,1005.924,201.772Z" transform="translate(-684.8 -170.7)"/>
      </g>
      <g id="OBJECTS" transform="translate(1052.953 2302.188)">
        <g id="Group_3723" data-name="Group 3723" transform="translate(0)">
          <g id="Group_3720" data-name="Group 3720">
            <g id="Group_3710" data-name="Group 3710" transform="translate(413.348)">
              <path id="Path_5898" data-name="Path 5898" class="cls-3" d="M350.091,121.155c.2-2.864,5.117-8.593,4.3-9.412-.614-.614-2.456,1.228-3.48,2.251-.2.2-.2.2-.409.2s-.2-.2-.2-.409c-.2-2.864-1.023-10.639-1.637-10.844-.819,0-1.228,4.91-1.228,6.547h-.2c-.614-1.841-2.661-7.57-3.48-6.752-.819.614.409,6.138,1.023,8.184v.2h-.2c-1.023-1.841-3.889-6.752-4.708-6.138s1.433,5.729,2.252,7.57v.2h-.2c-1.228-1.432-4.5-4.91-4.3-3.887,0,1.228,5.527,11.867,7.369,13.708C346.406,124.428,350.091,121.155,350.091,121.155Z" transform="translate(-227.398 -100.407)"/>
              <path id="Path_5899" data-name="Path 5899" class="cls-3" d="M396.362,148.455c-3.889,8.389-9.211,18-15.761,24.552-12.9,12.685-29.271,9.412-35-20.255-1.023-4.5-1.638-9-2.252-13.3-1.228-8.8-1.637-17.8-2.047-26.6a2.323,2.323,0,0,1,2.252-2.455,2.457,2.457,0,0,1,2.456,1.841h0c1.842,8.593,3.48,17.186,5.731,25.37,1.228,4.092,2.252,8.184,3.684,12.276,1.228,3.683,6.141,15.345,9.825,16.573.2,0,.2.2.409,0h.2l.2-.2c.2-.2.409-.2.819-.614a18.869,18.869,0,0,0,3.07-2.864,40.31,40.31,0,0,0,5.936-9.616c3.07-6.138,4.913-10.435,4.913-10.435,3.889-10.435,19.65-5.524,15.966,5.115C396.566,148.046,396.566,148.251,396.362,148.455Z" transform="translate(-223.52 -92.312)"/>
              <path id="Path_5900" data-name="Path 5900" class="cls-4" d="M355.8,146.42h0c2.047-2.864,3.684-5.933,5.527-9,1.637-2.864,3.275-6.343,4.5-9v-.2c0-.2.2-.409.409-.614a8.47,8.47,0,0,1,14.942,7.979c-2.047,3.887-4.094,6.956-6.345,10.435a68.234,68.234,0,0,1-4.913,6.547C368.7,151.126,358.666,147.648,355.8,146.42Z" transform="translate(-208.34 -79.024)"/>
              <path id="Path_5901" data-name="Path 5901" class="cls-5" d="M361.6,205.244c7.369,8.389,49.945,12.071,49.945,12.071,3.07-3.683-1.433-20.255-2.456-37.032-1.228-18.209-1.842-38.26-2.252-49.1a8.3,8.3,0,0,0-8.188-7.979H371.63a8.175,8.175,0,0,0-7.983,7.366c-.614,8.593-1.842,23.529-3.07,38.055C359.144,183.352,355.255,197.879,361.6,205.244Z" transform="translate(-205.952 -78.924)"/>
              <path id="Path_5902" data-name="Path 5902" class="cls-3" d="M385.051,237.739v16.777l1.433,8.184a2.269,2.269,0,0,1-2.252,2.66c-6.755.2-24.358.614-24.768,0-2.252-3.478,7.778-4.91,15.147-7.775s2.252-30.485,2.252-30.485Z" transform="translate(-204.841 29.755)"/>
              <path id="Path_5903" data-name="Path 5903" class="cls-6" d="M374.485,242h0a19.025,19.025,0,0,0,5.936,1.023,13.447,13.447,0,0,0,5.117-.818l.819,4.91a2.269,2.269,0,0,1-2.252,2.66c-6.755.2-24.358.614-24.768,0C357.291,246.3,367.321,244.864,374.485,242Z" transform="translate(-204.919 45.34)"/>
              <path id="Path_5904" data-name="Path 5904" class="cls-7" d="M359.8,176.969c-.2,11.662,4.3,85.318,13.3,85.522s19.036-73.246,19.446-84.909c.2-11.662-6.755-21.278-15.966-21.483C367.582,156.1,360.213,165.307,359.8,176.969Z" transform="translate(-204.156 -44.511)"/>
              <path id="Path_5905" data-name="Path 5905" class="cls-8" d="M385.7,247.148c.819,6.343,1.023,47.467-.409,68.132H377.1c-4.5-20.255-9.211-59.334-10.03-65.676v-.2c-4.913-21.688-7.369-64.04-7.164-72.633.2-11.662,7.778-20.869,16.785-20.665s16.171,9.821,15.966,21.483C392.247,184.95,385.083,244.079,385.7,247.148Z" transform="translate(-204.054 -44.512)"/>
              <path id="Path_5906" data-name="Path 5906" class="cls-8" d="M384.363,279.68a38.427,38.427,0,0,0-1.433-12.89c-3.275-12.276-3.275-25.166-2.047-37.851a16.529,16.529,0,0,0,.2-3.274c.819-16.573-8.188-31.713-21.083-41.124-.2-3.478-.2-6.138-.2-7.775.2-11.662,7.778-20.869,16.785-20.665s16.171,9.821,15.966,21.483c-.2,7.366-7.369,66.495-6.96,69.564.819,6.343,1.023,47.467-.409,68.132h-8.188c-.614-2.455-1.023-5.115-1.638-7.775A54.119,54.119,0,0,0,384.363,279.68Z" transform="translate(-204.152 -44.512)"/>
              <path id="Path_5907" data-name="Path 5907" class="cls-3" d="M394.751,237.739v16.777l1.433,8.184a2.269,2.269,0,0,1-2.252,2.66c-6.755.2-24.358.614-24.768,0-2.252-3.478,7.778-4.91,15.147-7.775s2.252-30.485,2.252-30.485Z" transform="translate(-194.686 29.755)"/>
              <path id="Path_5908" data-name="Path 5908" class="cls-9" d="M384.212,242h0a19.025,19.025,0,0,0,5.936,1.023,13.447,13.447,0,0,0,5.117-.818l.819,4.91a2.269,2.269,0,0,1-2.252,2.66c-6.755.2-24.358.614-24.768,0C366.813,246.3,376.843,244.864,384.212,242Z" transform="translate(-194.79 45.34)"/>
              <path id="Path_5909" data-name="Path 5909" class="cls-7" d="M369.5,176.866c-.2,11.662,4.3,85.318,13.3,85.522s17.194-73.451,17.4-85.113-4.913-20.869-13.919-21.074S369.708,165.2,369.5,176.866Z" transform="translate(-194.001 -44.408)"/>
              <path id="Path_5910" data-name="Path 5910" class="cls-8" d="M396.338,247.148c.819,6.343,1.023,47.467-.409,68.132h-8.188c-4.5-20.255-9.211-59.334-10.03-65.676v-.2c-4.913-21.688-9.211-64.244-9.211-72.837.2-11.662,9.825-20.665,18.832-20.46s14.124,9.616,13.919,21.074C401.046,184.746,395.928,244.079,396.338,247.148Z" transform="translate(-195.044 -44.512)"/>
              <path id="Path_5911" data-name="Path 5911" class="cls-10" d="M371.228,123.2h4.3a10.781,10.781,0,0,0,19.65,0h4.094a7.649,7.649,0,0,1,7.574,7.366c.2,10.639,1.023,31.1,2.252,49.718,1.023,16.777,5.731,32.327,2.456,37.032,0,0-42.576-3.478-49.945-12.071-6.345-7.366-2.456-21.892-1.228-36.623s2.456-29.871,3.275-38.465A7.586,7.586,0,0,1,371.228,123.2Z" transform="translate(-205.96 -78.924)"/>
              <path id="Path_5912" data-name="Path 5912" class="cls-4" d="M401.8,147.343a44.578,44.578,0,0,0-5.936-24.143h3.07a7.649,7.649,0,0,1,7.574,7.366c.2,10.639,1.023,31.1,2.252,49.718,1.023,16.777,5.731,32.327,2.456,37.032,0,0-42.576-3.478-49.945-12.071a13.473,13.473,0,0,1-3.07-7.161C383.172,194.2,400.776,172.508,401.8,147.343Z" transform="translate(-205.827 -78.924)"/>
              <path id="Path_5913" data-name="Path 5913" class="cls-11" d="M372,127.186l.409.2a7.352,7.352,0,0,0,8.6-5.524l2.252-10.23L375.684,110Z" transform="translate(-191.38 -92.731)"/>
              <g id="Group_3706" data-name="Group 3706" transform="translate(174.07 30.159)">
                <path id="Path_5914" data-name="Path 5914" class="cls-5" d="M368.8,130.417h14.124L378.83,116.3l-9.621,1.228Z" transform="translate(-368.8 -116.3)"/>
              </g>
              <path id="Path_5915" data-name="Path 5915" class="cls-3" d="M369.209,117.528l9.62-1.228,1.842,6.547c-2.252,2.455-5.322,6.138-8.8,6.138a8.581,8.581,0,0,1-3.07-.818Z" transform="translate(-194.73 -86.141)"/>
              <path id="Path_5916" data-name="Path 5916" class="cls-5" d="M370.839,133.784h0a11.892,11.892,0,0,0,14.124-9l2.866-12.685-19.65-4.3s-2.252,10.025-2.252,16.982C365.517,130.1,367.564,133.17,370.839,133.784Z" transform="translate(-197.793 -95.032)"/>
              <rect id="Rectangle_5056" data-name="Rectangle 5056" class="cls-12" width="3.889" height="1.636" transform="matrix(-0.976, -0.217, 0.217, -0.976, 189.282, 23.847)"/>
              <path id="Path_5917" data-name="Path 5917" class="cls-5" d="M373.806,116.617c-.614,2.455.2,4.706,1.637,5.115s3.889-2.66,4.3-5.115c.614-2.455-.819-3.683-2.456-3.887C376.057,112.32,374.42,114.161,373.806,116.617Z" transform="translate(-189.706 -89.936)"/>
              <path id="Path_5918" data-name="Path 5918" class="cls-11" d="M365.627,115.112a9.976,9.976,0,0,1,.819-4.91h0c1.637-3.887,5.936-5.524,10.03-4.3.409.2.819.2,1.228.409l6.55,1.432a7.15,7.15,0,0,1,5.527,8.8l-.409,1.637-3.889,2.251-1.637,2.864h-.2a2.414,2.414,0,0,1-1.842-2.864,3.624,3.624,0,0,0-2.866-4.5L373,114.7c-3.684-.818-5.936.614-6.55,3.478l-.409,2.251Z" transform="translate(-198.107 -97.434)"/>
              <g id="Group_3707" data-name="Group 3707" transform="translate(105.703 93.585)">
                <line id="Line_568" data-name="Line 568" class="cls-13" x2="97.228" y2="540.142" transform="translate(80.648)"/>
                <line id="Line_569" data-name="Line 569" class="cls-13" x1="97.023" y1="540.142"/>
                <line id="Line_570" data-name="Line 570" class="cls-13" x2="79.011" transform="translate(6.345 23.938)"/>
                <line id="Line_571" data-name="Line 571" class="cls-13" x2="80.034" transform="translate(11.667 60.152)"/>
                <line id="Line_572" data-name="Line 572" class="cls-13" x2="79.215" transform="translate(19.036 96.366)"/>
                <line id="Line_573" data-name="Line 573" class="cls-13" x2="78.806" transform="translate(25.996 132.376)"/>
                <line id="Line_574" data-name="Line 574" class="cls-13" x2="79.829" transform="translate(30.294 168.59)"/>
                <line id="Line_575" data-name="Line 575" class="cls-13" x2="80.853" transform="translate(35.821 203.985)"/>
                <line id="Line_576" data-name="Line 576" class="cls-13" x2="79.625" transform="translate(44.008 240.813)"/>
                <line id="Line_577" data-name="Line 577" class="cls-13" x2="79.829" transform="translate(50.354 277.027)"/>
                <line id="Line_578" data-name="Line 578" class="cls-13" x2="79.829" transform="translate(56.904 311.195)"/>
                <line id="Line_579" data-name="Line 579" class="cls-13" x2="80.034" transform="translate(62.226 345.363)"/>
                <line id="Line_580" data-name="Line 580" class="cls-13" x2="79.829" transform="translate(68.571 379.531)"/>
                <line id="Line_581" data-name="Line 581" class="cls-13" x2="79.829" transform="translate(74.712 413.699)"/>
                <line id="Line_582" data-name="Line 582" class="cls-13" x2="79.829" transform="translate(80.648 447.867)"/>
                <line id="Line_583" data-name="Line 583" class="cls-13" x2="79.829" transform="translate(87.608 482.036)"/>
              </g>
              <g id="Group_3708" data-name="Group 3708" transform="translate(2.126 93.585)">
                <path id="Path_6693" data-name="Path 6693" class="cls-14" d="M98.044,0,7.848,498.018,0,541.369" transform="translate(5.534)"/>
                <path id="Path_6694" data-name="Path 6694" class="cls-14" d="M0,541.369,97.842,0" transform="translate(86.383)"/>
                <line id="Line_586" data-name="Line 586" class="cls-15" x1="78.806" transform="translate(99.074 23.938)"/>
                <line id="Line_587" data-name="Line 587" class="cls-15" x1="80.034" transform="translate(92.524 60.152)"/>
                <line id="Line_588" data-name="Line 588" class="cls-15" x1="79.42" transform="translate(85.974 96.366)"/>
                <line id="Line_589" data-name="Line 589" class="cls-16" x1="78.806" transform="translate(79.424 132.376)"/>
                <line id="Line_590" data-name="Line 590" class="cls-16" x1="79.625" transform="translate(72.874 168.59)"/>
                <line id="Line_591" data-name="Line 591" class="cls-16" x1="80.853" transform="translate(66.324 203.985)"/>
                <line id="Line_592" data-name="Line 592" class="cls-16" x1="79.829" transform="translate(59.569 240.813)"/>
                <line id="Line_593" data-name="Line 593" class="cls-16" x1="79.829" transform="translate(54.042 277.027)"/>
                <line id="Line_594" data-name="Line 594" class="cls-16" x1="79.829" transform="translate(47.902 317.538)"/>
                <line id="Line_595" data-name="Line 595" class="cls-16" x1="79.829" transform="translate(38.486 358.048)"/>
                <line id="Line_596" data-name="Line 596" class="cls-16" x1="80.034" transform="translate(31.526 398.764)"/>
                <line id="Line_597" data-name="Line 597" class="cls-16" x1="80.034" transform="translate(24.976 439.274)"/>
                <line id="Line_598" data-name="Line 598" class="cls-15" x1="79.829" transform="translate(16.584 480.194)"/>
              </g>
              <path id="Path_5919" data-name="Path 5919" class="cls-11" d="M387.357,110.24c.409,3.683-12.691,8.184-16.171,8.593a6.716,6.716,0,0,1-7.164-5.729,6.518,6.518,0,0,1,5.527-7.366C373.029,105.329,386.743,106.557,387.357,110.24Z" transform="translate(-199.778 -97.267)"/>
              <path id="Path_5920" data-name="Path 5920" class="cls-17" d="M290.188,120.056a8.007,8.007,0,0,0-6.345,9l7.164,40.306,2.661-.409a15.659,15.659,0,1,1,16.989,21.892,15.284,15.284,0,0,1-13.714-4.3l-2.661.409,7.983,44.6a8.01,8.01,0,0,0,9.006,6.343l40.324-7.161-.409-2.864a15.658,15.658,0,1,1,21.9-16.982,15.268,15.268,0,0,1-4.3,13.708l.409,2.864,44.622-7.979a8.007,8.007,0,0,0,6.345-9l-18.217-102.5a8.01,8.01,0,0,0-9.006-6.343Z" transform="translate(-283.76 -101.56)"/>
              <path id="Path_5921" data-name="Path 5921" class="cls-5" d="M434.705,136.847c-4.3,5.933-11.872,13.708-20.674,20.46-27.224,19.846-56.495,21.892-80.239-.614a2.354,2.354,0,0,1,0-3.478,2.482,2.482,0,0,1,3.07-.409h.2c15.556,9,29.475,12.685,46.874,5.32,22.925-9.821,39.3-33.759,37.458-31.508a8.493,8.493,0,0,1,11.872-1.637A9.072,9.072,0,0,1,434.705,136.847Z" transform="translate(-232.183 -78.863)"/>
              <g id="Group_3709" data-name="Group 3709" transform="translate(176.286 44.158)">
                <path id="Path_5922" data-name="Path 5922" class="cls-4" d="M369.918,140.447c5.731-5.115,12.9-15.14,12.9-15.14s3.48-4.092,10.439-1.023c5.731,2.455,4.5,9,4.5,9-.2,1.023-2.047,11.867-14.942,21.688C382.814,154.769,369.1,141.265,369.918,140.447Z" transform="translate(-369.883 -123.142)"/>
              </g>
              <path id="Path_5923" data-name="Path 5923" class="cls-5" d="M345.13,144.279c-1.842-2.251-2.456-9.821-3.48-9.821-.819,0-.819,2.66-.819,4.092a.714.714,0,0,1-.2.409h-.409c-2.047-1.841-8.188-6.956-8.8-6.547s2.456,4.3,3.684,5.729v.2h-.2c-1.637-.818-7.164-3.478-7.164-2.455-.2,1.023,4.708,4.092,6.55,5.32v.2h-.2c-2.047-.614-7.369-2.046-7.574-1.228-.2,1.023,5.117,3.274,6.959,3.887v.2h-.2c-1.842-.2-6.55-.409-5.731.2.819.818,12.281,4.706,14.738,4.706S345.13,144.279,345.13,144.279Z" transform="translate(-239.017 -69.313)"/>
            </g>
            <path id="Path_6670" data-name="Path 6670" class="cls-18" d="M0,0H539.769V328.382H0Z" transform="translate(76.486 206.066)"/>
            <path id="Path_6695" data-name="Path 6695" class="cls-2" d="M0,0H485.117V279.073H0Z" transform="translate(103.71 230.618)"/>
            <g id="Group_3715" data-name="Group 3715" transform="translate(0 315.523)">
              <path id="Path_5924" data-name="Path 5924" class="cls-5" d="M107.125,385.3s-11.053,12.685-13.1,14.731c-1.638,1.637-4.094,2.251-6.345,2.864a8.564,8.564,0,0,0-2.456,1.637,2.518,2.518,0,0,0-1.023,2.046c.2,14.322,12.691,24.347,13.51,23.529,1.228-1.432.2-5.729-2.047-8.389a10.343,10.343,0,0,1-1.842-10.23h0a17.122,17.122,0,0,1,4.5-7.366l9.62-9Z" transform="translate(-79.332 -117.825)"/>
              <path id="Path_5925" data-name="Path 5925" class="cls-19" d="M84.561,416.62H265.712a2.709,2.709,0,0,0,2.661-2.66h0a2.709,2.709,0,0,0-2.661-2.66H84.561a2.709,2.709,0,0,0-2.661,2.66h0A2.709,2.709,0,0,0,84.561,416.62Z" transform="translate(-81.739 -90.63)"/>
              <path id="Path_5926" data-name="Path 5926" class="cls-5" d="M150.7,397.338l8.8,14.731A22.483,22.483,0,0,1,162.367,427h0a4.986,4.986,0,0,0,4.5,5.729c9.416.2,27.838.614,28.452-.2,2.661-4.5-9.006-6.343-18.013-9.412-6.141-2.046-13.714-18.823-18.422-31.918l-7.164,4.5A1.533,1.533,0,0,0,150.7,397.338Z" transform="translate(-9.712 -111.654)"/>
              <path id="Path_5927" data-name="Path 5927" class="cls-11" d="M171.492,410.246a53.417,53.417,0,0,0,11.463-1.637h1.228c4.3,1.432,6.755,3.683,5.322,5.933-.614,1.023-22.107.409-30.7.2a2.744,2.744,0,0,1-2.661-3.478l.614-3.069A60.915,60.915,0,0,0,171.492,410.246Z" transform="translate(-4.099 -93.872)"/>
              <path id="Path_5928" data-name="Path 5928" class="cls-20" d="M177.671,313.063c-9.825-2.046-21.288,5.933-23.949,18.618-1.433,7.161-3.48,33.964-3.275,55.856a23.639,23.639,0,0,1-11.053,20.869,18.546,18.546,0,0,0-3.275,2.251c-4.708,4.3-27.224,32.327-41.143,51.354-.409,3.069,0,7.161,1.638,9C114.626,456.9,144.92,430.5,150.037,425.8c2.866-2.66,5.936-5.729,8.6-8.593,11.053-7.366,28.861-63.835,31.318-75.292C192.408,329.636,187.291,315.109,177.671,313.063Z" transform="translate(-68.205 -193.718)"/>
              <ellipse id="Ellipse_861" data-name="Ellipse 861" class="cls-10" cx="15.147" cy="19.642" rx="15.147" ry="19.642" transform="translate(88.178 18.478)"/>
              <path id="Path_5929" data-name="Path 5929" class="cls-10" d="M164.795,284.682a21.121,21.121,0,0,0-19.855-20.46,20.78,20.78,0,0,0-20.878,13.708,7.154,7.154,0,0,1-7.164,4.706,14.629,14.629,0,0,0-4.094.409,18.907,18.907,0,0,0-14.942,16.368,18.4,18.4,0,0,0,8.188,17.391,10.7,10.7,0,0,1,4.094,6.956,24.529,24.529,0,1,0,42.576-19.846A20.329,20.329,0,0,0,164.795,284.682Z" transform="translate(-65.154 -244.517)"/>
              <path id="Path_5930" data-name="Path 5930" class="cls-21" d="M236.839,297.394a9.073,9.073,0,0,0-9.416,3.683h-2.252V280.207a6.9,6.9,0,0,0-6.959-6.956H194.877V271a9.065,9.065,0,0,0,3.684-9.412,8.9,8.9,0,0,0-17.6,2.046A8.672,8.672,0,0,0,184.847,271v2.251H163.559a6.9,6.9,0,0,0-6.959,6.956v20.869h1.638a9.072,9.072,0,0,1,9.416-3.683,8.9,8.9,0,0,1-2.047,17.6,8.678,8.678,0,0,1-7.369-3.887H156.6v23.324a6.9,6.9,0,0,0,6.959,6.956h20.878v-1.637a9.065,9.065,0,0,1-3.684-9.412,8.9,8.9,0,0,1,17.6,2.046,8.672,8.672,0,0,1-3.889,7.366v1.637H217.8a6.9,6.9,0,0,0,6.959-6.956V311.1h2.252a9.2,9.2,0,0,0,7.369,3.887,8.989,8.989,0,0,0,8.8-11.048A8.319,8.319,0,0,0,236.839,297.394Z" transform="translate(-3.536 -254.569)"/>
              <path id="Path_5931" data-name="Path 5931" class="cls-10" d="M132.3,262.91s8.6,5.32,7.574,12.685c0,0,4.5-3.274,5.527-14.322C146.014,253.5,132.3,262.91,132.3,262.91Z" transform="translate(-28.975 -250.775)"/>
              <g id="Group_3712" data-name="Group 3712" transform="translate(105.364 35.049)">
                <path id="Path_5932" data-name="Path 5932" class="cls-5" d="M151.726,292.775a56.3,56.3,0,0,0,.409,10.23,33.444,33.444,0,0,0,2.456,9.412,17.842,17.842,0,0,0,1.842,3.478,12.534,12.534,0,0,0,1.023,1.228c-.2,0-.2.409.614,0,.409,0,.819-.409,1.228-.818s1.023-.818,1.638-1.432a40.177,40.177,0,0,0,6.141-8.593c1.842-3.274,3.48-6.752,5.117-10.435,3.07-7.161,5.731-14.731,8.188-22.3h0a2.444,2.444,0,0,1,3.275-1.637,2.655,2.655,0,0,1,1.842,2.864,200.013,200.013,0,0,1-4.5,24.143c-.409,2.046-1.023,4.092-1.638,6.138s-1.228,4.092-2.047,6.138a49.053,49.053,0,0,1-6.345,12.071l-2.456,3.069a16.258,16.258,0,0,1-3.48,2.864l-1.023.614-1.228.614a10.138,10.138,0,0,1-2.661.818,14.5,14.5,0,0,1-5.936,0,17.477,17.477,0,0,1-9.006-5.115,28.837,28.837,0,0,1-4.913-6.547c-4.708-8.8-6.55-17.8-6.959-27.007h0a9.327,9.327,0,0,1,18.627-1.023A3.6,3.6,0,0,0,151.726,292.775Z" transform="translate(-133.296 -271.699)"/>
              </g>
              <path id="Path_5933" data-name="Path 5933" class="cls-5" d="M156.372,324.358c3.48-10.23,10.235-32.122,9.62-39.078a8.727,8.727,0,0,0-8.8-7.979H127.51a8.91,8.91,0,0,0-9.006,8.8c-.2,8.593,3.684,28.235,5.936,38.465h31.932Z" transform="translate(-43.427 -230.792)"/>
              <path id="Path_5934" data-name="Path 5934" class="cls-5" d="M155.057,333.87c3.48,12.276,31.113,99.844,21.492,102.5s-61.612-82.863-62.431-95.548c-.614-12.071,6.345-25.166,15.966-27.826C139.91,310.341,151.578,321.594,155.057,333.87Z" transform="translate(-48.048 -193.861)"/>
              <path id="Path_5935" data-name="Path 5935" class="cls-8" d="M197.938,476.576a1.26,1.26,0,0,0,.2-1.432c-7.369-20.46-17.4-46.444-19.446-51.354a6.124,6.124,0,0,0-.819-1.637c-3.684-25.984-20.264-78.771-22.925-88.182-3.48-12.276-15.147-23.529-24.768-20.869s-16.58,15.754-15.966,27.825c.409,7.979,21.083,44.4,38.687,69.973a43.319,43.319,0,0,1,7.164,18,56.534,56.534,0,0,0,3.48,12.071c2.047,4.91,14.328,23.324,25.382,38.874.409.409.819.818,1.433.614A10.605,10.605,0,0,0,197.938,476.576Z" transform="translate(-47.944 -193.756)"/>
              <path id="Path_5936" data-name="Path 5936" class="cls-11" d="M123.783,337.452a27.613,27.613,0,0,0,1.433-13.5c-1.433-10.435-4.094-30.281-3.889-38.669a8.349,8.349,0,0,1,8.392-7.979h4.5a11.274,11.274,0,0,0,10.849,6.956,10.987,10.987,0,0,0,10.644-6.956h4.094c-4.5,9.616-2.866,22.3,4.913,29.667-1.433,5.115-2.661,10.23-3.48,14.322a29.423,29.423,0,0,0,1.433,16.777c3.889,9,6.755,23.734,5.936,29.462-31.318,8.8-52.81-6.752-52.81-6.752Z" transform="translate(-46.249 -230.792)"/>
              <path id="Path_5937" data-name="Path 5937" class="cls-22" d="M158.105,313.339a46.021,46.021,0,0,1,1.023-4.5,78.356,78.356,0,0,1-13.3-4.5C136.817,300.45,125.15,293.9,118.6,284.9c.2,2.66.409,5.32.819,8.389,3.275,7.57,6.55,14.731,12.9,20.255,7.574,6.752,16.785,11.253,26.405,14.117A28.372,28.372,0,0,1,158.105,313.339Z" transform="translate(-43.318 -222.843)"/>
              <g id="Group_3713" data-name="Group 3713" transform="translate(89.815 32.39)">
                <path id="Path_5938" data-name="Path 5938" class="cls-5" d="M139.21,286.563l-13.51-1.432L130,270.4l8.8,1.023Z" transform="translate(-125.7 -270.4)"/>
              </g>
              <path id="Path_5939" data-name="Path 5939" class="cls-3" d="M137.23,271.423l-8.8-1.023-1.228,4.5c2.047,2.251,4.5,6.956,7.574,6.956a4.115,4.115,0,0,0,2.661-.818Z" transform="translate(-34.315 -238.01)"/>
              <path id="Path_5940" data-name="Path 5940" class="cls-5" d="M139.947,288.835c-2.866,0-6.141-1.432-10.644-5.32-2.456-2.251-4.5-6.138-4.5-8.593V260.6h22.107a40.507,40.507,0,0,1,0,15.14C146.088,281.265,142.4,288.835,139.947,288.835Z" transform="translate(-36.827 -248.26)"/>
              <path id="Path_5941" data-name="Path 5941" class="cls-5" d="M130.05,268.815c0,2.864-1.433,5.115-3.07,5.115s-3.48-3.683-3.48-6.547,1.842-3.683,3.48-3.683C128.822,263.7,130.05,265.951,130.05,268.815Z" transform="translate(-38.188 -245.018)"/>
              <path id="Path_5942" data-name="Path 5942" class="cls-10" d="M123.6,266.842a8.21,8.21,0,0,1,8.188-8.184h7.574a11.745,11.745,0,0,0,5.936-1.637,5.994,5.994,0,0,1,7.778,1.432c2.047,2.66,2.866,6.138-2.047,9.412-2.456,1.637-6.141-.2-8.392.614h-6.959a4.1,4.1,0,0,0-4.094,4.092,2.709,2.709,0,0,1-2.661,2.66h-.2l-1.023-3.478-3.684,4.91v-9.821Z" transform="translate(-38.083 -252.865)"/>
              <path id="Path_5943" data-name="Path 5943" class="cls-5" d="M164.127,276.042s1.637,7.57-.614,8.8-3.889,1.637-5.731-1.432a29.325,29.325,0,0,1-3.275-11.458c-.2-3.274,2.047-8.8,2.661-9.207,2.252-1.637,1.842,4.3,1.638,7.161,0,2.864,0,6.138,1.433,5.729s1.228-5.933,2.661-6.752S164.127,276.042,164.127,276.042Z" transform="translate(-5.741 -246.312)"/>
              <path id="Path_5944" data-name="Path 5944" class="cls-5" d="M180.263,294.771s-7.778-1.228-8.8,1.023c-1.228,2.251-1.638,3.887,1.638,5.729a24.285,24.285,0,0,0,11.667,2.66c3.275,0,8.6-2.455,9.006-3.069,1.433-2.251-4.3-1.637-7.164-1.432s-6.141.2-5.731-1.228c.2-1.432,5.731-1.432,6.755-2.864C188.246,294.157,180.263,294.771,180.263,294.771Z" transform="translate(11.078 -212.868)"/>
              <path id="Path_5945" data-name="Path 5945" class="cls-10" d="M149.243,263.538c-.819,3.274.409,5.115-10.439,10.23s-14.124,2.864-17.6,8.389c0,0,1.433-9.207,7.369-12.276s16.375-5.115,19.65-12.48C148.424,257.4,149.857,261.287,149.243,263.538Z" transform="translate(-40.596 -251.608)"/>
              <g id="Group_3714" data-name="Group 3714" transform="translate(72.097 46.645)">
                <path id="Path_5946" data-name="Path 5946" class="cls-5" d="M134.967,285.414v0l.2.2c.2.409.2.614.409,1.023a23.99,23.99,0,0,1,1.023,2.251c.409.614.819,1.432,1.433,2.251a14.333,14.333,0,0,1,1.637,2.046c1.433,1.228,2.456,2.864,4.094,3.887l2.252,1.841,2.661,1.637c7.164,4.3,15.761,7.161,24.768,9.412,2.252.409,4.5.818,6.959,1.228,2.252.409,4.5.818,6.959,1.023l7.164.614,3.48.409,3.684.2,7.164.409c2.456.2,4.913.2,7.164.2h14.738a2.709,2.709,0,0,1,2.661,2.66,3.111,3.111,0,0,1-2.047,2.66c-4.913,1.023-9.825,1.841-14.533,2.864a45.59,45.59,0,0,1-7.369,1.023l-7.369.818-3.684.409-3.684.2-7.574.2a46.851,46.851,0,0,1-7.574-.2c-2.661-.2-5.117-.2-7.778-.409-10.235-1.228-20.878-3.274-30.908-8.389l-3.684-2.046-3.684-2.455a58.908,58.908,0,0,1-6.755-5.729c-1.023-1.228-2.047-2.251-3.07-3.478a43.818,43.818,0,0,1-2.661-3.887,43.283,43.283,0,0,1-2.252-4.3l-.819-2.455-.409-1.432-.2-.818-.2-1.228a9.426,9.426,0,0,1,7.778-10.639C129.44,276.82,134.352,280.5,134.967,285.414Z" transform="translate(-117.044 -277.367)"/>
              </g>
              <path id="Path_5947" data-name="Path 5947" class="cls-10" d="M133.919,261.931s.409,11.048,10.03,16.368c0,0-4.3-8.389-3.889-13.913S133.305,258.044,133.919,261.931Z" transform="translate(-27.319 -249.387)"/>
              <path id="Path_5948" data-name="Path 5948" class="cls-11" d="M81.982,399.592a2.042,2.042,0,0,1,.819-2.455c.614-.409,2.456-1.637,3.889-2.455a.919.919,0,0,1,1.433.818c.819,7.979,4.5,15.14,11.258,18.618,1.842,2.251,2.047,6.343,1.023,7.57-.2.2-3.48-.818-5.936-3.887C82.6,404.3,81.982,399.592,81.982,399.592Z" transform="translate(-81.822 -108.18)"/>
            </g>
            <g id="Group_3719" data-name="Group 3719" transform="translate(413.84 327.126)">
              <path id="Path_5949" data-name="Path 5949" class="cls-5" d="M443.828,379.838c-.409,0-.819-.2-1.433-.2a21.056,21.056,0,0,0-3.684-.2,11.076,11.076,0,0,1-6.141-1.228l-7.778-3.887a3.945,3.945,0,0,0-5.322,5.115h0c.2.2.409.614.614.614l9.211,4.092a19.771,19.771,0,0,1,6.959,5.32l2.661,3.274C444.442,389.249,443.828,382.907,443.828,379.838Z" transform="translate(-142.523 -143.825)"/>
              <path id="Path_5950" data-name="Path 5950" class="cls-23" d="M430.961,404.047c.409-4.5-1.638-11.867-2.661-14.322a16.016,16.016,0,0,0,1.023-13.3,10.875,10.875,0,0,1,3.684.2c1.433.409,4.913.818,6.345,1.023a1.993,1.993,0,0,1,1.638,2.046s-4.5,31.917-5.322,31.3C433.827,410.185,430.552,407.73,430.961,404.047Z" transform="translate(-132.931 -141.231)"/>
              <path id="Path_5951" data-name="Path 5951" class="cls-19" d="M286.661,417.72H399.65a2.709,2.709,0,0,0,2.661-2.66h0a2.709,2.709,0,0,0-2.661-2.66H286.661A2.709,2.709,0,0,0,284,415.06h0A2.709,2.709,0,0,0,286.661,417.72Z" transform="translate(-284 -103.55)"/>
              <path id="Path_5952" data-name="Path 5952" class="cls-19" d="M376.866,417.929H499.68a2.8,2.8,0,0,0,2.866-2.864h0a2.8,2.8,0,0,0-2.866-2.864H376.866A2.8,2.8,0,0,0,374,415.064h0A2.8,2.8,0,0,0,376.866,417.929Z" transform="translate(-189.778 -103.759)"/>
              <path id="Path_5953" data-name="Path 5953" class="cls-24" d="M356.71,369.219c-2.456,9.821-19.855,86.955-16.375,86.955,3.07,0,34.8-72.019,37.254-81.84s-.2-18.823-5.936-20.46C365.716,352.646,359.166,359.4,356.71,369.219Z" transform="translate(-225.503 -164.918)"/>
              <path id="Path_5954" data-name="Path 5954" class="cls-24" d="M386.635,328.168c-8.392,10.23-45.851,77.134-37.868,83.681s59.974-48.9,68.367-59.129,7.164-24.757-.819-31.3C408.332,315.073,395.027,317.938,386.635,328.168Z" transform="translate(-217.356 -202.229)"/>
              <path id="Path_5955" data-name="Path 5955" class="cls-5" d="M349.319,421.674v-1.432a22.538,22.538,0,0,0-.409-3.683,12.481,12.481,0,0,1,.2-6.138l2.661-8.184a3.955,3.955,0,0,0-5.936-4.5h0a2.822,2.822,0,0,0-.614.818l-2.661,9.821a18.682,18.682,0,0,1-4.3,7.57l-2.866,3.069C339.9,423.516,346.044,421.879,349.319,421.674Z" transform="translate(-230.189 -119.576)"/>
              <path id="Path_5956" data-name="Path 5956" class="cls-23" d="M332.15,412.329c4.5-.2,11.463-3.274,13.714-4.706a16.58,16.58,0,0,0,13.3-1.023,22.533,22.533,0,0,1,.409,3.683c0,1.432-.2,4.91-.2,6.343a1.834,1.834,0,0,1-1.842,1.841s-32.341.409-31.727-.818C326.623,416.012,328.465,412.533,332.15,412.329Z" transform="translate(-240.244 -109.616)"/>
              <path id="Path_5957" data-name="Path 5957" class="cls-11" d="M377.987,411.79c-1.433,6.138-20.469,52.991-30.7,74.883-3.07-1.228-4.708-1.023-7.983-2.046,4.094-20.46,11.053-66.495,13.51-76.315,1.023-13.708,34.8-70.587,42.576-80,8.392-10.23,21.7-13.3,29.475-6.752,7.983,6.547,9.211,21.074.819,31.3C420.357,359.413,379.01,407.7,377.987,411.79Z" transform="translate(-226.106 -202.171)"/>
              <path id="Path_5958" data-name="Path 5958" class="cls-22" d="M397.636,321.562c-7.983-6.547-21.083-3.478-29.475,6.752-.614.818-1.637,2.046-2.661,3.478,7.574,15.14,10.234,31.713,9.825,48.695,10.439-12.481,20.674-24.552,23.13-27.621C406.848,342.431,405.619,327.9,397.636,321.562Z" transform="translate(-198.677 -202.171)"/>
              <path id="Path_5959" data-name="Path 5959" class="cls-11" d="M380.512,415.249h0a8.545,8.545,0,0,1-.819-2.046c-5.527-16.573-4.094-76.725-2.252-89a30.78,30.78,0,0,1,2.661-9l17.808,9.616a64.77,64.77,0,0,0,15.761,13.094c.819.614-.2-1.841.614-1.432-2.661,15.754-5.936,47.262-7.164,63.017a8.432,8.432,0,0,0,5.117,8.389c16.58,6.956,46.26,20.46,62.84,29.462l-.614,9.412c-24.153-5.115-72.256-19.437-79.625-21.483C388.086,423.433,382.764,419.341,380.512,415.249Z" transform="translate(-187.898 -205.22)"/>
              <g id="Group_3716" data-name="Group 3716" transform="translate(94.052 48.184)">
                <path id="Path_5960" data-name="Path 5960" class="cls-3" d="M413.772,294.824c0,1.023-.2,1.432-.2,2.251,0,.614-.2,1.228-.2,1.841-.2,1.228-.409,2.455-.614,3.478-.614,2.251-1.228,4.5-2.047,6.752a53.347,53.347,0,0,1-6.55,12.685,47.919,47.919,0,0,1-21.9,17.391,50.378,50.378,0,0,1-12.9,3.478,68.115,68.115,0,0,1-12.9.614,123.214,123.214,0,0,1-24.563-4.092,2.754,2.754,0,0,1-1.842-3.478,3.078,3.078,0,0,1,2.866-2.046h0a124.641,124.641,0,0,0,23.13-.2c7.369-1.023,14.533-2.864,20.469-6.547a33.424,33.424,0,0,0,13.3-13.913,45.04,45.04,0,0,0,3.48-9.207,40.933,40.933,0,0,0,.819-4.91,9.956,9.956,0,0,0,.2-2.455v-2.046A9.432,9.432,0,0,1,403.947,285,9.958,9.958,0,0,1,413.772,294.824Z" transform="translate(-329.949 -284.996)"/>
              </g>
              <path id="Path_5961" data-name="Path 5961" class="cls-25" d="M356.5,311.072c1.637-3.478,7.983-17.391,8.8-20.665v-.2c0-.2.2-.614.2-.818a9.58,9.58,0,0,1,18.217,5.933c-1.638,4.706-3.275,8.593-5.117,12.89a78.635,78.635,0,0,1-4.3,8.184C373.08,315.164,356.5,311.072,356.5,311.072Z" transform="translate(-208.099 -239.147)"/>
              <path id="Path_5962" data-name="Path 5962" class="cls-5" d="M372.773,377.26c7.838,6.411,40.4,5.209,52.655,4.408a5.183,5.183,0,0,0,4.823-6.011c-1.206-7.613-6.632-20.837-9.848-34.461-4.622-19.835-9.044-41.674-11.456-53.495a9.132,9.132,0,0,0-10.651-7.213L368.553,285.3a8.8,8.8,0,0,0-7.436,9.417c.8,9.617,2.211,26.247,3.417,42.475C366.141,353.818,364.534,370.448,372.773,377.26Z" transform="translate(-203.301 -241.712)"/>
              <path id="Path_5963" data-name="Path 5963" class="cls-17" d="M368.5,285.587l4.913-.818a11.377,11.377,0,0,0,12.077,5.115c5.731-1.023,8.8-4.5,9.825-8.8l4.5-.818a8.534,8.534,0,0,1,9.825,6.752c2.252,11.867,8.811,34.508,13.519,55.173,3.275,14.117,8.1,26.986,9.329,34.965.409,3.069-2.993,6.432-6.064,6.637-12.486.818-45.441,2.046-53.424-4.5-8.6-6.956-6.755-23.938-8.188-40.92-1.433-16.777-2.661-33.964-3.48-43.58C360.724,290.5,364,286.406,368.5,285.587Z" transform="translate(-204.346 -241.897)"/>
              <path id="Path_5964" data-name="Path 5964" class="cls-8" d="M375.427,285.887l.614-.2a8.1,8.1,0,0,0,5.527-10.025L378.292,264.2l-8.392,2.455Z" transform="translate(-194.071 -258.566)"/>
              <g id="Group_3717" data-name="Group 3717" transform="translate(171.121 25.276)">
                <path id="Path_5965" data-name="Path 5965" class="cls-5" d="M371.08,292.214l14.533-1.023.614-2.046-8.6-15.345-10.03,4.3Z" transform="translate(-367.6 -273.8)"/>
              </g>
              <path id="Path_5966" data-name="Path 5966" class="cls-3" d="M367.6,278.1l10.235-4.3,3.48,6.138c-1.637,3.274-3.48,6.956-7.369,8.184a7.475,7.475,0,0,1-3.684,0Z" transform="translate(-196.479 -248.524)"/>
              <path id="Path_5967" data-name="Path 5967" class="cls-5" d="M378.689,294.795h0a13.349,13.349,0,0,0,9.211-16.573L383.807,263.9,361.7,270.243s3.275,11.253,6.96,18.209C371.525,293.772,375.21,295.818,378.689,294.795Z" transform="translate(-202.655 -258.879)"/>
              <rect id="Rectangle_5063" data-name="Rectangle 5063" class="cls-8" width="4.299" height="2.047" transform="translate(184.427 12.06) rotate(163.99)"/>
              <path id="Path_5968" data-name="Path 5968" class="cls-5" d="M372.482,273.1c.819,2.864,2.866,4.706,4.5,4.3s2.456-4.706,1.638-7.366a3.524,3.524,0,0,0-4.5-2.66C372.277,267.574,371.663,270.234,372.482,273.1Z" transform="translate(-191.74 -255.393)"/>
              <path id="Path_5969" data-name="Path 5969" class="cls-8" d="M363.132,279.152a12.723,12.723,0,0,1-1.842-5.32s-1.842-6.343.2-8.389c2.047-1.841,6.345-1.432,8.8-1.637a63.867,63.867,0,0,0,7.369-2.046A8.4,8.4,0,0,1,388.1,267.49l.409,1.637-2.661,4.5v3.683h-.2a3.037,3.037,0,0,1-3.48-1.637,4.432,4.432,0,0,0-5.322-3.069l-6.55,1.841c-4.094,1.228-5.527,3.887-4.708,6.956l1.023,2.455Z" transform="translate(-203.882 -261.446)"/>
              <path id="Path_5970" data-name="Path 5970" class="cls-10" d="M368.7,299.662l-1.433-3.478a14.3,14.3,0,0,0,1.638-12.276c-2.456-7.366-11.258-11.662-18.422-9a14.162,14.162,0,0,0,1.638,27.007l1.433,3.478-37.458,14.527a6.356,6.356,0,0,0-3.684,8.184l14.533,37.032-2.047.818a14.314,14.314,0,0,0-12.281-1.637c-7.369,2.455-11.667,11.253-9.006,18.414a14.171,14.171,0,0,0,27.019-1.637l2.047-.818L347.2,417.306a6.361,6.361,0,0,0,8.188,3.683l89.245-34.782a6.356,6.356,0,0,0,3.684-8.184l-34.8-89.205a6.36,6.36,0,0,0-8.188-3.683Z" transform="translate(-264.305 -248.197)"/>
              <path id="Path_5971" data-name="Path 5971" class="cls-5" d="M443.035,289.231c1.228,23.938-12.077,52.377-40.324,59.334-22.516,5.524-46.669-.614-67.957-9.821a2.775,2.775,0,0,1-1.433-3.683,2.888,2.888,0,0,1,3.07-1.637h0c29.68,6.343,67.548,10.435,81.467-16.573,7.164-13.3,5.731-29.258,5.936-27.007C423.795,277.365,442.421,276.751,443.035,289.231Z" transform="translate(-232.614 -241.859)"/>
              <g id="Group_3718" data-name="Group 3718" transform="translate(188.314 37.766)">
                <path id="Path_5972" data-name="Path 5972" class="cls-25" d="M376,308.539a161.9,161.9,0,0,0,2.661-18.619v.2l1.637-6.547s3.07-5.115,11.463-3.273c6.755,1.637,6.755,9.207,6.755,9.207,0,1.023,2.456,8.8-4.094,25.37C394.423,315.291,375.8,309.971,376,308.539Z" transform="translate(-375.999 -279.905)"/>
              </g>
            </g>
            <path id="Path_5973" data-name="Path 5973" class="cls-5" d="M345.03,312.579c-1.842-2.251-2.456-9.821-3.48-9.821-.819,0-.819,2.66-.819,4.092a.714.714,0,0,1-.2.409h-.409c-2.047-1.841-8.188-6.956-8.8-6.547s2.456,4.3,3.684,5.729v.2h-.2c-1.638-.818-7.164-3.478-7.164-2.455-.2,1.023,4.708,4.092,6.55,5.32v.2h-.2c-2.047-.614-7.369-2.046-7.574-1.228-.2,1.023,5.117,3.274,6.959,3.887v.2h-.2c-1.842-.2-6.55-.409-5.731.2.819.818,12.281,4.706,14.738,4.706C344.825,317.489,345.03,312.579,345.03,312.579Z" transform="translate(174.226 106.728)"/>
            <g id="logo" transform="translate(283.596 285.012)">
              <g id="Group_1030" data-name="Group 1030">
                <g id="Group_998" data-name="Group 998" transform="translate(0 140.168)">
                  <path id="Path_814" data-name="Path 814" class="cls-11" d="M0,140.492v-2.564l10.257-11.112c2.792-2.792,4.274-5.662,4.274-7.693a4.308,4.308,0,0,0-1.709-3.419c-1.015-.888-1.9-1.709-3.419-1.709-2.792,0-4.714,1.609-5.983,4.274L0,116.559a13.087,13.087,0,0,1,4.274-5.128c1.65-1.015,3.225-.855,5.128-.855,2.538,0,5.061.06,6.838,1.71a8.981,8.981,0,0,1,2.564,6.838c0,3.046-1.575,6.7-5.128,10.257l-7.693,7.693H18.8v3.419Z" transform="translate(0 -110.566)"/>
                  <path id="Path_815" data-name="Path 815" class="cls-11" d="M27.015,122.4a12.209,12.209,0,0,1,7.693,2.564c1.9,1.65,2.564,3.919,2.564,6.838s-.661,5.188-2.564,6.838a12.471,12.471,0,0,1-7.693,2.564,10.656,10.656,0,0,1-5.983-1.709,7.661,7.661,0,0,1-3.419-4.274l3.419-2.564c.381,1.4.567,2.658,1.709,3.419a8.047,8.047,0,0,0,4.274,1.709,6.561,6.561,0,0,0,4.274-1.709c1.142-1.015,2.564-2.5,2.564-4.274s-1.422-3.258-2.564-4.274-2.5-.855-4.274-.855H18.468l1.709-15.385h16.24v3.419H23.6l-.855,7.693Z" transform="translate(4.61 -110.422)"/>
                  <path id="Path_816" data-name="Path 816" class="cls-11" d="M62.287,117.087h3.419l-6.838,21.369H55.449L50.321,123.07l-5.128,15.385H41.774l-6.838-21.369h4.274l4.274,16.24,5.128-16.24h4.274l4.274,16.24Z" transform="translate(9.511 -108.53)"/>
                  <path id="Path_817" data-name="Path 817" class="cls-11" d="M79.281,117.232h4.274V138.6H79.281v-3.419a8.713,8.713,0,0,1-7.693,4.274,10.782,10.782,0,0,1-7.693-3.419,10.356,10.356,0,0,1-3.419-7.693A12.546,12.546,0,0,1,63.9,119.8a10.782,10.782,0,0,1,7.693-3.419,8.432,8.432,0,0,1,7.693,4.274Zm-7.693,18.8a9.5,9.5,0,0,0,5.983-2.564,6.671,6.671,0,0,0,1.709-5.128c0-2.157-.313-4.46-1.709-5.983s-3.826-1.709-5.983-1.709-3.732.313-5.128,1.709c-1.4,1.523-1.709,3.826-1.709,5.983a6.671,6.671,0,0,0,1.709,5.128A6.755,6.755,0,0,0,71.588,136.037Z" transform="translate(16.45 -108.676)"/>
                  <path id="Path_818" data-name="Path 818" class="cls-11" d="M95.215,122.574H89.231v11.112a4.721,4.721,0,0,0,.855,2.564,2.228,2.228,0,0,0,1.709.855c.888,0,2.15-.728,3.419-.855v3.419c-3.173.381-6.17.034-7.693-.855s-1.709-2.59-1.709-5.128V122.574H81.539V118.3h4.274v-4.274l3.419-1.709V118.3h5.983Z" transform="translate(21.885 -109.743)"/>
                </g>
                <g id="Group_1029" data-name="Group 1029">
                  <g id="Group_1004" data-name="Group 1004" transform="translate(0 107.698)">
                    <g id="Group_999" data-name="Group 999" transform="translate(107.697 0)">
                      <ellipse id="Ellipse_131" data-name="Ellipse 131" class="cls-11" cx="4.701" cy="4.701" rx="4.701" ry="4.701" transform="translate(0)"/>
                    </g>
                    <g id="Group_1000" data-name="Group 1000" transform="translate(81.2 0)">
                      <ellipse id="Ellipse_132" data-name="Ellipse 132" class="cls-11" cx="4.274" cy="4.701" rx="4.274" ry="4.701" transform="translate(0)"/>
                    </g>
                    <g id="Group_1001" data-name="Group 1001" transform="translate(53.849 0)">
                      <ellipse id="Ellipse_133" data-name="Ellipse 133" class="cls-11" cx="4.701" cy="4.701" rx="4.701" ry="4.701" transform="translate(0)"/>
                    </g>
                    <g id="Group_1002" data-name="Group 1002" transform="translate(27.352 0)">
                      <ellipse id="Ellipse_134" data-name="Ellipse 134" class="cls-11" cx="4.274" cy="4.701" rx="4.274" ry="4.701" transform="translate(0)"/>
                    </g>
                    <g id="Group_1003" data-name="Group 1003" transform="translate(0 0)">
                      <ellipse id="Ellipse_135" data-name="Ellipse 135" class="cls-11" cx="4.274" cy="4.701" rx="4.274" ry="4.701"/>
                    </g>
                  </g>
                  <g id="Group_1010" data-name="Group 1010" transform="translate(0 81.201)">
                    <g id="Group_1005" data-name="Group 1005" transform="translate(107.697 0)">
                      <ellipse id="Ellipse_136" data-name="Ellipse 136" class="cls-11" cx="4.701" cy="4.274" rx="4.701" ry="4.274" transform="translate(0)"/>
                    </g>
                    <g id="Group_1006" data-name="Group 1006" transform="translate(81.2 0)">
                      <ellipse id="Ellipse_137" data-name="Ellipse 137" class="cls-11" cx="4.274" cy="4.274" rx="4.274" ry="4.274" transform="translate(0)"/>
                    </g>
                    <g id="Group_1007" data-name="Group 1007" transform="translate(53.849 0)">
                      <ellipse id="Ellipse_138" data-name="Ellipse 138" class="cls-11" cx="4.701" cy="4.274" rx="4.701" ry="4.274" transform="translate(0)"/>
                    </g>
                    <g id="Group_1008" data-name="Group 1008" transform="translate(27.352 0)">
                      <ellipse id="Ellipse_139" data-name="Ellipse 139" class="cls-11" cx="4.274" cy="4.274" rx="4.274" ry="4.274" transform="translate(0)"/>
                    </g>
                    <g id="Group_1009" data-name="Group 1009" transform="translate(0 0)">
                      <ellipse id="Ellipse_140" data-name="Ellipse 140" class="cls-11" cx="4.274" cy="4.274" rx="4.274" ry="4.274"/>
                    </g>
                  </g>
                  <g id="Group_1016" data-name="Group 1016" transform="translate(0 53.849)">
                    <g id="Group_1011" data-name="Group 1011" transform="translate(107.697 0)">
                      <ellipse id="Ellipse_141" data-name="Ellipse 141" class="cls-11" cx="4.701" cy="4.701" rx="4.701" ry="4.701" transform="translate(0)"/>
                    </g>
                    <g id="Group_1012" data-name="Group 1012" transform="translate(81.2 0)">
                      <ellipse id="Ellipse_142" data-name="Ellipse 142" class="cls-11" cx="4.274" cy="4.701" rx="4.274" ry="4.701" transform="translate(0)"/>
                    </g>
                    <g id="Group_1013" data-name="Group 1013" transform="translate(53.849 0)">
                      <ellipse id="Ellipse_143" data-name="Ellipse 143" class="cls-11" cx="4.701" cy="4.701" rx="4.701" ry="4.701" transform="translate(0)"/>
                    </g>
                    <g id="Group_1014" data-name="Group 1014" transform="translate(27.352 0)">
                      <ellipse id="Ellipse_144" data-name="Ellipse 144" class="cls-11" cx="4.274" cy="4.701" rx="4.274" ry="4.701" transform="translate(0)"/>
                    </g>
                    <g id="Group_1015" data-name="Group 1015" transform="translate(0 0)">
                      <ellipse id="Ellipse_145" data-name="Ellipse 145" class="cls-11" cx="4.274" cy="4.701" rx="4.274" ry="4.701"/>
                    </g>
                  </g>
                  <g id="Group_1022" data-name="Group 1022" transform="translate(0 27.352)">
                    <g id="Group_1017" data-name="Group 1017" transform="translate(107.697 0)">
                      <ellipse id="Ellipse_146" data-name="Ellipse 146" class="cls-11" cx="4.701" cy="4.274" rx="4.701" ry="4.274" transform="translate(0)"/>
                    </g>
                    <g id="Group_1018" data-name="Group 1018" transform="translate(81.2 0)">
                      <ellipse id="Ellipse_147" data-name="Ellipse 147" class="cls-11" cx="4.274" cy="4.274" rx="4.274" ry="4.274" transform="translate(0)"/>
                    </g>
                    <g id="Group_1019" data-name="Group 1019" transform="translate(53.849 0)">
                      <ellipse id="Ellipse_148" data-name="Ellipse 148" class="cls-11" cx="4.701" cy="4.274" rx="4.701" ry="4.274" transform="translate(0)"/>
                    </g>
                    <g id="Group_1020" data-name="Group 1020" transform="translate(27.352 0)">
                      <ellipse id="Ellipse_149" data-name="Ellipse 149" class="cls-11" cx="4.274" cy="4.274" rx="4.274" ry="4.274" transform="translate(0)"/>
                    </g>
                    <g id="Group_1021" data-name="Group 1021" transform="translate(0 0)">
                      <ellipse id="Ellipse_150" data-name="Ellipse 150" class="cls-11" cx="4.274" cy="4.274" rx="4.274" ry="4.274"/>
                    </g>
                  </g>
                  <g id="Group_1028" data-name="Group 1028">
                    <g id="Group_1023" data-name="Group 1023" transform="translate(107.697)">
                      <ellipse id="Ellipse_151" data-name="Ellipse 151" class="cls-11" cx="4.701" cy="4.274" rx="4.701" ry="4.274" transform="translate(0)"/>
                    </g>
                    <g id="Group_1024" data-name="Group 1024" transform="translate(81.2)">
                      <ellipse id="Ellipse_152" data-name="Ellipse 152" class="cls-11" cx="4.274" cy="4.274" rx="4.274" ry="4.274" transform="translate(0)"/>
                    </g>
                    <g id="Group_1025" data-name="Group 1025" transform="translate(53.849)">
                      <ellipse id="Ellipse_153" data-name="Ellipse 153" class="cls-11" cx="4.701" cy="4.274" rx="4.701" ry="4.274" transform="translate(0)"/>
                    </g>
                    <g id="Group_1026" data-name="Group 1026" transform="translate(27.352)">
                      <ellipse id="Ellipse_154" data-name="Ellipse 154" class="cls-11" cx="4.274" cy="4.274" rx="4.274" ry="4.274" transform="translate(0)"/>
                    </g>
                    <g id="Group_1027" data-name="Group 1027">
                      <ellipse id="Ellipse_155" data-name="Ellipse 155" class="cls-11" cx="4.274" cy="4.274" rx="4.274" ry="4.274"/>
                    </g>
                  </g>
                </g>
              </g>
              <path id="Path_819" data-name="Path 819" class="cls-26" d="M120.674,66.061c6.472,10.787-3.557,23.6-12.821,29.061-16.371,9.518-7.087,23.951-23.078,29.916-20.94,7.742-43.592-8.4-43.592-31.625,0-14.722-13.086-19.561-22.223-35.044C-.33,26.006,25.152-1.113,45.457,12.212,71.6,29.345,82.58-.547,101.87,42.983,110.627,62.781,114.075,55.02,120.674,66.061Z" transform="translate(3.263 2.319)"/>
            </g>
          </g>
        </g>
      </g>
      <g id="plant" transform="translate(1294.047 2786.22)">
        <g id="Group_41" data-name="Group 41" transform="translate(0)">
          <g id="Group_23" data-name="Group 23">
            <path id="Path_170" data-name="Path 170" class="cls-27" d="M379.324,393.65c0,3.73-9.978,5.507-25.478,5.507S323.2,397.38,323.2,393.65s12.561-6.75,28.062-6.75S379.324,389.92,379.324,393.65Z" transform="translate(-288.257 -241.313)"/>
            <g id="Group_20" data-name="Group 20">
              <path id="Path_171" data-name="Path 171" class="cls-21" d="M348.973,309.767a26.932,26.932,0,0,1-4.276-15.632,6.769,6.769,0,0,1,.713-2.931c2.049-3.464,6.859-1.51,9.888-2.753,4.276-1.6,6.414-5.684,6.592-10.3.178-4.263-1.158-8.526-1.336-12.79a6.011,6.011,0,0,1,.713-3.73,6.912,6.912,0,0,1,3.029-2.22c6.86-2.753,15.055-.622,21.737-3.819,6.414-3.02,11.4-10.658,18.352-9.5,4.632.8,7.839,5.6,8.107,10.3.356,4.707-1.514,9.237-3.563,13.589-2.049,4.263-4.276,8.615-4.721,13.234-.534,4.53.713,9.148.624,13.678,0,4.619-1.693,9.681-5.88,11.546-4.365,1.954-10.779.266-13.1,4.53-1.247,2.309-.356,5.24-1.6,7.549-5.434,9.5-23.875.533-29.576-4.263A28.435,28.435,0,0,1,348.973,309.767Z" transform="translate(-290.6 -225.552)"/>
              <path id="Path_172" data-name="Path 172" class="cls-21" d="M310.277,307.019c-2.94-6.484-.089-15.01-3.385-21.05-4.187-7.461-16.035-7.549-18.8-15.543-1.782-5.151,1.247-11.013,1.6-16.52.534-10.125-8.107-18.563-5.078-28.066a3.523,3.523,0,0,1,.98-1.776A4.236,4.236,0,0,1,288.986,223c8.641.355,11.67,11.28,19.421,15.01,3.385,1.6,7.394,1.688,10.957,3.02a17.375,17.375,0,0,1,11.047,16.609c-.178,6.128-3.207,13.145.089,18.3,1.425,2.22,3.831,3.642,5.88,5.329a26.519,26.519,0,0,1,9.265,17.319,20.094,20.094,0,0,1-2.138,12.434C336.914,322.118,314.821,317.144,310.277,307.019Z" transform="translate(-283.975 -222.982)"/>
            </g>
            <g id="Group_21" data-name="Group 21" transform="translate(64.237 33.331)">
              <path id="Path_173" data-name="Path 173" class="cls-28" d="M359.038,348.7c-.713-12.434,2.227-25.135,6.236-36.859,4.454-12.879,16.035-32.685,33.318-49.915.624-.622-.267-1.865-.98-1.243-15.055,13.323-30.645,36.593-35.01,48.76-4.454,12.346-7.3,26.023-6.325,39.257.178,1.688,2.851,1.688,2.762,0Z" transform="translate(-356.083 -260.509)"/>
            </g>
            <g id="Group_22" data-name="Group 22" transform="translate(16.18 24.155)">
              <path id="Path_174" data-name="Path 174" class="cls-28" d="M343.439,342.567c.445-7.017-1.069-14.211-2.851-20.961a200.43,200.43,0,0,0-9.354-27.533,177.463,177.463,0,0,0-13.185-25.935c-4.009-6.395-8.552-13.145-14.521-17.763a.819.819,0,0,0-1.158,1.155c11.848,12.346,19.51,28.866,26.013,44.409a213.591,213.591,0,0,1,9,25.668c1.871,6.75,3.563,13.944,3.207,21.05.089,1.6,2.762,1.6,2.851-.089Z" transform="translate(-302.137 -250.178)"/>
            </g>
            <path id="Path_175" data-name="Path 175" class="cls-17" d="M341.114,385.71S331.047,369.456,329.8,342.9h42.672s2.049,25.046-8.819,42.81a37.74,37.74,0,0,1-12.472,2.309A20.16,20.16,0,0,1,341.114,385.71Z" transform="translate(-288.977 -236.392)"/>
          </g>
          <g id="Group_40" data-name="Group 40" transform="translate(12.941 20.955)">
            <g id="Group_24" data-name="Group 24" transform="translate(58.214 61.214)">
              <path id="Path_176" data-name="Path 176" class="cls-28" d="M364.7,317.276c7.216.622,14.966,1.421,22.093.266.713-.089.445-1.155-.178-1.155-7.216-.711-14.7-.266-22-.888-1.069-.089-.98,1.687.089,1.776Z" transform="translate(-363.848 -315.496)"/>
            </g>
            <g id="Group_25" data-name="Group 25" transform="translate(64.173 46.918)">
              <path id="Path_177" data-name="Path 177" class="cls-28" d="M371.306,301c9.354.711,19.064,1.687,28.507,1.066.624,0,.891-1.155.178-1.243-9.354-1.421-19.153-1.243-28.685-1.421-1.069,0-.98,1.51,0,1.6Z" transform="translate(-370.537 -299.4)"/>
            </g>
            <g id="Group_26" data-name="Group 26" transform="translate(74.808 30.71)">
              <path id="Path_178" data-name="Path 178" class="cls-28" d="M383.21,283.859c6.681,0,13.9.178,20.4-1.6a.545.545,0,0,0-.178-1.066c-6.681-.266-13.541.8-20.222,1.066-.98.089-.98,1.6,0,1.6Z" transform="translate(-382.475 -281.152)"/>
            </g>
            <g id="Group_27" data-name="Group 27" transform="translate(72.068 15.08)">
              <path id="Path_179" data-name="Path 179" class="cls-28" d="M384.567,279.227c-.98-4.885-1.693-11.1-4.365-15.454a.428.428,0,0,0-.8.178c.178,2.487,1.158,4.885,1.782,7.283.8,2.753,1.425,5.507,2.049,8.26a.682.682,0,1,0,1.336-.266Z" transform="translate(-379.4 -263.553)"/>
            </g>
            <g id="Group_28" data-name="Group 28" transform="translate(63.507 33.904)">
              <path id="Path_180" data-name="Path 180" class="cls-28" d="M373.541,294.653c-.445-3.109-1.069-7.017-2.94-9.681a.441.441,0,0,0-.8.355,49.644,49.644,0,0,0,1.514,4.8,43.228,43.228,0,0,1,1.069,4.885c.089.711,1.247.355,1.158-.355Z" transform="translate(-369.79 -284.748)"/>
            </g>
            <g id="Group_29" data-name="Group 29" transform="translate(53.24 44.197)">
              <path id="Path_181" data-name="Path 181" class="cls-28" d="M366.136,309.36c-1.158-2.309-2.316-4.619-3.563-6.928-1.069-2.043-1.96-4.263-3.474-5.951-.356-.355-.98,0-.8.444.624,2.22,1.96,4.174,3.029,6.217,1.247,2.309,2.494,4.53,3.742,6.75a.6.6,0,1,0,1.069-.533Z" transform="translate(-358.265 -296.337)"/>
            </g>
            <g id="Group_30" data-name="Group 30" transform="translate(15.684 57.487)">
              <path id="Path_182" data-name="Path 182" class="cls-28" d="M316.457,312.366c6.859,1.421,13.719,2.931,20.579,4.174.8.178,1.158-1.066.356-1.243-6.86-1.51-13.719-2.665-20.579-4-.713,0-.98.977-.356,1.066Z" transform="translate(-316.108 -311.3)"/>
            </g>
            <g id="Group_31" data-name="Group 31" transform="translate(15.264 41.481)">
              <path id="Path_183" data-name="Path 183" class="cls-28" d="M316.049,294.452c2.049.444,4.009.888,6.058,1.332a22.413,22.413,0,0,0,5.434.888c.445,0,.713-.711.267-.888a21.748,21.748,0,0,0-5.256-1.332c-2.049-.355-4.1-.8-6.147-1.155-.8-.178-1.069.977-.356,1.155Z" transform="translate(-315.636 -293.279)"/>
            </g>
            <g id="Group_32" data-name="Group 32" transform="translate(0.462 23.72)">
              <path id="Path_184" data-name="Path 184" class="cls-28" d="M299.537,274.541c6.414,1.155,12.917,2.22,19.331,3.109,1.069.178,1.069-1.51,0-1.687-6.325-.8-12.739-1.6-18.975-2.664-.891-.178-1.247,1.155-.356,1.243Z" transform="translate(-299.021 -273.282)"/>
            </g>
            <g id="Group_33" data-name="Group 33" transform="translate(0 10.591)">
              <path id="Path_185" data-name="Path 185" class="cls-28" d="M298.856,259.477c3.3.622,7.038,1.6,10.423,1.332a.757.757,0,0,0,0-1.51c-3.385-.444-6.771-.266-10.156-.8-.624,0-.891.888-.267.977Z" transform="translate(-298.502 -258.5)"/>
            </g>
            <g id="Group_34" data-name="Group 34" transform="translate(10.578)">
              <path id="Path_186" data-name="Path 186" class="cls-28" d="M311.466,258.588a29.031,29.031,0,0,0,2.494-5.951c.535-1.776,1.336-3.819.98-5.684-.089-.533-.713-.444-.98-.089-.98,1.51-1.158,3.553-1.693,5.329-.624,2.043-1.247,4-1.871,5.951a.593.593,0,0,0,1.069.444Z" transform="translate(-310.376 -246.575)"/>
            </g>
            <g id="Group_35" data-name="Group 35" transform="translate(20.299 8.103)">
              <path id="Path_187" data-name="Path 187" class="cls-28" d="M322.546,274.884c2.94-5.507,6.325-12.346,6.236-18.651,0-.444-.713-.8-.98-.266a62.03,62.03,0,0,0-2.494,8.171,80.779,80.779,0,0,1-3.92,10.036c-.445.8.713,1.51,1.158.711Z" transform="translate(-321.288 -255.699)"/>
            </g>
            <g id="Group_36" data-name="Group 36" transform="translate(27.954 35.936)">
              <path id="Path_188" data-name="Path 188" class="cls-28" d="M330.967,295.619c.713-1.421,1.514-2.931,2.227-4.352.624-1.155,1.514-2.4,1.425-3.73,0-.533-.535-.622-.891-.355-1.069.8-1.425,2.4-1.96,3.642-.624,1.421-1.247,2.842-1.782,4.263-.445.622.624,1.332.98.533Z" transform="translate(-329.88 -287.036)"/>
            </g>
            <g id="Group_37" data-name="Group 37" transform="translate(36.067 48.696)">
              <path id="Path_189" data-name="Path 189" class="cls-28" d="M340.246,315.078c2.583-3.641,6.325-8.615,6.681-13.234,0-.533-.624-.533-.891-.266-1.425,1.865-2.138,4.441-3.207,6.572a65.2,65.2,0,0,1-3.742,6.306c-.445.711.713,1.332,1.158.622Z" transform="translate(-338.988 -301.403)"/>
            </g>
            <g id="Group_38" data-name="Group 38" transform="translate(86.627 17.661)">
              <path id="Path_190" data-name="Path 190" class="cls-28" d="M396.506,269.426c3.3-.089,8.018-.178,11.046-1.776a.618.618,0,0,0-.356-1.155c-1.693-.178-3.474.355-5.167.533-1.871.266-3.831.533-5.7.888-.891.089-.713,1.51.178,1.51Z" transform="translate(-395.743 -266.46)"/>
            </g>
            <g id="Group_39" data-name="Group 39" transform="translate(85.653 10.73)">
              <path id="Path_191" data-name="Path 191" class="cls-28" d="M396.743,267.488c.267-2.576.624-6.572-1.069-8.7a.567.567,0,0,0-.891.266c-.356,1.243.089,2.664.267,4,.178,1.51.356,3.02.445,4.53.089.622,1.158.622,1.247-.089Z" transform="translate(-394.649 -258.656)"/>
            </g>
          </g>
        </g>
      </g>
      <g id="Group_3854" data-name="Group 3854" transform="translate(1113.714 2374.122)">
        <path id="Path_6514" data-name="Path 6514" class="cls-2" d="M836.535,185.5a15.049,15.049,0,0,0-11.635,5.815h23.435A15.657,15.657,0,0,0,836.535,185.5Z" transform="translate(-592.042 -160.912)"/>
        <path id="Path_6515-2" data-name="Path 6515" class="cls-2" d="M871.951,188.809c-4.986,0-8.809,5.981-13.3,4.818-9.806-2.326-13.962-14.952-24.765-14.952-8.31,0-13.13,10.3-20.942,9.636-12.133-1.163-17.784-17.61-30.915-17.61-12.133,0-18.117,14.121-29.419,15.284-6.648.665-11.469-7.144-18.615-7.144-13.629,0-14.793,5.316-27.258,9.3-3.656,1.163-6.316,8.141-10.3,8.141-4.82,0-8.975,1.5-11.635,4.818H892.228A23.553,23.553,0,0,0,871.951,188.809Z" transform="translate(-684.8 -170.7)"/>
      </g>
      <g id="Group_3864" data-name="Group 3864" transform="translate(1640.244 2193.38) rotate(-30)">
        <path id="Path_5856" data-name="Path 5856" class="cls-29" d="M75.962,9.667,0,0,58.973,1.583Z" transform="translate(0.012 27.102)"/>
        <path id="Path_5857" data-name="Path 5857" class="cls-17" d="M70.653.03S14.454,22.84.012,27.1c0,0,47.152,20.66,60.475,29.416L58.909,28.759l1.345-8.38Z" transform="translate(0 0)"/>
        <path id="Path_5858" data-name="Path 5858" class="cls-25" d="M75.965,16.415l-9.854-4.689-7.135-3.4L0,6.748,60.321.026Z" transform="translate(0.009 20.354)"/>
      </g>
      <g id="Group_3865" data-name="Group 3865" transform="translate(1735.138 2171.453) rotate(-30)">
        <g id="Group_3685" data-name="Group 3685" transform="translate(0 0)">
          <path id="Path_5864" data-name="Path 5864" class="cls-17" d="M.643,3.4,0,2.953C.707,1.99,1.349,1.028,1.991,0L2.7.45C2.055,1.413,1.349,2.44.643,3.4Z" transform="translate(71.546 130.318)"/>
          <path id="Path_5865" data-name="Path 5865" class="cls-17" d="M69.3,117.542l-.77-.257a55.239,55.239,0,0,1-2.567,6.675l.706.321A63.9,63.9,0,0,0,69.3,117.542Zm3.015-14.057-.77-.128c-.321,2.375-.705,4.75-1.154,7.06l.771.193Q71.831,107.144,72.312,103.485Zm.575-14.442h-.834c.065,2.375.065,4.814,0,7.125l.77.064C72.952,93.921,72.952,91.482,72.887,89.043ZM71.408,75.756c-.064-.321-.129-.706-.193-1.027l-.77.128c.064.321.129.642.193,1.027.386,1.99.643,3.98.9,6.034l.771-.064C72.115,79.8,71.793,77.745,71.408,75.756ZM61.2,83.2l-.513-.578-.129.064a24.248,24.248,0,0,1-5.777,3.786l.321.706a28.16,28.16,0,0,0,5.97-3.914ZM69.417,71.39l-.77-.321a31.986,31.986,0,0,1-3.337,6.226l.642.449A27.594,27.594,0,0,0,69.417,71.39ZM48.1,88.589a32.286,32.286,0,0,1-7.062.191l-.064.77a27.258,27.258,0,0,0,7.255-.191ZM66.461,61.12l-.706.385a33.5,33.5,0,0,1,2.891,6.484l.77-.257A36.755,36.755,0,0,0,66.461,61.12Zm5.777-3.914H71.4a37.087,37.087,0,0,1-.7,7.061l.771.129A33.332,33.332,0,0,0,72.239,57.205ZM34.108,87.3a25.112,25.112,0,0,1-6.292-3.146l-.449.642a23.937,23.937,0,0,0,6.549,3.211ZM69.8,43.019l-.77.257a43.521,43.521,0,0,1,1.863,6.869l.771-.128A45.058,45.058,0,0,0,69.8,43.019ZM61.9,55.47a23.441,23.441,0,0,0-6.164-3.917l-.321.706a20.712,20.712,0,0,1,5.907,3.788ZM20.945,75.682a21.248,21.248,0,0,1-.771-2.889l-.77.128a16.142,16.142,0,0,0,.835,3.017,17.082,17.082,0,0,0,1.927,3.723l.642-.449A15.515,15.515,0,0,1,20.945,75.682Zm41.98-45.373-.642.449a49.852,49.852,0,0,1,3.789,6.034l.706-.385A48.277,48.277,0,0,0,62.924,30.309ZM48.739,49.563a30.417,30.417,0,0,0-7.255-.258l.064.77a28.831,28.831,0,0,1,7.062.258Zm-25.486,9.88-.642-.449a18.574,18.574,0,0,0-3.016,6.675l.771.193A18.241,18.241,0,0,1,23.253,59.442Zm11.169-8.727a25.876,25.876,0,0,0-6.548,3.208l.45.642a27.93,27.93,0,0,1,6.355-3.144ZM58.365,24.724a64.281,64.281,0,0,0-5.2-5.008l-.513.578c1.8,1.605,3.532,3.21,5.137,4.944Zm-10.916-9.5c-.963-.706-1.99-1.348-2.954-1.99-1.027-.642-2.055-1.284-3.146-1.862l-.385.706c1.027.578,2.055,1.22,3.082,1.862.963.642,1.99,1.284,2.954,1.926ZM34.928,8.095C32.745,7.067,30.5,6.168,28.25,5.333l-.257.77c2.247.835,4.43,1.734,6.613,2.7ZM21.38,3.149c-2.311-.642-4.687-1.156-7-1.606l-.128.77c2.311.45,4.687.964,6.934,1.606ZM7.191.451C4.815.194,2.376.065,0,0V.834c2.375.065,4.751.193,7.126.451Z" transform="translate(10.914 0.005)"/>
          <path id="Path_5866" data-name="Path 5866" class="cls-17" d="M3.66.772C2.5.836,1.285.964.065,1.092L0,.322C1.22.194,2.44.066,3.6,0Z" transform="translate(0 0.194)"/>
        </g>
      </g>
    </g>
  </g>
</svg>
