<svg xmlns="http://www.w3.org/2000/svg" viewBox="0 0 1640 735">
  <defs>
    <style>
      .cls-1 {
        fill: #f4f6f8;
      }

      .cls-2 {
        fill: #d9d9d9;
      }

      .cls-3 {
        fill: #fcd2c5;
      }

      .cls-4 {
        fill: #2b8b02;
      }

      .cls-5 {
        fill: #febb00;
      }

      .cls-6 {
        fill: #fb836f;
      }

      .cls-7 {
        fill: #fa6c51;
      }

      .cls-8 {
        fill: #333;
      }

      .cls-9 {
        fill: #4cbc1d;
      }

      .cls-10 {
        fill: #8ae69a;
      }

      .cls-11, .cls-14 {
        fill: #fff;
      }

      .cls-12 {
        fill: #d3d3d3;
      }

      .cls-13 {
        fill: #edf5f8;
      }

      .cls-14 {
        fill-rule: evenodd;
      }

      .cls-15 {
        fill: #e4eef9;
      }

      .cls-16 {
        fill: #fb0;
      }

      .cls-17 {
        fill: #ffca1b;
      }

      .cls-18 {
        fill: #ffaf33;
      }

      .cls-19 {
        fill: #272063;
      }

      .cls-20 {
        fill: #3387ff;
      }
    </style>
  </defs>
  <g id="ilu-home-agencja" transform="translate(-140 -4528)">
    <path id="Path_5730" data-name="Path 5730" class="cls-1" d="M1005.759,352.36c-169-42.455-295.714-62.843-366.993-56.441C535.99,305.151,451.259,391.538,339.422,397.5S187.7,307,115.746,336.422s-191.2,110.32-188.967,255.186S32.817,876.067,124.694,915.888c108.647,47.09,567.071,72.3,894.7,37.985,171.561-26.51,420.681-50.059,468.355-76.565s79-66.778,79-227.76c0-252.45-62.749-222.89-203-297.187S1174.756,394.816,1005.759,352.36Z" transform="translate(213.252 4293.236)"/>
    <g id="Group_3806" data-name="Group 3806" transform="translate(540.924 4934.356)">
      <path id="Path_6468" data-name="Path 6468" class="cls-2" d="M522.366,414.078a33.192,33.192,0,1,0-43.357,17.988A33.165,33.165,0,0,0,522.366,414.078Z" transform="translate(-52.199 -217.385)"/>
      <path id="Path_6469" data-name="Path 6469" class="cls-2" d="M384.667,348.678a33.192,33.192,0,1,0-43.357,17.989A33.441,33.441,0,0,0,384.667,348.678Z" transform="translate(-232.066 -302.812)"/>
      <path id="Path_6470" data-name="Path 6470" class="cls-2" d="M467.367,395.178a33.192,33.192,0,1,0-43.357,17.989A33.086,33.086,0,0,0,467.367,395.178Z" transform="translate(-124.041 -242.073)"/>
      <path id="Path_6471" data-name="Path 6471" class="cls-2" d="M360.776,368.1a33.274,33.274,0,1,0-47.047-.923A33.41,33.41,0,0,0,360.776,368.1Z" transform="translate(-253.377 -292.252)"/>
      <path id="Path_6472" data-name="Path 6472" class="cls-2" d="M533.486,462.695a69.533,69.533,0,1,0-90.865,37.591A69.457,69.457,0,0,0,533.486,462.695Z" transform="translate(-129.046 -219.647)"/>
      <path id="Path_6473" data-name="Path 6473" class="cls-2" d="M420.233,423.684A60.689,60.689,0,1,0,340.9,456.432,60.72,60.72,0,0,0,420.233,423.684Z" transform="translate(-254.717 -254.666)"/>
      <path id="Path_6474" data-name="Path 6474" class="cls-2" d="M428.731,425.245a60.675,60.675,0,1,0-85.792-1.614A60.56,60.56,0,0,0,428.731,425.245Z" transform="translate(-225.394 -279.289)"/>
      <path id="Path_6475" data-name="Path 6475" class="cls-2" d="M501.047,499.684a95.252,95.252,0,1,0-134.683-2.537A95.364,95.364,0,0,0,501.047,499.684Z" transform="translate(-207.306 -259.634)"/>
      <path id="Path_6476" data-name="Path 6476" class="cls-2" d="M492.778,389.771A25.227,25.227,0,1,0,459.8,403.378,25.189,25.189,0,0,0,492.778,389.771Z" transform="translate(-70.81 -234.821)"/>
      <path id="Path_6477" data-name="Path 6477" class="cls-2" d="M338.178,374.671A25.227,25.227,0,1,0,305.2,388.278,25.189,25.189,0,0,0,338.178,374.671Z" transform="translate(-272.753 -254.545)"/>
      <path id="Path_6478" data-name="Path 6478" class="cls-2" d="M496.778,436.171A25.227,25.227,0,1,0,463.8,449.778,25.189,25.189,0,0,0,496.778,436.171Z" transform="translate(-65.585 -174.212)"/>
      <path id="Path_6479" data-name="Path 6479" class="cls-2" d="M471.842,356.432a13.962,13.962,0,1,0-18.219,7.611A14.308,14.308,0,0,0,471.842,356.432Z" transform="translate(-69.939 -257.984)"/>
      <path id="Path_6480" data-name="Path 6480" class="cls-2" d="M309.242,329.132a13.962,13.962,0,1,0-18.219,7.61A14.1,14.1,0,0,0,309.242,329.132Z" transform="translate(-282.331 -293.644)"/>
    </g>
    <g id="Group_3808" data-name="Group 3808" transform="translate(322.878 4827.261)">
      <path id="Path_6481" data-name="Path 6481" class="cls-3" d="M190.817,328.406c0,.922,3.921,1.614,4.612,1.153,1.845-1.384.922-2.306,2.767-3.459a21.468,21.468,0,0,1-5.535,1.153C191.739,327.484,190.586,327.022,190.817,328.406Z" transform="translate(-183.863 -143.061)"/>
      <path id="Path_6482" data-name="Path 6482" class="cls-3" d="M203.5,325.8a27.367,27.367,0,0,0-5.3,3.69c-2.076,1.614-6.227,5.535-6.688,5.766-.922.922-3.229,2.767-3.459,3.69a4.446,4.446,0,0,0,0,3,1.523,1.523,0,0,0,1.614.692c.231,1.153,3.229-.231,3.229.231,0,1.384,1.845,1.614,5.074-1.614.231-.23,9.686-6.457,12.454-8.764C209.037,330.412,203.5,325.8,203.5,325.8Z" transform="translate(-187.785 -143.453)"/>
      <path id="Path_6483" data-name="Path 6483" class="cls-3" d="M213.213,279.6c-2.076,9.917.231,42.9-1.845,58.809-2.537,19.6,11.992,14.3,14.76,8.533,6.919-14.99,18.911-59.27,11.531-63.652C234.43,281.211,213.674,277.752,213.213,279.6Z" transform="translate(-157.366 -204.489)"/>
      <path id="Path_6484" data-name="Path 6484" class="cls-3" d="M237.888,305.145a5.02,5.02,0,0,0-1.845,1.153c-7.841,7.61-32.287,41.281-41.743,47.969a39.835,39.835,0,0,1,6.227,6.919c15.452-11.3,50.737-43.818,47.97-50.968C246.19,303.531,240.886,303.761,237.888,305.145Z" transform="translate(-179.274 -171.46)"/>
      <path id="Path_6485" data-name="Path 6485" class="cls-4" d="M203.633,394.9c13.145-9.917,41.281-36.208,46.355-47.739,5.3-11.992,19.372-59.27,9.456-64.8-3.229-1.845-22.37-5.3-25.83-3.459-.692.461-1.384,1.153-1.384,1.845-.922,5.074-.692,15.682-.461,26.983s.461,22.832-.461,30.442a21.1,21.1,0,0,0-.231,3.69c-3,3.459-6.919,8.533-10.839,13.607-8.764,11.3-19.833,25.368-25.138,29.289Z" transform="translate(-178.229 -205.405)"/>
      <path id="Path_6486" data-name="Path 6486" class="cls-5" d="M291.306,404.4l-7.611,3.229a44.6,44.6,0,0,1,1.384,4.612c.692,3.69-4.612,14.068-1.384,16.6,1.614,1.153,5.766-1.153,8.072-3.69,2.306-2.767,3.921-5.3,4.151-7.38.231-2.768,2.076-6.919,1.614-8.3a6.553,6.553,0,0,0-3.69-3.229C292.228,404.4,291.306,404.4,291.306,404.4Z" transform="translate(-63.876 -40.784)"/>
      <path id="Path_6487" data-name="Path 6487" class="cls-3" d="M284.745,412.894a10.84,10.84,0,0,0,5.766-.923c1.614-.692,3-5.3,3-5.3l-2.767-2.767-7.841,4.151A29.96,29.96,0,0,1,284.745,412.894Z" transform="translate(-63.542 -41.437)"/>
      <path id="Path_6488" data-name="Path 6488" class="cls-6" d="M241.9,317.551c6,1.614,31.365,0,48.2-4.151,0,0,4.843,81.179,10.147,124.075,2.306,18.45,46.125,86.714,46.125,86.714-2.767,4.382-8.994,4.382-8.994,3.921,0,0-61.115-57.425-68.034-85.792C255.276,383.74,242.131,322.394,241.9,317.551Z" transform="translate(-117.098 -159.65)"/>
      <path id="Path_6489" data-name="Path 6489" class="cls-3" d="M233,353.482c.231,2.768,7.841,137.22,7.841,137.22,3.229,2.768,8.533,2.076,8.533,1.845,0,0,12.223-137.22,11.762-143.447C257.446,351.867,235.076,355.788,233,353.482Z" transform="translate(-128.723 -113.018)"/>
      <path id="Path_6490" data-name="Path 6490" class="cls-5" d="M253.485,412.721l-7.149-3.921s-1.614,2.306-2.767,3.69c-2.537,2.768-14.068,4.843-14.068,8.994,0,2.076,4.382,3.921,7.841,4.151a22.424,22.424,0,0,0,8.533-1.153c2.076-.692,6.919-2.537,7.611-3.921a5.64,5.64,0,0,0,.231-4.843A5.84,5.84,0,0,0,253.485,412.721Z" transform="translate(-133.295 -35.037)"/>
      <path id="Path_6491" data-name="Path 6491" class="cls-3" d="M235.5,412.882a10.541,10.541,0,0,0,4.151,3.921c1.614.922,6-.692,6-.692a22.128,22.128,0,0,0,.461-3.921l-8.072-3.69A13,13,0,0,1,235.5,412.882Z" transform="translate(-125.457 -35.428)"/>
      <path id="Path_6492" data-name="Path 6492" class="cls-7" d="M227.928,306.8c5.766,2.537,30.9,5.074,48.2,3.921v45.2c-3.459,2.767-2.537,43.126-8.533,85.792-7.149,49.353-10.839,101.935-10.839,101.935-3.459,3.921-10.609,0-10.609-.231C246.378,543.419,226.775,316.025,227.928,306.8Z" transform="translate(-135.413 -168.271)"/>
      <path id="Path_6493" data-name="Path 6493" class="cls-8" d="M303.934,301.8s11.531,18.45,11.531,32.287c0,0-20.295,17.527-56.041,26.291l-6.227-5.535.692,7.841c-7.38,3-11.992,4.151-18.45,1.845-3.229-1.153-10.839-24.907-10.839-24.907Z" transform="translate(-139.695 -174.802)"/>
      <path id="Path_6494" data-name="Path 6494" class="cls-3" d="M228.576,258.5c-.692,1.153-9.917,12.223-13.376,13.145.461.923,6.457,9.686,6.457,15.913,2.767,4.612,16.374-.692,16.835-10.378C235.956,275.335,229.729,263.343,228.576,258.5Z" transform="translate(-151.974 -231.362)"/>
      <path id="Path_6495" data-name="Path 6495" class="cls-9" d="M281.141,279.674c-4.151-8.764-10.609-15.452-21.909-13.837-3.69.461-15.221,1.845-15.221,1.845s-4.843,9.225-9.456,11.3c-3.229,1.614-7.38-.923-7.38-.923s-10.378,8.3-11.992,10.378c-6.457,8.072-4.843,17.066-1.153,23.293,13.146,21.909,21.909,80.487,30.212,81.179,11.3.692,76.336-26.752,80.949-38.053C331.186,340.1,282.755,283.133,281.141,279.674Z" transform="translate(-157.722 -222.094)"/>
      <path id="Path_6496" data-name="Path 6496" class="cls-4" d="M258.071,347.46C253,356.455,239.16,366.6,224.4,374.674c11.07-15.913,13.376-42.665,17.3-61.807,2.767-13.837,8.3-26.291,9.225-39.667a15.174,15.174,0,0,0,3.229,3.459C275.137,287.268,265.22,334.546,258.071,347.46Z" transform="translate(-139.957 -212.16)"/>
      <g id="Group_3807" data-name="Group 3807" transform="translate(44.142 59.9)">
        <path id="Path_6497" data-name="Path 6497" class="cls-3" d="M209.817,324.237c0,.922,3.921,1.384,4.612.922,1.614-1.384.922-2.306,2.537-3.459a22.529,22.529,0,0,1-5.3,1.384C210.739,323.084,209.586,322.853,209.817,324.237Z" transform="translate(-203.187 -208.709)"/>
        <path id="Path_6498" data-name="Path 6498" class="cls-3" d="M222.089,321.4c-1.845,1.153-3.459,2.537-5.3,3.921a51.208,51.208,0,0,0-6.227,6.227c-.692.922-3,3-3.459,3.69a6.561,6.561,0,0,0,0,3,1.523,1.523,0,0,0,1.614.692c.461,1.153,3.229-.231,3.229,0,.231,1.384,1.845,1.614,5.074-1.845.231-.231,9.456-6.919,12.223-9.455C227.854,325.556,222.319,321.174,222.089,321.4Z" transform="translate(-206.925 -209.105)"/>
        <path id="Path_6499" data-name="Path 6499" class="cls-10" d="M228.935,274.363c-1.614,10.147,2.076,42.9.922,58.809-1.614,19.6,12.684,13.607,14.99,7.841,6.227-15.221,16.144-60.193,8.533-64.113C250.153,275.055,229.166,272.519,228.935,274.363Z" transform="translate(-178.717 -271.379)"/>
        <path id="Path_6500" data-name="Path 6500" class="cls-3" d="M254.351,300.039c-.692.461-1.153.923-1.614,1.153-7.611,8.072-30.212,42.665-39.437,49.814a33.952,33.952,0,0,1,6.457,6.688c14.76-11.992,48.431-46.355,45.433-53.274C262.653,297.964,257.349,298.194,254.351,300.039Z" transform="translate(-198.598 -238.477)"/>
        <path id="Path_6501" data-name="Path 6501" class="cls-9" d="M223.525,391c12.684-10.609,39.436-38.283,43.818-50.045,4.843-12.223,16.374-59.962,6.227-65.266-3.459-1.845-22.6-4.151-25.83-2.306a3.586,3.586,0,0,0-1.384,1.845c-.692,5.074,2.306,49.814,1.845,57.425v3.69c-2.767,3.69-6.457,8.764-10.147,14.068-8.3,11.762-18.68,26.291-23.754,30.442Z" transform="translate(-197.292 -272.706)"/>
      </g>
      <path id="Path_6502" data-name="Path 6502" class="cls-8" d="M234.9,303.575c-1.153-14.3-5.535-17.3-8.533-22.37-3-5.3-4.151-12.915-4.151-17.989-.231-.231-11.531-6.227-12.915-.692a37.889,37.889,0,0,0,5.535,19.6,33.6,33.6,0,0,1,5.074,21.679c-.923,6.457,1.384,14.068,2.767,17.527,8.533,20.295,24.215,26.291,27.214,23.062C253.118,340.706,236.514,323.87,234.9,303.575Z" transform="translate(-159.681 -229.16)"/>
      <path id="Path_6503" data-name="Path 6503" class="cls-3" d="M217.6,253.576c-6.227,2.076-10.147,6.457-9.225,12.684.231,2.306,8.533,20.525,19.6,19.372,4.612-.461,9.917-10.839,8.3-15.913,0,0-2.076-6.919-2.306-6.919C232.13,256.343,224.52,251.5,217.6,253.576Z" transform="translate(-161.063 -238.43)"/>
      <path id="Path_6504" data-name="Path 6504" class="cls-8" d="M280.866,316.767c-.923-4.151-4.382-12.684-11.07-17.3-3.921-2.767-11.3-9.917-11.531-22.831-.231-12.684-8.072-22.37-17.066-27.214-8.994-5.074-17.758-2.076-21.678,1.614-5.074,4.612-4.843,5.766-4.843,5.766a11.139,11.139,0,0,0-6,3.459c-5.766,6.457.461,22.6,7.841,25.6-9.917-16.144,0-22.832,0-22.832s7.841-1.845,13.146,1.153c4.843,2.767,11.992,12.454,12.915,21.448.692,6.919-2.537,13.146,7.841,26.291,14.991,18.68,7.611,47.047,14.529,47.278C271.641,359.432,286.631,341.213,280.866,316.767Z" transform="translate(-163.443 -246.733)"/>
      <path id="Path_6505" data-name="Path 6505" class="cls-3" d="M220.206,256.4a4.71,4.71,0,0,0-2.306,2.076c1.384,2.076,4.382,4.843,5.766,6.457,1.384-1.153,2.306-4.382,1.614-6C224.588,257.095,222.051,255.711,220.206,256.4Z" transform="translate(-148.447 -234.338)"/>
    </g>
    <g id="Group_3811" data-name="Group 3811" transform="translate(1295.317 4724.027)">
      <path id="Path_6514" data-name="Path 6514" class="cls-11" d="M841.043,185.5a20.878,20.878,0,0,0-16.143,8.072h32.518C853.5,188.959,847.732,185.5,841.043,185.5Z" transform="translate(-501.798 -151.368)"/>
      <path id="Path_6515" data-name="Path 6515" class="cls-11" d="M944.481,195.838c-6.919,0-12.223,8.3-18.45,6.688-13.607-3.229-19.372-20.756-34.362-20.756-11.531,0-18.219,14.3-29.059,13.376-16.835-1.614-24.677-24.446-42.9-24.446-16.835,0-25.138,19.6-40.82,21.217-9.225.922-15.913-9.917-25.83-9.917-18.911,0-20.526,7.38-37.822,12.915-5.074,1.614-8.764,11.3-14.3,11.3-6.688,0-12.454,2.076-16.144,6.688H972.617C967.774,203.679,956.935,195.838,944.481,195.838Z" transform="translate(-684.8 -170.7)"/>
    </g>
    <g id="Group_3812" data-name="Group 3812" transform="translate(343.67 4723.406)">
      <path id="Path_6516" data-name="Path 6516" class="cls-11" d="M213.174,216.5a20.878,20.878,0,0,1,16.144,8.072H196.8C200.721,219.959,206.486,216.5,213.174,216.5Z" transform="translate(-196.8 -182.368)"/>
      <path id="Path_6517" data-name="Path 6517" class="cls-11" d="M254.467,226.838c6.919,0,12.223,8.3,18.45,6.688,13.607-3.229,19.372-20.756,34.363-20.756,11.531,0,18.219,14.3,29.058,13.376,16.835-1.614,24.677-24.446,42.9-24.446,16.835,0,25.138,19.6,40.82,21.217,9.225.922,15.913-9.917,25.83-9.917,18.911,0,20.525,7.38,37.822,12.915,5.074,1.614,8.764,11.3,14.3,11.3,6.688,0,12.454,2.076,16.144,6.688H226.1A32.765,32.765,0,0,1,254.467,226.838Z" transform="translate(-158.528 -201.7)"/>
    </g>
    <g id="Group_3813" data-name="Group 3813" transform="translate(964.995 4939.038)">
      <path id="Path_6518" data-name="Path 6518" class="cls-2" d="M468.721,432.778a33.192,33.192,0,1,1,43.357,17.988A33.165,33.165,0,0,1,468.721,432.778Z" transform="translate(-466.212 -192.959)"/>
      <path id="Path_6519" data-name="Path 6519" class="cls-2" d="M612.721,348.678a33.192,33.192,0,1,1,43.357,17.989A33.086,33.086,0,0,1,612.721,348.678Z" transform="translate(-278.116 -302.812)"/>
      <path id="Path_6520" data-name="Path 6520" class="cls-2" d="M530.021,395.178a33.192,33.192,0,1,1,43.357,17.989A33.085,33.085,0,0,1,530.021,395.178Z" transform="translate(-386.141 -242.073)"/>
      <path id="Path_6521" data-name="Path 6521" class="cls-2" d="M636.651,368.1a33.274,33.274,0,1,1,47.047-.923A33.41,33.41,0,0,1,636.651,368.1Z" transform="translate(-256.844 -292.252)"/>
      <path id="Path_6522" data-name="Path 6522" class="cls-2" d="M505.03,462.695A69.533,69.533,0,1,1,595.9,500.286,69.457,69.457,0,0,1,505.03,462.695Z" transform="translate(-422.495 -219.647)"/>
      <path id="Path_6523" data-name="Path 6523" class="cls-2" d="M608.35,423.684a60.689,60.689,0,1,1,79.334,32.748A60.72,60.72,0,0,1,608.35,423.684Z" transform="translate(-286.66 -254.666)"/>
      <path id="Path_6524" data-name="Path 6524" class="cls-2" d="M599.854,425.245a60.674,60.674,0,1,1,85.792-1.614A60.56,60.56,0,0,1,599.854,425.245Z" transform="translate(-315.985 -279.289)"/>
      <path id="Path_6525" data-name="Path 6525" class="cls-2" d="M566.5,499.684a95.253,95.253,0,1,1,134.683-2.537A95.364,95.364,0,0,1,566.5,499.684Z" transform="translate(-373.267 -259.634)"/>
      <path id="Path_6526" data-name="Path 6526" class="cls-2" d="M495.492,389.771a25.227,25.227,0,1,1,32.979,13.607A25.189,25.189,0,0,1,495.492,389.771Z" transform="translate(-430.485 -234.821)"/>
      <path id="Path_6527" data-name="Path 6527" class="cls-2" d="M650.092,374.671a25.226,25.226,0,1,1,32.979,13.607A25.189,25.189,0,0,1,650.092,374.671Z" transform="translate(-228.542 -254.545)"/>
      <path id="Path_6528" data-name="Path 6528" class="cls-2" d="M491.592,436.171a25.226,25.226,0,1,1,32.979,13.607A25.189,25.189,0,0,1,491.592,436.171Z" transform="translate(-435.579 -174.212)"/>
      <path id="Path_6529" data-name="Path 6529" class="cls-2" d="M503.713,356.432a13.962,13.962,0,1,1,18.219,7.611A14.308,14.308,0,0,1,503.713,356.432Z" transform="translate(-418.641 -257.984)"/>
      <path id="Path_6530" data-name="Path 6530" class="cls-2" d="M666.313,329.132a13.962,13.962,0,1,1,18.219,7.61A14.1,14.1,0,0,1,666.313,329.132Z" transform="translate(-206.249 -293.644)"/>
    </g>
    <g id="Group_3828" data-name="Group 3828" transform="translate(190.998 5048.122)">
      <g id="XMLID_447_" transform="translate(40.128)">
        <g id="Group_3816" data-name="Group 3816">
          <g id="Group_3815" data-name="Group 3815">
            <path id="Path_6532" data-name="Path 6532" class="cls-8" d="M256.854,398.772l8.533-2.076-4.151-17.758-8.533,2.076a46.582,46.582,0,0,0-12.223-16.835l4.612-7.38-15.452-9.686-4.612,7.38a46.862,46.862,0,0,0-15.913-3.459H204.5l-2.076-8.533-17.758,4.151,2.076,8.533a52.032,52.032,0,0,0-5.074,2.537,48.139,48.139,0,0,0-11.992,9.686l-7.38-4.612-9.686,15.452,7.38,4.612a51.309,51.309,0,0,0-3.459,20.525L148,405.46l4.151,17.758,8.533-2.076a46.583,46.583,0,0,0,12.223,16.835l-4.612,7.38,15.452,9.686,4.612-7.38a51.311,51.311,0,0,0,20.525,3.459l2.076,8.533,17.758-4.151-2.076-8.533a52.028,52.028,0,0,0,5.074-2.537,48.141,48.141,0,0,0,11.992-9.686l7.38,4.612,9.686-15.452-7.38-4.612A51.312,51.312,0,0,0,256.854,398.772Zm-31.6,34.363a30.018,30.018,0,0,1-10.147,3.921,36.832,36.832,0,0,1-26.752-67.8,30.014,30.014,0,0,1,10.147-3.921,57.9,57.9,0,0,1,6.227-.922h4.382a36.84,36.84,0,0,1,16.144,68.725Z" transform="translate(-148 -342.5)"/>
          </g>
        </g>
      </g>
      <g id="Group_3823" data-name="Group 3823" transform="translate(21.679 74.952)">
        <g id="Group_3821" data-name="Group 3821">
          <rect id="Rectangle_5103" data-name="Rectangle 5103" class="cls-11" width="113.005" height="96.861"/>
        </g>
        <g id="Group_3822" data-name="Group 3822" transform="translate(113.005)">
          <rect id="Rectangle_5104" data-name="Rectangle 5104" class="cls-11" width="41.512" height="96.861"/>
        </g>
      </g>
      <g id="Group_3824" data-name="Group 3824" transform="translate(21.679 74.952)">
        <path id="Path_6536" data-name="Path 6536" class="cls-12" d="M140,434.962h94.325L253.005,375H140Z" transform="translate(-140 -375)"/>
      </g>
      <g id="Group_3825" data-name="Group 3825" transform="translate(134.684 74.952)">
        <path id="Path_6537" data-name="Path 6537" class="cls-12" d="M189.461,377.537l18.219,78.181h22.832V375H189Z" transform="translate(-189 -375)"/>
      </g>
      <g id="Group_3826" data-name="Group 3826" transform="translate(0 74.722)">
        <path id="Path_6538" data-name="Path 6538" class="cls-11" d="M130.6,414.567h116L265.514,374.9H152.97Z" transform="translate(-130.6 -374.9)"/>
      </g>
      <g id="Group_3827" data-name="Group 3827" transform="translate(135.375 74.722)">
        <path id="Path_6539" data-name="Path 6539" class="cls-11" d="M189.3,374.9l16.835,47.739h41.051L230.12,374.9Z" transform="translate(-189.3 -374.9)"/>
      </g>
    </g>
    <g id="Group_3834" data-name="Group 3834" transform="translate(1357.256 4875.386)">
      <g id="XMLID_54_" transform="translate(72.877 116.003)">
        <g id="Group_3829" data-name="Group 3829">
          <rect id="Rectangle_5105" data-name="Rectangle 5105" class="cls-13" width="57.656" height="26.291"/>
        </g>
      </g>
      <g id="XMLID_43_">
        <g id="Group_3830" data-name="Group 3830">
          <path id="Path_6540" data-name="Path 6540" class="cls-14" d="M831.176,267.6H645.756a9.5,9.5,0,0,0-9.455,9.456V378.068a9.5,9.5,0,0,0,9.455,9.455H831.176a9.5,9.5,0,0,0,9.456-9.455V277.056A9.5,9.5,0,0,0,831.176,267.6Z" transform="translate(-636.3 -267.6)"/>
        </g>
      </g>
      <g id="XMLID_42_" transform="translate(6.227 5.535)">
        <g id="Group_3831" data-name="Group 3831">
          <rect id="Rectangle_5106" data-name="Rectangle 5106" class="cls-9" width="191.878" height="97.323"/>
        </g>
      </g>
      <g id="XMLID_41_" transform="translate(49.353 138.604)">
        <g id="Group_3832" data-name="Group 3832">
          <path id="Path_6541" data-name="Path 6541" class="cls-14" d="M755.023,327.7H661.39a3.69,3.69,0,0,0,0,7.38h93.633a3.69,3.69,0,0,0,0-7.38Z" transform="translate(-657.7 -327.7)"/>
        </g>
      </g>
      <path id="Union_6" data-name="Union 6" class="cls-11" d="M24.971,66.688a4.884,4.884,0,0,0,3.236-1.719,4.1,4.1,0,0,0,.559-.88,13.5,13.5,0,0,0-1.478-4.316c-.239-.44-.479-.919-.678-1.36-1.718-2.838-1.678-4.636-.679-5.916a4.812,4.812,0,0,1,.918-.878,14.512,14.512,0,0,1,1.4-.52c.479-.16.959-.32,1.438-.52a8.971,8.971,0,0,0,1.637-.36c7.71-1.839,1.558-7.993.239-12.87-.2-.4-.359-.719-.559-1.039-.6-.919-1.439-1.439-3.955-1.719a10.126,10.126,0,0,0-1.118-.04,6.054,6.054,0,0,1-1.758-.239,5.825,5.825,0,0,1-1.438-.6,5.423,5.423,0,0,0-1-1.64,4.726,4.726,0,0,0-1.119-.919A4.932,4.932,0,0,0,19.38,30.6c-.927-1.041-2.1-.9-3.3-.759-1.329.156-2.682.313-3.733-1.159a1.516,1.516,0,0,1,.279-1.08,3,3,0,0,1,1.838-1.039c1.238-.28,2.2-.48,3-.639,2.037-.4,3.076-2.119,5.152-3.677a18.618,18.618,0,0,0,2.956-2.8,4.492,4.492,0,0,1,2.716-2.718,4.722,4.722,0,0,1,3.853.12c1.263.442,2.325.886,3.057-.12.4-.559-.2-1.478-.439-2a21.027,21.027,0,0,0-1.318-3.078,1.2,1.2,0,0,0-.72-.559,5.382,5.382,0,0,1-1.477-.48,4.774,4.774,0,0,0-3.036-.8c-.079,0-.159.041-.24.041-1.717.36-1.8,3.158-3.914,3.158-2.516,0-2.2-2.438-1.319-2.758.879-.52,1.758-.16,2.717-.16,1.077,0,3.314-1,3.674-.959.56.081,1.319.4,1.878.52l1.638.159c.679,0,2.476-2.477.519-3.676A21.012,21.012,0,0,0,29.8,5.215c-.759-.04-1.558-1.958-2.4-1.8-.639.119-1.678,1.639-4.954,1.8-.2.01-.765-.083-1.465-.176-1.781-.239-4.454-.477-4.367,1.015a.917.917,0,0,1-.959.76,12.441,12.441,0,0,0-2.116.04A33.673,33.673,0,0,1,32.8.019h.079a33.73,33.73,0,0,1,22.25,7.435,6.082,6.082,0,0,1-2.078,1.079.6.6,0,0,0-.438.6c.119,1.239,2.4,1.439,1.638,4.037-.32,1.08-2.038,1.359-3.116,1.679-.52.159-1.118.36-1.279.959a3.062,3.062,0,0,1-1.518,1.838,2.485,2.485,0,0,0-.559.28l-.52.48a2.03,2.03,0,0,0-.319,1.559c.239,1.479,1.757,1.559,2.916,1.159,0,0,.52-.24.6-.28.119-.041.16-.121.239-.16a1.387,1.387,0,0,0,.441-.4l.239-.16,1.6-2.238s1.679-1.039,2.357.08a2.46,2.46,0,0,0,.759.8c.32.2,2.837.959,2.277.28a.861.861,0,0,1,.16-1.519c.839-.52,1.637.56,2.037,1.719.163.452.509.162.951-.126a1.243,1.243,0,0,1,1.446-.194c.12.08.439,1.319.52,1.4.519.84.958.759,2.037.439.28.639.519,1.32.759,2a1.609,1.609,0,0,0-.6.12,3.622,3.622,0,0,1-2.816-.223A3.514,3.514,0,0,0,60.2,22.4c-2.237.839-2.4-1.439-4.314-1.719-2.277-.32-2.238,1.319-6.71,1.8-2.118.24-3.2,1.718-5.114,2.278a1.866,1.866,0,0,0-1.318,2.158c-.439,3.8-.4,10.233,4.953,9.953,1.717-.081,6.551-1.32,7.47.4a22.523,22.523,0,0,1,2.2,8.394,33.691,33.691,0,0,0,1.8,5.435c.438,1.239.678,4.637.879,4.917A33.7,33.7,0,0,1,35.437,67.967h-.081q-.546.018-1.089.018A34.48,34.48,0,0,1,24.971,66.688ZM.019,35.192a34.122,34.122,0,0,1,2.273-13.4l.081.04s.518.08.6.4l.04.159a2.173,2.173,0,0,0,2.154,1.8c1.078,0,1.476,1.2,1.836,2.361a5.365,5.365,0,0,0,1.317,2.6c.4.32.718.641,1.038.92a4.887,4.887,0,0,1,.718,1.44,5.431,5.431,0,0,1,.318,1.6c-.2.44-.4.881-.558,1.32a14.053,14.053,0,0,0-.758,1.841,7.319,7.319,0,0,0-.358,1.761c-.081.56-.119,1.12-.16,1.72,0,.56,0,1.121.039,1.641a16.184,16.184,0,0,0,1.437,4.241c.239.44-2.873,8.6-2.754,9.4A33.75,33.75,0,0,1,.019,35.192Z" transform="translate(72.888 19.962)"/>
    </g>
    <g id="Group_3835" data-name="Group 3835" transform="translate(1336.5 5042.126)">
      <rect id="Rectangle_5107" data-name="Rectangle 5107" class="cls-11" width="5.304" height="177.81"/>
      <rect id="Rectangle_5108" data-name="Rectangle 5108" class="cls-11" width="5.304" height="177.81" transform="translate(68.956)"/>
      <rect id="Rectangle_5109" data-name="Rectangle 5109" class="cls-11" width="5.304" height="177.81" transform="translate(258.528)"/>
      <rect id="Rectangle_5110" data-name="Rectangle 5110" class="cls-11" width="5.304" height="177.81" transform="translate(327.484)"/>
    </g>
    <rect id="Rectangle_5111" data-name="Rectangle 5111" class="cls-13" width="106.086" height="19.834" transform="translate(1324.738 5021.14)"/>
    <rect id="Rectangle_5112" data-name="Rectangle 5112" class="cls-15" width="259.22" height="19.834" transform="translate(1430.825 5021.14)"/>
    <g id="Group_3836" data-name="Group 3836" transform="translate(1428.488 4874.364)">
      <path id="Path_6565" data-name="Path 6565" class="cls-3" d="M753.282,319.609a15.934,15.934,0,0,0-1.845.692c-9.225,6-40.128,33.671-50.737,38.283a43.53,43.53,0,0,1,4.613,8.072c17.527-7.841,58.578-32.518,57.656-40.128C761.815,319.84,756.511,318.917,753.282,319.609Z" transform="translate(-623.411 -198.894)"/>
      <path id="Path_6566" data-name="Path 6566" class="cls-3" d="M736.461,294.523c-3.921,9.455-8.764,41.973-14.068,57.194-6.457,18.681,8.764,16.374,12.684,11.531,9.917-13.145,30.9-53.966,24.446-59.962C756.756,300.75,737.152,292.909,736.461,294.523Z" transform="translate(-597.134 -231.694)"/>
      <path id="Path_6567" data-name="Path 6567" class="cls-5" d="M760.162,292.285c-1.614,10.378-3.229,19.834-5.535,31.134s-4.843,23.062-7.38,30.442c-.461,1.384-.692,2.537-1.153,3.69-3.69,2.768-8.764,6.919-14.068,11.3-11.531,9.225-25.6,20.987-31.826,23.523l6.458,12.223c15.452-6.919,49.584-26.983,57.194-37.361,8.072-10.839,29.289-49.814,23.754-59.962C778.381,290.44,760.162,291.593,760.162,292.285Z" transform="translate(-624.064 -234.761)"/>
      <path id="Path_6544" data-name="Path 6544" class="cls-8" d="M806.256,341.4c-14.99.692-93.172,28.828-125,47.739-13.607,8.072-7.841,22.6,6.919,21.678,43.126-2.537,100.09-.923,125.228-19.142C854,363.083,814.328,340.943,806.256,341.4Z" transform="translate(-658.858 -170.183)"/>
      <path id="Path_6545" data-name="Path 6545" class="cls-3" d="M695.631,407.483c-.231,4.382-.231,6.919-.231,6.919,3,3,8.3,3,8.3,2.767a26.43,26.43,0,0,0,.692-9.225C703.7,408.175,699.551,404.024,695.631,407.483Z" transform="translate(-630.334 -85.665)"/>
      <path id="Path_6546" data-name="Path 6546" class="cls-8" d="M675.824,384.456c25.83,46.586,47.969,85.561,47.969,85.561a8.785,8.785,0,0,1,9.917-3.921s-14.99-43.818-30.211-88.328C693.582,348.709,665.216,365.545,675.824,384.456Z" transform="translate(-658.958 -143.125)"/>
      <path id="Path_6547" data-name="Path 6547" class="cls-16" d="M705.2,408.7a16.178,16.178,0,0,1-1.845,2.076c-2.768,2.537-14.991,8.072-15.452,12.223-.231,2.076,3.921,4.382,7.38,4.843s6.688.692,8.533-.231c2.537-1.153,7.61-6.458,8.533-7.611,1.614-2.076,1.614-7.841,1.614-7.841C711.89,407.32,705.2,408.7,705.2,408.7Z" transform="translate(-640.136 -82.504)"/>
      <path id="Path_6548" data-name="Path 6548" class="cls-16" d="M703.927,411.331c-3.459,2.537-14.99,6.457-15.221,9.917-.231,1.614,3.229,3.69,6.227,4.151s5.535.461,7.149-.231c2.076-.922,6.458-5.535,7.15-6.457C713.383,412.945,707.387,408.794,703.927,411.331Z" transform="translate(-639.092 -79.827)"/>
      <path id="Path_6549" data-name="Path 6549" class="cls-3" d="M724.355,409.42c-.692,5.3,2.537,10.378,2.537,10.378.231.231,7.611-2.537,10.609-5.535a61.1,61.1,0,0,1-3.921-6.919C729.429,403.885,724.816,409.42,724.355,409.42Z" transform="translate(-592.639 -85.526)"/>
      <path id="Path_6550" data-name="Path 6550" class="cls-8" d="M705.774,387.456c25.83,46.586,45.663,78.642,45.663,78.642a8.785,8.785,0,0,1,9.917-3.921s-12.684-36.9-27.905-81.41C723.762,351.709,695.4,368.545,705.774,387.456Z" transform="translate(-619.721 -139.206)"/>
      <path id="Path_6551" data-name="Path 6551" class="cls-16" d="M735.709,410.822a16.178,16.178,0,0,1-1.845-2.076s-6.688-1.614-8.763,3.229c0,0,0,5.766,1.614,7.841.922,1.153,6,6.457,8.533,7.611,2.076.922,5.074.692,8.533.231s7.61-2.768,7.38-4.843C750.7,418.894,738.476,413.589,735.709,410.822Z" transform="translate(-591.539 -82.547)"/>
      <path id="Path_6552" data-name="Path 6552" class="cls-16" d="M732.749,411.269c-3.459-2.306-9.225,1.845-5.3,7.149.692.922,5.074,5.535,7.149,6.457,1.614.692,4.382.692,7.149.231,3-.461,6.457-2.306,6.227-4.151C747.739,417.727,736.208,413.575,732.749,411.269Z" transform="translate(-590.194 -79.765)"/>
      <path id="Path_6553" data-name="Path 6553" class="cls-13" d="M794.01,341.584c-17.3,2.076-34.363,4.612-51.66,5.074a110.793,110.793,0,0,1-30.673-3.459c0,16.144-3.229,18.68-10.378,22.832,5.074,17.758,15.221,22.6,24.216,25.6,23.293,7.611,81.641-9.917,83.255-9.917a331.842,331.842,0,0,0-3-41.512C801.852,340.661,798.162,341.122,794.01,341.584Z" transform="translate(-622.627 -171.746)"/>
      <path id="Path_6554" data-name="Path 6554" class="cls-3" d="M735.9,279.5c-1.153.922-13.607,7.841-17.3,7.38,0,.923,2.537,11.531.231,17.066.923,5.3,15.452,5.3,19.372-3.69C736.589,297.719,735.2,284.343,735.9,279.5Z" transform="translate(-600.029 -251.034)"/>
      <path id="Path_6555" data-name="Path 6555" class="cls-3" d="M728.551,272.042c-6.457-.461-12.915,1.153-14.3,7.38-.462,2.306.461,22.37,11.3,25.368,4.613,1.384,13.146-6.457,13.607-11.762l.461-7.149C739.851,278.73,735.469,272.5,728.551,272.042Z" transform="translate(-605.829 -260.872)"/>
      <path id="Path_6556" data-name="Path 6556" class="cls-17" d="M774.908,292.421c-3.69-.923-14.76-3.921-14.76-3.921s-2.076,3-8.763,4.382a18.063,18.063,0,0,1-10.609-.692s-12.684,3.921-14.99,5.3c-8.995,5.3-8.995,8.994-9.686,21.217-.231,5.766-.461,93.863-14.3,114.158.461.923,5.535,12.915,17.066,15.913l2.768-24.907,2.537,26.06c26.983,5.766,47.508-4.843,69.187-8.3l2.076-32.748,6.227,31.6q3.114-.346,5.535-.692c-.23-50.045-14.068-125-14.76-127.3C789.9,303.029,785.977,294.957,774.908,292.421Z" transform="translate(-621.974 -239.278)"/>
      <path id="Path_6557" data-name="Path 6557" class="cls-8" d="M748.1,270.485c-10.378-8.072-27.675-.231-32.056,10.378-3.459,7.841-6.458,2.306-6.227.231-.923,5.3,1.153,9.686,11.3,8.994,2.076-.231-4.612,1.845-4.612,1.845s10.839,22.37,27.444,16.835c4.843-1.614,9.225-6.457,9.225-6.457s-5.3.923-2.537-3.459C755.937,290.319,757.32,277.4,748.1,270.485Z" transform="translate(-611.767 -267.157)"/>
      <path id="Path_6558" data-name="Path 6558" class="cls-3" d="M673.029,327.949c-.461.692,2.306,3.459,3,3.69,2.076,0,2.076-1.384,4.151-1.153a20.186,20.186,0,0,1-5.074-2.306C674.413,327.488,673.721,326.8,673.029,327.949Z" transform="translate(-659.623 -188.554)"/>
      <path id="Path_6559" data-name="Path 6559" class="cls-3" d="M682.9,328.754c-2.537,0-8.3.922-8.764.922-1.153.231-4.151.461-5.074.922a6.279,6.279,0,0,0-1.845,2.306c-.23.922.923,1.384.923,1.384-.461,1.153,2.768,1.614,2.537,2.076-.692,1.153.461,2.306,5.074,1.614.23,0,11.762.231,15.221.231,0-2.306-1.614-9.225-1.845-9.225A27.091,27.091,0,0,0,682.9,328.754Z" transform="translate(-667.187 -186.822)"/>
      <path id="Path_6560" data-name="Path 6560" class="cls-3" d="M736.423,321.711a6.74,6.74,0,0,0-2.076.461C724.2,326.554,687.3,335.317,676,338.315a37.853,37.853,0,0,1,3.229,8.763c18.45-5.074,65.266-9.225,65.266-16.835C744.726,323.325,739.883,321.48,736.423,321.711Z" transform="translate(-655.675 -195.922)"/>
      <path id="Path_6561" data-name="Path 6561" class="cls-3" d="M724.536,297.692c-5.535,8.533-15.221,40.128-22.6,54.2-9.225,17.3,6.227,17.527,10.609,13.146,11.761-11.531,38.975-48.661,33.44-55.349C743.908,306.917,725.689,296.078,724.536,297.692Z" transform="translate(-625.568 -227.484)"/>
      <path id="Path_6562" data-name="Path 6562" class="cls-18" d="M751.422,295.171c-3.229,9.917-6.227,19.142-10.378,29.75-4.151,10.839-8.3,21.909-11.992,29.058a23.289,23.289,0,0,0-1.614,3.459c-4.151,2.306-44.279,11.531-50.737,13.145l2.306,13.376c16.374-2.306,55.349-5.074,64.574-14.3,9.686-9.456,36.669-44.741,32.748-55.58C769.641,296.094,751.652,294.479,751.422,295.171Z" transform="translate(-654.76 -230.728)"/>
      <path id="Path_6563" data-name="Path 6563" class="cls-3" d="M699.082,336.749c-.923-.23-2.076-.692-2.076.692-.231.923,3.459,2.306,4.382,2.076,2.076-.922,1.384-2.076,3.459-2.768A24.02,24.02,0,0,1,699.082,336.749Z" transform="translate(-628.25 -176.597)"/>
      <path id="Path_6564" data-name="Path 6564" class="cls-3" d="M711.384,336.4a63.929,63.929,0,0,0-6,2.306c-2.306,1.153-7.38,4.151-7.61,4.382-.923.692-3.69,2.076-4.151,2.767a3.867,3.867,0,0,0-.692,2.767c.231.922,1.384.922,1.384.922,0,1.153,3.229.461,3,.692-.231,1.384,1.383,1.845,5.3-.461.23-.231,10.839-4.382,14.068-6C716,341.935,711.615,336.4,711.384,336.4Z" transform="translate(-633.634 -176.71)"/>
    </g>
    <g id="Group_3837" data-name="Group 3837" transform="translate(1488.942 4975.707)">
      <path id="Path_6568" data-name="Path 6568" class="cls-13" d="M750.5,374.3l33.671,98.476h3.92L754.19,374.3Z" transform="translate(-618.815 -228.547)"/>
      <path id="Path_6569" data-name="Path 6569" class="cls-13" d="M725.7,374.3l33.671,98.476h3.92L729.39,374.3Z" transform="translate(-651.209 -228.547)"/>
      <path id="Path_6570" data-name="Path 6570" class="cls-13" d="M831.421,311.1c-23.754,0-46.586,19.142-50.968,42.9l-14.76,61.576c-2.537,13.837-17.989,23.985-32.056,23.985h-30.9a8.533,8.533,0,0,0,0,17.066l127.3.231a12.38,12.38,0,0,0,12.223-9.917l24.215-92.71C870.857,330.242,855.175,311.1,831.421,311.1Z" transform="translate(-692.355 -311.1)"/>
      <path id="Path_6571" data-name="Path 6571" class="cls-11" d="M831.421,311.1c-23.754,0-46.586,19.142-50.968,42.9L765.693,415.8c-2.537,13.837-17.989,24.215-32.056,24.215h-30.9a8.467,8.467,0,0,0-8.533,8.3,8.321,8.321,0,0,0,8.533,8.3h3.921a8.661,8.661,0,0,1,7.841-5.074h30.9c14.3,0,29.52-10.147,32.057-23.985l14.76-61.576c4.382-23.754,27.213-42.9,50.968-42.9a37.618,37.618,0,0,1,19.142,5.074C856.328,317.557,845.258,311.1,831.421,311.1Z" transform="translate(-692.355 -311.1)"/>
      <path id="Path_6572" data-name="Path 6572" class="cls-11" d="M693.4,472.776h3.92L730.992,374.3H727.3Z" transform="translate(-693.4 -228.547)"/>
      <path id="Path_6573" data-name="Path 6573" class="cls-11" d="M718.2,472.776h3.92L755.792,374.3H752.1Z" transform="translate(-661.006 -228.547)"/>
    </g>
    <g id="Group_3840" data-name="Group 3840" transform="translate(601.506 4528)">
      <path id="Path_6574" data-name="Path 6574" class="cls-3" d="M555.452,292.945c-.461-.922-.923-2.076-1.845-1.153-.692.461.692,4.151,1.384,4.612,2.076.923,2.537-.461,4.382.692A16.525,16.525,0,0,1,555.452,292.945Z" transform="translate(11.188 106.262)"/>
      <path id="Path_6575" data-name="Path 6575" class="cls-3" d="M556.482,293.718c-.923-.231-3.229-.923-4.151-.692a4.717,4.717,0,0,0-2.306,1.614,1.661,1.661,0,0,0,0,1.614c-.922.923,1.384,2.306,1.153,2.537-.923.692-.692,2.306,3,3,.231,0,8.764,3.69,11.531,4.613.923-2.076,2.767-8.764,2.537-8.764a15.371,15.371,0,0,0-4.843-2.076C561.555,294.871,556.943,293.949,556.482,293.718Z" transform="translate(6.468 108.257)"/>
      <path id="Path_6576" data-name="Path 6576" class="cls-3" d="M598.377,274.219c-3.459-1.153-24.677.461-24.677,2.306.461,10.147,10.378,41.512,12.454,57.425,2.306,19.6,15.221,10.839,16.374,4.843C605.756,322.65,606.679,276.756,598.377,274.219Z" transform="translate(37.68 83.245)"/>
      <path id="Path_6577" data-name="Path 6577" class="cls-5" d="M598.377,274.219c-3.459-1.153-24.677.461-24.677,2.306.231,7.149,4.843,25.369,6.919,40.82a114.578,114.578,0,0,0,17.758-.922c2.076-.231,8.533-.922,10.609-1.384C609.677,296.59,603.911,275.834,598.377,274.219Z" transform="translate(37.68 83.245)"/>
      <path id="Path_6578" data-name="Path 6578" class="cls-3" d="M622.211,306.453a13.6,13.6,0,0,0-1.845-.922c-10.609-3-51.89-6.688-62.5-11.531a30.18,30.18,0,0,1-2.768,8.763c17.527,7.611,63.652,21.217,68.5,15.452C627.746,312.911,624.979,308.529,622.211,306.453Z" transform="translate(13.385 109.589)"/>
      <path id="Path_6579" data-name="Path 6579" class="cls-19" d="M344.545,413.49c-1.153-1.384-2.767-3.69-2.767-3.69l-7.149,3.921s-.692.692-.231,3a6.772,6.772,0,0,0,.231,4.843c.692,1.384,5.535,3.229,7.611,3.921a22.422,22.422,0,0,0,8.533,1.153c3.459-.231,7.841-2.075,7.841-4.151C358.613,418.564,346.852,416.488,344.545,413.49Z" transform="translate(-275.359 260.85)"/>
      <path id="Path_6580" data-name="Path 6580" class="cls-3" d="M343.819,409.7l-9.686,1.845a25.346,25.346,0,0,0,.231,5.535s4.382,1.614,6,.692a12.636,12.636,0,0,0,4.151-3.921C342.666,411.314,343.819,409.7,343.819,409.7Z" transform="translate(-275.324 260.719)"/>
      <path id="Path_6581" data-name="Path 6581" class="cls-4" d="M325.3,311.721v45.2c3.459,2.768,11.762,43.126,17.758,85.792,7.149,49.353,1.614,101.935,1.614,101.935,3.459,3.921,10.609,0,10.609-.231,0,0,13.376-48.661,17.758-101.935,5.074-61.807,1.153-129.61.461-134.684C367.735,310.337,342.6,312.874,325.3,311.721Z" transform="translate(-286.786 127.615)"/>
      <g id="Group_3838" data-name="Group 3838" transform="translate(77.261 340.587)">
        <path id="Path_6582" data-name="Path 6582" class="cls-3" d="M387.435,309.114a22.281,22.281,0,0,1-5.535.231c2.076.461,1.384,1.614,3.459,2.537.922,0,4.382-1.384,4.151-2.306C389.511,308.191,388.588,308.883,387.435,309.114Z" transform="translate(-290.115 -211.749)"/>
        <path id="Path_6583" data-name="Path 6583" class="cls-3" d="M398.011,315.157c-.461-.231-5.3-3-7.841-4.151-2.076-.922-4.151-1.614-6-2.306-.231,0-4.382,5.766-5.074,7.841,3.229,1.614,14.068,5.3,14.3,5.535,3.921,2.306,5.535,1.614,5.3.461,0-.231,3,.461,3-.922a1.432,1.432,0,0,0,1.384-1.153c.231-.692-.461-2.306-.692-2.768C401.7,317.233,398.934,315.849,398.011,315.157Z" transform="translate(-293.772 -211.797)"/>
        <path id="Path_6584" data-name="Path 6584" class="cls-3" d="M363.433,292.7c-3.459-.692-8.533.461-9.225,7.38-.922,7.61,41.051,30.9,58.809,38.283a36.687,36.687,0,0,1,4.382-8.3c-10.839-4.151-42.434-31.134-51.89-36.669Z" transform="translate(-326.306 -232.926)"/>
        <path id="Path_6585" data-name="Path 6585" class="cls-3" d="M366.842,267.817c-.692-1.614-20.295,6.688-22.832,9.455-6.227,6,16.144,46.124,26.291,59.039,3.921,4.843,19.142,6.457,12.223-11.762C376.989,309.329,371.224,277.042,366.842,267.817Z" transform="translate(-341.014 -265.469)"/>
        <path id="Path_6586" data-name="Path 6586" class="cls-18" d="M377.615,294.629c-2.768-11.07-5.3-21.678-7.38-26.522-.461-.692-1.153-1.384-1.845-1.384-3.69-.692-21.909,7.38-24.677,10.147-8.3,8.3,17.758,51.429,26.06,62.037,7.841,10.147,42.665,29.058,58.348,35.516l6-12.454c-6.227-2.537-42.9-30.673-46.816-33.44C386.84,327.377,380.382,305.7,377.615,294.629Z" transform="translate(-342.101 -266.682)"/>
      </g>
      <path id="Path_6587" data-name="Path 6587" class="cls-20" d="M509.4,431.3c25.83,17.527,89.482,60.193,99.629,65.958v-85.1L509.4,292.7V431.3Z" transform="translate(-46.31 107.891)"/>
      <path id="Path_6588" data-name="Path 6588" class="cls-13" d="M559.9,285.7Z" transform="translate(19.655 98.747)"/>
      <path id="Path_6589" data-name="Path 6589" class="cls-11" d="M592.616,310.845a48.82,48.82,0,0,1-14.068,2.537c-4.843,0-16.835-2.306-17.988-4.382,0,.231,0,.231-.23.461h0C552.949,334.6,545.8,362.5,545.8,379.57c0,15.682,2.537,49.814,4.613,76.105a41.453,41.453,0,0,0,8.994,23.293c5.074,5.766,11.762,9.456,18.911,9.456,14.529,0,26.522-14.068,27.905-32.748,2.076-26.291,4.612-60.654,4.612-76.105,0-17.066-6.919-45.2-14.529-70.34A17.848,17.848,0,0,1,592.616,310.845Z" transform="translate(1.237 129.182)"/>
      <path id="Path_6590" data-name="Path 6590" class="cls-9" d="M586.377,309.8a42.078,42.078,0,0,1-28.136.231v.231c-4.151,19.142-7.841,38.975-7.841,51.659,0,13.376,1.615,43.126,3,65.727.461,8.072,2.768,14.991,6.227,20.064s7.841,8.072,12.684,8.072c9.686,0,17.989-12.223,18.911-28.367,1.384-22.832,3-52.351,3-65.958,0-12.454-3.229-32.287-7.841-51.659Z" transform="translate(7.245 130.227)"/>
      <path id="Path_6591" data-name="Path 6591" class="cls-20" d="M452.6,481.5H595.13c1.153-19.142,11.07-106.317,16.374-173.2H436C441.535,374.95,451.221,462.356,452.6,481.5Z" transform="translate(-142.187 128.268)"/>
      <path id="Path_6592" data-name="Path 6592" class="cls-8" d="M452.474,383.4c-1.153,4.151-11.07,23.754-16.374,38.514H611.6c-5.3-14.99-15.221-34.363-16.374-38.514Z" transform="translate(-142.056 226.365)"/>
      <path id="Path_6593" data-name="Path 6593" class="cls-20" d="M395.4,497.262c10.147-5.765,73.8-48.431,99.629-65.958V292.7L395.4,412.162Z" transform="translate(-195.22 107.891)"/>
      <path id="Path_6594" data-name="Path 6594" class="cls-18" d="M537.974,119h0c-.23,0-28.828,51.2-57.425,114.619C452.644,295.657,425.2,369.456,425.2,418.348c0,41.743,8.764,133.53,15.913,203.87a97.349,97.349,0,0,0,193.723,0c7.149-70.34,15.913-162.128,15.913-203.87,0-48.892-27.444-122.691-55.35-184.729C566.8,170.2,537.974,119,537.974,119Z" transform="translate(-156.294 -119)"/>
      <path id="Path_6595" data-name="Path 6595" class="cls-17" d="M526.219,119.1S434.2,287.685,434.2,373.246c0,36.208,7.149,115.542,12.915,176.426,4.151,42.9,38.283,75.644,79.1,75.644h0c40.82,0,74.952-32.749,79.1-75.644,5.766-60.884,12.915-140.218,12.915-176.426,0-85.33-92.018-254.146-92.018-254.146Z" transform="translate(-144.538 -118.869)"/>
      <path id="Path_6599" data-name="Path 6599" class="cls-6" d="M506.494,119S477.667,170.2,449.3,233.619a223.712,223.712,0,0,0,57.194,7.841,225.387,225.387,0,0,0,57.425-7.611C535.322,170.2,506.494,119,506.494,119Z" transform="translate(-124.814 -119)"/>
      <path id="Path_6600" data-name="Path 6600" class="cls-11" d="M428.987,370.572c-2.306-16.835-12.915-43.818-23.754-67.572-1.153.692-2.306,1.153-3.69,1.845A47.987,47.987,0,0,1,387.706,309c-8.072,1.153-18.45-1.384-18.45-1.384-4.151,25.83-7.149,54.658-5.074,71.724,2.076,15.452,9.225,49.123,14.76,74.952,3.921,18.219,17.758,30.673,32.056,28.6,13.607-1.845,23.293-16.144,23.293-33.44v-2.537C433.139,420.387,431.063,386.255,428.987,370.572Z" transform="translate(-236.879 121.345)"/>
      <path id="Path_6601" data-name="Path 6601" class="cls-9" d="M411.7,354.306c-1.845-12.684-7.841-31.826-14.76-50.506a41.751,41.751,0,0,1-13.837,4.151,42.376,42.376,0,0,1-14.3-.692c-1.615,19.6-2.537,39.9-.922,52.582,1.845,13.376,7.38,42.434,11.762,64.8,3.229,15.682,12.915,26.752,22.6,25.369,8.994-1.153,15.221-12.454,15.221-26.752a19.832,19.832,0,0,0-.231-3.69C415.847,397.2,413.541,367.682,411.7,354.306Z" transform="translate(-232.272 122.39)"/>
      <path id="Path_6602" data-name="Path 6602" class="cls-19" d="M321.168,414.221c-1.153-1.614-2.537-3.921-2.537-3.921l-7.38,3.459s-.692.692-.461,3a6.193,6.193,0,0,0,0,4.843c.692,1.384,5.074,3,7.38,4.382,1.845,1.153,4.843,1.614,8.3,1.845s8.072-1.384,8.072-3.459C334.775,420.217,323.244,417.219,321.168,414.221Z" transform="translate(-306.408 261.503)"/>
      <path id="Path_6603" data-name="Path 6603" class="cls-3" d="M319.956,410.1l-9.456.923v5.766s4.382,1.845,6,1.153a12.947,12.947,0,0,0,4.382-3.69A4.728,4.728,0,0,1,319.956,410.1Z" transform="translate(-306.118 261.242)"/>
      <path id="Path_6604" data-name="Path 6604" class="cls-9" d="M309.7,309.531s4.843,89.02,7.38,131.916c3.229,49.814-6.457,101.7-6.457,101.7,3.229,4.151,10.378.922,10.609.461,0,0,17.066-47.047,25.6-99.629,9.917-61.345,11.531-129.84,11.07-134.683C352.134,311.376,326.766,312.067,309.7,309.531Z" transform="translate(-307.163 129.574)"/>
      <path id="Path_6605" data-name="Path 6605" class="cls-3" d="M343.043,250.6c0,4.843-3,17.988-4.843,20.295,2.767,9.225,17.3,11.07,18.911,6-1.614-5.765,2.076-15.913,2.306-16.835C355.5,260.055,344.2,251.753,343.043,250.6Z" transform="translate(-269.936 52.899)"/>
      <path id="Path_6606" data-name="Path 6606" class="cls-3" d="M354.218,243.915c-7.149-.461-11.992,5.074-12.454,12.223l-.461,7.149c-.231,5.3,7.38,14.068,11.992,13.376,11.07-1.614,14.529-21.448,14.3-23.754C366.9,246.452,360.675,244.146,354.218,243.915Z" transform="translate(-265.889 44.132)"/>
      <path id="Path_6607" data-name="Path 6607" class="cls-17" d="M409.843,272.545c-2.076-1.614-14.3-7.149-14.3-7.149s-3.459,3.459-6.919,2.768c-5.074-.923-11.992-8.764-11.992-8.764s-11.3,1.153-14.991,2.076C328.664,270.239,308.6,308.753,308.6,404c1.614.231,6,.692,8.072,1.153l10.147-30.442-2.076,32.748c30.673,16.6,52.813,10.378,75.644,1.153-3-50.737,11.07-102.858,11.992-108.393C413.764,290.073,418.146,278.772,409.843,272.545Z" transform="translate(-308.6 64.394)"/>
      <path id="Path_6608" data-name="Path 6608" class="cls-18" d="M342.776,278.364c.692-7.611-19.142-7.611-19.372,4.612-.461,15.913,23.985,49.584,25.83,51.89,5.3,6.457,33.9,11.992,33.9,11.992S341.162,301.426,342.776,278.364Z" transform="translate(-289.272 82.33)"/>
      <path id="Path_6609" data-name="Path 6609" class="cls-8" d="M358.583,268.164c-5.074-.923-11.992-8.764-11.992-8.764s-5.766.461-7.611.461a32.28,32.28,0,0,0-7.38,1.384c13.376,8.764,32.748,30.442,32.748,30.442s13.146-9.456,15.221-19.6c-2.537-1.845-14.068-6.919-14.068-6.919S362.042,268.855,358.583,268.164Z" transform="translate(-278.557 64.394)"/>
      <path id="Path_6610" data-name="Path 6610" class="cls-18" d="M345.463,240.93c-10.609,8.3-10.147,25.368-2.076,33.671,0,0,2.076-11.07,6-15.682,28.6,8.072,31.826.922,32.056-2.306C381.671,242.544,359.3,230.091,345.463,240.93Z" transform="translate(-270.972 34.894)"/>
      <path id="Path_6611" data-name="Path 6611" class="cls-3" d="M342.941,247.949c-1.845.231-3.459,2.768-3.229,4.612.231,1.614,2.537,4.151,4.151,4.382.461-2.076,1.614-6,2.076-8.3A3.847,3.847,0,0,0,342.941,247.949Z" transform="translate(-267.989 49.323)"/>
      <path id="Path_6612" data-name="Path 6612" class="cls-3" d="M371.935,307.179a15.042,15.042,0,0,1-5.535.461c2.076.461,1.614,1.614,3.69,2.306.922,0,4.382-1.614,4.151-2.537C373.78,306.257,372.857,306.718,371.935,307.179Z" transform="translate(-233.1 126.16)"/>
      <path id="Path_6613" data-name="Path 6613" class="cls-3" d="M382.511,312.535c-.461-.231-5.535-2.768-8.072-3.69A63.62,63.62,0,0,0,368.213,307a44.676,44.676,0,0,0-4.613,8.072c3.459,1.384,14.3,4.612,14.529,4.843,3.921,2.076,5.535,1.384,5.3,0,0-.231,3,.231,3-1.153,0,0,1.153-.23,1.153-1.153a4.026,4.026,0,0,0-.922-2.767C386.432,314.149,383.664,313,382.511,312.535Z" transform="translate(-236.758 126.57)"/>
      <path id="Path_6614" data-name="Path 6614" class="cls-17" d="M372.222,327.3c-.461-1.153-.922-2.306-1.384-3.69-3.229-7.149-6.688-18.681-9.917-29.75s-6.457-21.448-8.994-26.06a3.358,3.358,0,0,0-2.076-1.384c-3.921-.692-21.448,8.764-23.985,11.531-7.841,8.763,20.526,50.506,29.52,60.423,8.533,9.686,44.28,26.752,60.192,32.287l5.3-12.915c-6.457-2.076-21.679-12.454-33.671-20.756C381.447,333.3,376.143,329.841,372.222,327.3Z" transform="translate(-287.814 73.517)"/>
      <path id="Path_6615" data-name="Path 6615" class="cls-3" d="M604.8,356.482c.231,2.767,7.841,137.22,7.841,137.22,3.229,2.767,8.533,2.076,8.533,1.845,0,0,12.223-137.22,11.762-143.447C629.246,354.867,606.876,358.788,604.8,356.482Z" transform="translate(78.304 185.481)"/>
      <path id="Path_6616" data-name="Path 6616" class="cls-19" d="M625.285,415.721l-7.149-3.921s-1.614,2.306-2.767,3.69c-2.537,2.768-14.068,4.843-14.068,8.994,0,2.076,4.382,3.921,7.841,4.151s6.688,0,8.533-1.153c2.306-1.384,6.919-2.537,7.61-3.921a5.639,5.639,0,0,0,.231-4.843A5.84,5.84,0,0,0,625.285,415.721Z" transform="translate(73.732 263.462)"/>
      <path id="Path_6617" data-name="Path 6617" class="cls-3" d="M607.3,415.882a10.539,10.539,0,0,0,4.151,3.921c1.614.922,6-.692,6-.692a22.117,22.117,0,0,0,.461-3.921l-8.072-3.69A13,13,0,0,1,607.3,415.882Z" transform="translate(81.569 263.07)"/>
      <path id="Path_6618" data-name="Path 6618" class="cls-8" d="M599.74,309.8c-1.384,9.225,18.219,236.388,18.219,236.388,0,.461,7.149,4.151,10.609.231,0,0,3.69-52.351,10.839-101.935,6-42.665,8.533-130.994,8.533-130.994C630.643,314.874,605.505,312.337,599.74,309.8Z" transform="translate(71.603 130.227)"/>
      <path id="Path_6619" data-name="Path 6619" class="cls-3" d="M588.5,356.482c.231,2.767,7.841,137.22,7.841,137.22,3.229,2.767,8.533,2.076,8.533,1.845,0,0,12.223-137.22,11.762-143.447C612.946,354.867,590.576,358.788,588.5,356.482Z" transform="translate(57.013 185.481)"/>
      <path id="Path_6620" data-name="Path 6620" class="cls-19" d="M608.985,415.721l-7.149-3.921s-1.614,2.306-2.768,3.69c-2.537,2.768-14.068,4.843-14.068,8.994,0,2.076,4.382,3.921,7.841,4.151a22.423,22.423,0,0,0,8.533-1.153c2.076-.692,6.919-2.537,7.611-3.921a5.64,5.64,0,0,0,.23-4.843A5.846,5.846,0,0,0,608.985,415.721Z" transform="translate(52.441 263.462)"/>
      <path id="Path_6621" data-name="Path 6621" class="cls-3" d="M591,415.882a10.54,10.54,0,0,0,4.151,3.921c1.614.922,6-.692,6-.692a22.117,22.117,0,0,0,.461-3.921l-8.072-3.69C593.767,411.731,592.845,413.576,591,415.882Z" transform="translate(60.278 263.07)"/>
      <path id="Path_6622" data-name="Path 6622" class="cls-8" d="M583.44,309.8c-1.384,9.225,18.219,236.388,18.219,236.388,0,.461,7.149,4.151,10.609.231,0,0,3.69-52.351,10.839-101.935,6-42.665,5.074-83.255,8.533-85.792v-45.2C614.343,314.874,589.205,312.337,583.44,309.8Z" transform="translate(50.311 130.227)"/>
      <path id="Path_6623" data-name="Path 6623" class="cls-5" d="M585.166,331.187s-5.3,20.756-2.076,22.37c6.919,3.69,27.905-6.227,44.049-12.223s47.739-9.917,47.739-13.376c0-9.686-8.763-29.058-8.763-29.058Z" transform="translate(48.585 115.99)"/>
      <path id="Path_6624" data-name="Path 6624" class="cls-3" d="M580.8,264.67c.231.922,5.074,10.609,4.151,16.6,2.076,4.843,16.374,1.615,18.219-8.072-2.306-2.076-6.688-14.76-7.149-19.6C594.868,254.753,584.259,264.439,580.8,264.67Z" transform="translate(46.955 56.818)"/>
      <path id="Path_6625" data-name="Path 6625" class="cls-3" d="M600.63,258.532c-1.153-6.919-6.688-11.992-13.607-10.839-6.457,1.153-12.223,3.921-12.223,10.378,0,2.306,5.535,21.678,16.6,22.14,4.613.231,11.3-9.225,10.609-14.529C601.783,265.681,600.63,258.532,600.63,258.532Z" transform="translate(39.117 48.888)"/>
      <path id="Path_6626" data-name="Path 6626" class="cls-20" d="M627.156,262.661c-3.921,0-15.221-.461-15.221-.461s-6,8.3-11.07,9.917c-3.46,1.153-7.149-1.845-7.149-1.845s-11.531,6.688-13.376,8.533a19,19,0,0,0-4.382,22.832c24.907,54.427,13.607,81.64,16.836,85.1,7.61,8.3,89.712-17.066,89.02-29.52-2.306-43.588-28.828-77.028-30.9-80.256C644.453,267.274,638.457,262.661,627.156,262.661Z" transform="translate(37.959 68.051)"/>
      <path id="Path_6627" data-name="Path 6627" class="cls-6" d="M602.715,245.788c-11.3-6.227-23.754,6.227-23.754,6.227-10.608,4.612-4.382,20.295,1.384,21.448-5.074-11.3,1.845-17.066,1.845-17.066,14.76-3.69,24.215,12.915,24.446,17.758C606.636,273.923,619.781,255.012,602.715,245.788Z" transform="translate(37.032 44.335)"/>
      <path id="Path_6628" data-name="Path 6628" class="cls-3" d="M587.037,251.141a5.232,5.232,0,0,0-2.537,1.614c1.153,2.075,3.69,5.535,4.843,7.149,1.614-.922,2.767-3.921,2.306-5.766C591.188,252.525,588.882,250.679,587.037,251.141Z" transform="translate(51.788 53.511)"/>
      <path id="Path_6629" data-name="Path 6629" class="cls-20" d="M546.5,319.861a51.783,51.783,0,0,0,13.376,13.145c5.3,3.459,11.531,5.3,17.527,6.457,8.533-29.52,14.76-56.964,14.76-56.964h0S569.793,299.8,546.5,319.861Z" transform="translate(2.151 94.567)"/>
      <path id="Path_6646" data-name="Path 6646" class="cls-20" d="M0,37.361A51.785,51.785,0,0,0,13.376,50.506c5.3,3.459,11.531,5.3,17.527,6.457C39.436,27.444,45.663,0,45.663,0h0S23.293,17.3,0,37.361Z" transform="matrix(0.755, -0.656, 0.656, 0.755, 108.434, 401.807)"/>
      <g id="Group_3839" data-name="Group 3839" transform="translate(563.411 337.767)">
        <path id="Path_6630" data-name="Path 6630" class="cls-3" d="M558.126,300.057c-.461.692,2.767,3,3.69,3.229,2.076-.461,1.845-1.614,3.921-1.845a19.938,19.938,0,0,1-5.3-1.384C559.509,299.6,558.587,298.9,558.126,300.057Z" transform="translate(-546.133 -221.09)"/>
        <path id="Path_6631" data-name="Path 6631" class="cls-3" d="M567.66,301.122c-2.537.461-8.072,2.306-8.533,2.306-1.153.461-3.921,1.153-4.843,1.614a5.5,5.5,0,0,0-1.384,2.537,1.706,1.706,0,0,0,.923,1.384c-.231,1.153,3,1.153,2.767,1.614-.461,1.153.923,2.306,5.3.692.231,0,11.531-1.614,15.221-2.306-.231-2.306-3.229-8.764-3.229-8.764C572.042,300.431,569.736,300.661,567.66,301.122Z" transform="translate(-552.9 -220.08)"/>
        <path id="Path_6632" data-name="Path 6632" class="cls-3" d="M615.883,266.181c-6.227,8.072-18.681,38.514-27.444,51.89-10.839,16.374,4.612,17.988,9.455,14.068,12.915-10.378,43.127-44.971,38.514-52.12C634.1,277.021,616.805,264.567,615.883,266.181Z" transform="translate(-511.411 -264.703)"/>
        <path id="Path_6633" data-name="Path 6633" class="cls-5" d="M610.087,266.937c-6,3.921-12.454,22.6-20.987,35.746,4.151,6,14.068,13.607,23.062,16.6,12.454-13.837,20.295-29.289,20.295-35.055C632.226,270.4,617.928,261.863,610.087,266.937Z" transform="translate(-505.615 -265.459)"/>
        <path id="Path_6634" data-name="Path 6634" class="cls-3" d="M622.454,289.4a5.725,5.725,0,0,0-2.076.231C610,293.09,573.331,312.462,561.8,314.307a33.724,33.724,0,0,1,2.537,8.994c18.911-3.459,64.805-17.066,65.5-24.677C630.526,291.706,625.913,289.4,622.454,289.4Z" transform="translate(-541.275 -234.187)"/>
      </g>
      <path id="Path_6635" data-name="Path 6635" class="cls-6" d="M637.9,275.331c-4.612-3.229-8.072-3.69-12.223-16.374-13.376-42.665-44.279-16.144-40.82-4.843.923,2.767,2.768,3.921,4.382.461,2.768-6,15.452-13.607,13.607,14.76-.461,7.38-7.38,18.68,15.221,26.522,20.525,7.149,6.918,14.991,8.994,20.064C633.052,328.835,661.188,291.244,637.9,275.331Z" transform="translate(51.897 33.242)"/>
      <path id="Path_6636" data-name="Path 6636" class="cls-3" d="M549.049,296.467c.692.923,1.845,3.69,2.537,4.382a5.649,5.649,0,0,0,2.767.922,1.677,1.677,0,0,0,1.153-1.153c1.153,0,.692-3,.922-3,1.153.231,3-1.845,0-5.3C554.815,290.7,548.127,294.622,549.049,296.467Z" transform="translate(5.367 106.891)"/>
      <path id="Path_6637" data-name="Path 6637" class="cls-19" d="M588.866,243.1a5.622,5.622,0,0,0-2.768,0,7.261,7.261,0,0,0-3,2.306c4.843.461,9.686,3.69,9.686,3.69C593.478,246.788,592.786,244.482,588.866,243.1Z" transform="translate(49.959 42.874)"/>
    </g>
    <path id="Path_6678" data-name="Path 6678" class="cls-11" d="M34.076-.208c18.647,0,33,15.353,33,34s-14.353,34-33,34a34,34,0,0,1,0-68Z" transform="translate(948.924 4714.208)"/>
    <ellipse id="Ellipse_907" data-name="Ellipse 907" class="cls-11" cx="33.5" cy="34" rx="33.5" ry="34" transform="translate(949 4808)"/>
    <ellipse id="Ellipse_908" data-name="Ellipse 908" class="cls-11" cx="33.5" cy="34" rx="33.5" ry="34" transform="translate(949 4903)"/>
  </g>
</svg>
