<svg xmlns="http://www.w3.org/2000/svg" viewBox="0 0 199.999 56.622">
  <defs>
    <style>
      .cls-1 {
        fill: #333;
      }

      .cls-2 {
        fill: #fff;
      }
    </style>
  </defs>
  <g id="icon-socialmedia" transform="translate(-1244 -7899.001)">
    <path id="Path_1114" data-name="Path 1114" class="cls-1" d="M-9560.4,13430.188c-14.569,0-22.918,18.865-20.811,34.912s14.291,21.088,28.853,21.088,28.723-11.23,26.615-27.277S-9545.839,13430.188-9560.4,13430.188Z" transform="translate(10825.533 -5531.187)"/>
    <path id="Path_1115" data-name="Path 1115" class="cls-1" d="M-9560.4,13430.188c-14.569,0-22.918,18.865-20.811,34.913s14.291,21.087,28.853,21.087,28.723-11.23,26.615-27.277S-9545.839,13430.188-9560.4,13430.188Z" transform="translate(10897.533 -5531.187)"/>
    <path id="Path_1116" data-name="Path 1116" class="cls-1" d="M-9560.4,13430.188c-14.568,0-22.918,18.865-20.81,34.912s14.29,21.088,28.852,21.088,28.723-11.229,26.615-27.276S-9545.839,13430.188-9560.4,13430.188Z" transform="translate(10969.532 -5530.566)"/>
    <g id="_34227" data-name="34227" transform="translate(1406 7919.825)">
      <path id="LinkedIn" class="cls-2" d="M19.977,21.262v7.386H15.7V21.756c0-1.731-.619-2.913-2.169-2.913a2.343,2.343,0,0,0-2.2,1.566,2.93,2.93,0,0,0-.142,1.044v7.193H6.9s.058-11.671,0-12.88h4.283v1.826c-.009.014-.02.028-.028.042h.028v-.042a4.253,4.253,0,0,1,3.86-2.128C17.865,15.464,19.977,17.305,19.977,21.262ZM2.424,9.558a2.232,2.232,0,1,0-.057,4.452H2.4a2.233,2.233,0,1,0,.028-4.452ZM.254,28.648H4.536V15.767H.254Z" transform="translate(0 -9.558)"/>
    </g>
    <g id="_34364" data-name="34364" transform="translate(1329 7919.824)">
      <path id="Behance" class="cls-2" d="M27.706,83.948H20.019V82.039h7.688v1.909Zm-12.8,7.83a5.048,5.048,0,0,1,.744,2.8,5.569,5.569,0,0,1-.848,3.046,5.281,5.281,0,0,1-1.35,1.5,5.218,5.218,0,0,1-2.154.958,13.319,13.319,0,0,1-2.7.258H0V81.247H9.219c2.324.038,3.971.711,4.944,2.033a4.858,4.858,0,0,1,.873,2.915,4.249,4.249,0,0,1-.882,2.81A4.5,4.5,0,0,1,12.7,90.092,4.239,4.239,0,0,1,14.9,91.778ZM4.4,88.773H8.442A3.828,3.828,0,0,0,10.46,88.3a1.8,1.8,0,0,0,.774-1.678,1.709,1.709,0,0,0-1.025-1.761,7.211,7.211,0,0,0-2.253-.3H4.4ZM11.623,94.3a2.047,2.047,0,0,0-1.214-2.045A4.784,4.784,0,0,0,8.5,91.934H4.4v5.087H8.437a4.482,4.482,0,0,0,1.933-.335A2.407,2.407,0,0,0,11.623,94.3ZM30.558,91.2a17.957,17.957,0,0,1,.118,2.715H20.72A3.269,3.269,0,0,0,22.149,96.8a3.6,3.6,0,0,0,1.971.513,2.777,2.777,0,0,0,2.718-1.566h3.649a4.445,4.445,0,0,1-1.325,2.471,6.642,6.642,0,0,1-5.143,2A7.463,7.463,0,0,1,19.2,98.529q-2.082-1.687-2.085-5.478A7.4,7.4,0,0,1,19,87.6a6.6,6.6,0,0,1,4.892-1.9,7.8,7.8,0,0,1,3.215.639,5.538,5.538,0,0,1,2.36,2.025A6.749,6.749,0,0,1,30.558,91.2Zm-3.592.356a2.986,2.986,0,0,0-.955-2.161,3.116,3.116,0,0,0-2.119-.74,2.835,2.835,0,0,0-2.133.784,3.685,3.685,0,0,0-.953,2.117h6.161Z" transform="translate(0 -81.247)"/>
    </g>
    <path id="facebook" class="cls-2" d="M130.653,6.241h-2V9.5h2V19.09H134.5V9.463h2.682l.285-3.222H134.5V4.405c0-.76.153-1.061.887-1.061h2.08V0H134.8c-2.86,0-4.15,1.259-4.15,3.671C130.653,5.772,130.653,6.241,130.653,6.241Z" transform="translate(1139.346 7919.824)"/>
  </g>
</svg>
